<svg xmlns="http://www.w3.org/2000/svg" width="53" height="56" viewBox="0 0 53 56">
    <g fill="#fff" fill-rule="nonzero" transform="translate(0 -1)">
        <circle cx="26" cy="6" r="5" transform="rotate(-85 26 6)"/>
        <path d="M29.23 24L27 22.228 31 16c-.547 2.524-1.473 6.69-1.77 8z"/>
        <path d="M34 29.28a4.683 4.683 0 0 1-3.571 1.635c-.115 0-.23-.008-.345-.015a4.332 4.332 0 0 1-.36-.035c-.093-.014-.194-.035-.294-.056a.135.135 0 0 1-.05-.014 2.888 2.888 0 0 1-.238-.057 4.862 4.862 0 0 1-1.336-.612c-.13-.092-5.72-5.065-5.72-5.065a2.43 2.43 0 0 1-.481-3.058l4.052-6.89a.153.153 0 0 0 .036-.055.205.205 0 0 0 .015-.07.18.18 0 0 0-.18-.177.18.18 0 0 0-.165.113l-4.074 6.903a2.808 2.808 0 0 0 .553 3.494s5.698 5.051 5.885 5.164l-.23 1.05.007.007a8.386 8.386 0 0 1-1.365 2.683l-2.12 2.973-.23.317a.113.113 0 0 0-.029.05l-6.129 8.587a6.875 6.875 0 0 1-1.653 1.62L2.52 57 .608 54.316A3.212 3.212 0 0 1 .05 51.87a3.256 3.256 0 0 1 1.377-2.112l10.714-7.354 5.936-8.298a5.293 5.293 0 0 1-1.193-4.938l.2-.733c.01-.03.013-.061.008-.092l-1.854-13.067a.19.19 0 0 0-.208-.155.18.18 0 0 0-.151.197l.424 2.959-3.277 3.212-3.212 10.63c-2.486-.652-3.963-3.156-3.298-5.593l2.407-7.481 7.53-7.376A2.347 2.347 0 0 1 17.1 11l11.497 1.416a2.345 2.345 0 0 1 1.651.669c.437.43.681 1.013.678 1.62 0 .029-.05.31-.144.768a1.516 1.516 0 0 1-.165.367l-4.096 6.952L34 29.28z"/>
        <path d="M42 50.895l-2.893 1.661c-1.6.914-3.645.372-4.57-1.212l-6.543-11.23L25 37.725l2.145-3.03A7.784 7.784 0 0 0 28.49 32l3.692 2.945a6.517 6.517 0 0 1 1.605 1.854L42 50.895z"/>
        <circle cx="48" cy="47" r="5" transform="rotate(-85 48 47)"/>
    </g>
</svg>
