<svg xmlns="http://www.w3.org/2000/svg" width="56" height="50" viewBox="0 0 56 50">
    <g fill="#fff" fill-rule="nonzero" transform="translate(0 -1)">
        <circle cx="24.5" cy="5.5" r="4.5" transform="rotate(-10 24.5 5.5)"/>
        <path d="M33.288 40L37 44.467 32.472 51l-2.285-1.618a2.836 2.836 0 0 1-.683-3.921L33.288 40z"/>
        <path d="M40.42 37.834l6.128 7.488-2.286 1.96a2.938 2.938 0 0 1-2.18.706 2.963 2.963 0 0 1-2.028-1.08l-2.871-3.5-3.976-4.85-1.054-1.29-8.08-7.501a5.649 5.649 0 0 1-1.638-3.125l-4.503-12.187-8.203 2.146-9.337 4.89a4.358 4.358 0 0 1-.14-3.265 4.225 4.225 0 0 1 2.157-2.408l5.432-3.034c.214-.1.435-.183.661-.25l6.674-1.855c.238-.066 1.253-.29 1.253-.29l5.749-1.04c.765.5 1.655.766 2.563.764.284-.002.567-.026.848-.073a4.795 4.795 0 0 0 2.967-1.842l.733-.132c.237-.045.478-.067.72-.065.121-.003.244.002.365.013l6.848.612h9.61c1.105 0 2.166.449 2.948 1.25a4.322 4.322 0 0 1 1.22 3.02H37.28c-.116 0-.232-.007-.347-.013l-6.668-.592 4.484 12.127 5.376 11.81c.156.343.252.71.283 1.086l-3.43-4.191-6.63-6.152c-.158-.054-.199-.036-.23-.005a.165.165 0 0 0-.046.116c.039.112 6.655 6.245 6.655 6.245l3.693 4.507z"/>
        <path d="M41.029 39.009l-.029.01.019-.019z"/>
        <circle cx="51.5" cy="37.5" r="4.5" transform="rotate(-10 51.5 37.5)"/>
    </g>
</svg>
