<svg xmlns="http://www.w3.org/2000/svg" width="51" height="43" viewBox="0 0 51 43">
    <g fill="#fff" fill-rule="nonzero">
        <path d="M43.857 2.956c-3.939 0-7.143 3.222-7.143 7.183s3.204 7.184 7.143 7.184C47.796 17.323 51 14.1 51 10.14c0-3.96-3.204-7.183-7.143-7.183zm0 11.36c-2.29 0-4.154-1.873-4.154-4.177 0-2.303 1.864-4.177 4.154-4.177s4.153 1.874 4.153 4.177c0 2.304-1.863 4.177-4.153 4.177zM1.85 12.622a1.487 1.487 0 0 0 2.114 0l3.885-3.907 3.885 3.907a1.487 1.487 0 0 0 2.115 0 1.51 1.51 0 0 0 0-2.126L9.963 6.59l3.885-3.907a1.51 1.51 0 0 0 0-2.126 1.49 1.49 0 0 0-2.114 0L7.85 4.463 3.964.556a1.49 1.49 0 0 0-2.114 0 1.51 1.51 0 0 0 0 2.126l3.885 3.907-3.885 3.907a1.51 1.51 0 0 0 0 2.126zM33.617 30.378a1.49 1.49 0 0 0-2.114 0l-3.885 3.907-3.885-3.907a1.49 1.49 0 0 0-2.114 0 1.51 1.51 0 0 0 0 2.126l3.885 3.907-3.885 3.907a1.51 1.51 0 0 0 0 2.126 1.487 1.487 0 0 0 2.114 0l3.885-3.907 3.885 3.907a1.487 1.487 0 0 0 2.114 0 1.51 1.51 0 0 0 0-2.126l-3.885-3.907 3.885-3.907a1.51 1.51 0 0 0 0-2.126zM33.734 9.297l-6.029-5.27a1.49 1.49 0 0 0-2.108.148 1.51 1.51 0 0 0 .147 2.121l3.197 2.795c-9.436 1.241-15.023 6.2-18.13 10.392-2.72 3.671-3.992 7.288-4.502 9.085C2.762 28.985 0 32.024 0 35.7c0 3.96 3.204 7.183 7.143 7.183 3.939 0 7.143-3.222 7.143-7.183a7.191 7.191 0 0 0-4.941-6.833 26.228 26.228 0 0 1 3.936-7.685c3.888-5.193 9.289-8.252 16.083-9.121l-2.98 3.446a1.51 1.51 0 0 0 .148 2.121 1.488 1.488 0 0 0 2.109-.148l5.24-6.063a1.51 1.51 0 0 0-.147-2.121zM11.297 35.701c0 2.303-1.864 4.177-4.154 4.177S2.99 38.004 2.99 35.7c0-2.303 1.863-4.177 4.153-4.177 2.29 0 4.154 1.874 4.154 4.177z"/>
    </g>
</svg>
