<svg xmlns="http://www.w3.org/2000/svg" xmlns:xlink="http://www.w3.org/1999/xlink" width="53" height="38" viewBox="0 0 53 38">
    <defs>
        <path id="a" d="M186.492 630.112l.455 5.55c.067.814-.394 1.544-1.028 1.63-.635.085-1.203-.506-1.27-1.32l-.725-8.847c-.066-.814.394-1.543 1.029-1.629.07-.01.14-.01.209-.004.084-.424.313-.796.65-.988.582-.333 1.265.003 1.525.751l9.868 28.443c.26.748-.003 1.624-.586 1.957-.583.333-1.266-.003-1.525-.751l-8.602-24.792zm-22.166-6.677a.917.917 0 0 1 .207-.028c.638-.014 1.165.638 1.176 1.456l.12 8.894c.012.819-.496 1.494-1.134 1.509-.638.014-1.165-.638-1.176-1.457l-.076-5.58-6.183 25.952c-.186.783-.832 1.224-1.442.984-.61-.239-.954-1.068-.767-1.85l7.093-29.774c.187-.783.833-1.224 1.443-.985.351.138.614.472.739.88zm29.888 4.282l.68 5.511c.1.81-.33 1.569-.96 1.697-.63.128-1.222-.424-1.322-1.233l-1.084-8.786c-.1-.808.33-1.568.96-1.696a.91.91 0 0 1 .209-.018c.067-.429.28-.816.608-1.03.569-.372 1.264-.082 1.554.648l11.015 27.74c.29.73.063 1.623-.505 1.994-.569.372-1.264.082-1.554-.648l-9.6-24.18zm-22.608-2.672a.934.934 0 0 1 .205-.047c.636-.071 1.196.532 1.252 1.348l.604 8.861c.056.816-.414 1.535-1.05 1.606-.636.072-1.196-.532-1.252-1.347l-.379-5.56-4.757 26.442c-.143.798-.764 1.296-1.385 1.112-.622-.185-1.01-.98-.866-1.779l5.457-30.335c.144-.798.764-1.296 1.386-1.111.358.106.639.415.785.81zm6.861-.73a1.155 1.155 0 0 0-2.04.742v31.788a1.155 1.155 0 1 0 2.31 0v-27.328l1.748 5.38a1.155 1.155 0 1 0 2.198-.714l-2.951-9.082a1.156 1.156 0 0 0-1.265-.787z"/>
    </defs>
    <g fill="none" fill-rule="evenodd" transform="translate(-154 -621)">
        <use fill="#fff" xlink:href="#a"/>
        <path stroke="#fff" stroke-width=".3" d="M186.738 631.28l.358 4.37c.073.887-.435 1.693-1.157 1.79-.73.099-1.366-.563-1.44-1.456l-.724-8.846c-.073-.888.435-1.693 1.158-1.79.036-.006.073-.009.11-.01.113-.422.359-.773.694-.964.67-.384 1.453.002 1.741.832l9.868 28.442c.282.813-.003 1.766-.652 2.137-.672.384-1.454-.002-1.742-.832l-8.214-23.674zm-22.313-8.016c.035-.004.07-.006.105-.007.73-.017 1.316.71 1.329 1.604l.12 8.894c.013.894-.551 1.644-1.281 1.66-.73.017-1.316-.709-1.329-1.604l-.06-4.373-5.903 24.778c-.206.865-.94 1.365-1.643 1.09-.686-.27-1.06-1.176-.858-2.027l7.093-29.773c.206-.865.94-1.365 1.644-1.09.351.139.63.449.783.848zm30.081 5.595l.537 4.351c.109.88-.364 1.716-1.079 1.862-.726.147-1.391-.473-1.5-1.361l-1.085-8.786c-.109-.88.365-1.716 1.08-1.862.037-.007.075-.013.113-.017.094-.429.325-.796.651-1.01.654-.427 1.453-.094 1.776.718l11.014 27.74c.315.794.07 1.763-.562 2.176-.654.427-1.453.094-1.775-.718l-9.17-23.093zm-22.812-3.994c.033-.007.067-.012.1-.016.73-.082 1.358.593 1.419 1.487l.604 8.861c.06.89-.46 1.684-1.183 1.766-.73.082-1.357-.593-1.418-1.487l-.297-4.349-4.542 25.248c-.158.878-.86 1.44-1.576 1.228-.702-.208-1.127-1.08-.97-1.948l5.457-30.336c.158-.878.859-1.44 1.576-1.228.358.106.654.39.83.774zm6.834-.708a1.306 1.306 0 0 1 1.347.898l2.95 9.082a1.305 1.305 0 1 1-2.482.807l-1.456-4.48v26.38a1.305 1.305 0 0 1-2.61 0v-31.788a1.305 1.305 0 0 1 2.25-.9z"/>
    </g>
</svg>
