<svg xmlns="http://www.w3.org/2000/svg" width="57" height="51" viewBox="0 0 57 51">
    <g fill="#fff" fill-rule="nonzero">
        <path d="M54.465 17.576l-8.81-1.327-9.206-2.663-9.827-2.392-.014.007a2.976 2.976 0 0 0-2.692.403c-.56.404-.913.969-1.069 1.577l-.016.008-4.03 15.49-7.52 4.477c-.004.003-.009.008-.014.01l-8.765 1.41c-1.581.254-2.65 1.699-2.386 3.23.263 1.53 1.756 2.565 3.339 2.31l9.265-1.491c.463-.074.874-.26 1.229-.509.126-.053.254-.104.375-.176l8-4.765c.217-.13.4-.287.568-.456l1.875.24-2.951 7.1-.01.034-6.363 6.054a2.744 2.744 0 0 0-.034 3.972 2.974 2.974 0 0 0 4.107.032l6.698-6.373c.334-.32.56-.7.701-1.104.112-.16.21-.334.288-.521l3.506-8.431c.08-.192.133-.387.166-.582l2.168-7.604 5.107 2.8c1.396.766 3.166.292 3.955-1.059.793-1.348.304-3.06-1.09-3.827l-6.38-3.497.27-.95 9.123 2.638c.064.018.128.022.193.036.134.04.268.082.41.103l8.943 1.346c1.584.237 3.068-.811 3.313-2.343.247-1.535-.837-2.969-2.422-3.207zM48.301 6.597l-.46.263c-.076.042-.136.097-.205.144a20.46 20.46 0 0 0-1.6 1.04c.001.839.222 1.752.728 2.616l.018.039c.001.001.004.003.005.007l.006.01a5.46 5.46 0 0 0 2.025 1.955 20.574 20.574 0 0 0 2.198-1.075l.025-.015a20.558 20.558 0 0 0 2.038-1.336 5.237 5.237 0 0 0-.784-2.661l-.007-.012-.004-.007c-.009-.012-.019-.021-.026-.034a5.439 5.439 0 0 0-2.011-1.884c-.56.241-1.138.532-1.716.847-.076.036-.155.06-.23.103zm.329 1.029c.099-.058.21-.05.287.076l.24.397.247-.14c.113-.063.199-.017.254.072.051.086.05.183-.06.248l-.25.138.29.484.247-.143c.112-.063.2-.015.253.074.053.084.051.184-.06.245l-.249.14.29.481.248-.14c.11-.064.2-.016.255.072.051.09.051.185-.064.247l-.25.142.24.393c.076.126.027.23-.072.286-.1.055-.214.046-.29-.08l-.238-.395-.25.138c-.112.065-.198.017-.253-.07-.052-.087-.05-.184.06-.247l.251-.141-.293-.481-.244.14c-.113.063-.202.016-.255-.071-.053-.09-.049-.186.062-.25l.25-.135-.292-.484-.249.139c-.112.064-.198.019-.252-.07-.052-.089-.05-.186.061-.25l.25-.139-.24-.394c-.075-.126-.03-.226.076-.282zM51.438 13.346c.002.002.369-.032.547-.13.18-.101.39-.392.388-.394.367-.545.59-1.184.72-1.867l-3.703 2.07c.68.23 1.37.36 2.048.321zM47.663 4.968c-.002.001-.37.035-.549.133-.179.101-.389.39-.388.392-.366.546-.588 1.186-.72 1.868l3.704-2.069c-.68-.231-1.369-.359-2.047-.324zM30.615 10.716c.667 1.286 3.199 1.164 3.354.083.076-.516.03-.76-.01-1.127.46.177 1.174.38 2.215.47.076.097.155.19.24.28.778.814 1.849 1.218 3.187 1.204.065 0 .13-.002.196-.005a.165.165 0 0 0 .161-.163c0-.014-.004-1.503-.135-3.3a.159.159 0 0 0-.058-.114.177.177 0 0 0-.127-.038c-1.805.173-3.132.124-4.08-.005a8.871 8.871 0 0 1-.223-1.983 4.556 4.556 0 0 1 2.935-1.093c.033 0 0 .001.033.002C38.275 2.305 35.827.01 32.586.044c-3.231.034-5.824 2.504-5.783 6.118a5.237 5.237 0 0 0 1.39 3.481c.562.034 1.773-.18 2.422 1.073zm9.005.584h-.022c-1.238.014-2.225-.356-2.934-1.097a1.082 1.082 0 0 0-.025-.03c.274.015.568.021.882.018.61-.007 1.3-.05 2.067-.143.021.581.03 1.028.032 1.252zm-.12-2.953c.034.495.058.96.075 1.376-1.307.158-2.373.168-3.222.101a4.83 4.83 0 0 1-.704-1.479c.934.113 2.19.15 3.85.002zM35 6.344c.015.47.066 1.026.193 1.602a7.085 7.085 0 0 1-1.03-.248c.185-.504.47-.961.836-1.354zm-.937 1.669c.302.1.7.203 1.216.283.14.51.346 1.023.643 1.488-.972-.113-1.615-.323-1.99-.481a3.87 3.87 0 0 1 .131-1.29zm-1.889.953c.408-.005.743.302.748.684.005.381-.323.695-.732.7-.409.004-.742-.303-.747-.684-.005-.382.322-.696.731-.7z"/>
    </g>
</svg>
