<svg xmlns="http://www.w3.org/2000/svg" width="48" height="48" viewBox="0 0 48 48">
    <g fill="#fff" fill-rule="evenodd">
        <g fill-rule="nonzero">
            <path d="M37.818 8.694c.18-3.094-.184-5.78-.526-7.254a1.516 1.516 0 0 0-1.25-1.15C34.617.06 32.05-.097 29.09.189c-.22.022-.319.285-.162.439l8.44 8.237c.163.154.441.049.45-.17zM10.308 17.937c-.441 3.858-.077 7.338.337 9.067a1.573 1.573 0 0 0 1.34 1.185c1.632.202 4.757.127 8.26-.588a.313.313 0 0 0 .162-.53l-9.55-9.323a.324.324 0 0 0-.55.189zM27.665.518a.419.419 0 0 0-.35-.114c-4.165.636-8.783 2.212-12.039 5.648-2.675 2.822-4.06 6.504-4.699 10.05a.394.394 0 0 0 .113.352l10.9 10.638c.103.1.252.14.395.105 3.872-1.005 7.969-2.826 10.9-5.92 2.995-3.156 4.304-7.14 4.767-10.792a.388.388 0 0 0-.117-.33L27.665.519zm2.217 9.55a.414.414 0 0 1-.58 0l-.293-.285a.414.414 0 0 0-.58 0l-.368.36a.39.39 0 0 0 0 .566l.292.285a.39.39 0 0 1 0 .566.414.414 0 0 1-.58 0l-.293-.285a.414.414 0 0 0-.58 0l-.368.36a.39.39 0 0 0 0 .566l.292.285a.39.39 0 0 1 0 .566.414.414 0 0 1-.58 0l-.292-.285a.414.414 0 0 0-.58 0l-.37.36a.39.39 0 0 0 0 .566l.293.285a.39.39 0 0 1 0 .566.414.414 0 0 1-.58 0l-.292-.285a.414.414 0 0 0-.58 0l-.37.36a.39.39 0 0 0 0 .566l.293.285a.39.39 0 0 1 0 .567.414.414 0 0 1-.58 0l-.292-.286a.414.414 0 0 0-.58 0l-.369.36a.39.39 0 0 0 0 .566l.292.286a.39.39 0 0 1 0 .566.414.414 0 0 1-.58 0l-.292-.285a.414.414 0 0 0-.58 0l-.369.36a.39.39 0 0 0 0 .566l.292.285a.39.39 0 0 1 0 .566.414.414 0 0 1-.58 0l-.292-.285a.414.414 0 0 0-.58 0l-.823.803a.414.414 0 0 1-.58 0 .39.39 0 0 1 0-.566l.823-.803a.39.39 0 0 0 0-.567l-.45-.438a.39.39 0 0 1 0-.567.414.414 0 0 1 .58 0l.45.44a.414.414 0 0 0 .58 0l.369-.36a.39.39 0 0 0 0-.567l-.45-.439a.39.39 0 0 1 0-.566.414.414 0 0 1 .58 0l.45.44a.414.414 0 0 0 .58 0l.369-.36a.39.39 0 0 0 0-.567l-.45-.439a.39.39 0 0 1 0-.566.414.414 0 0 1 .58 0l.45.439a.414.414 0 0 0 .58 0l.369-.36a.39.39 0 0 0 0-.566l-.45-.439a.39.39 0 0 1 0-.566.414.414 0 0 1 .58 0l.45.439a.414.414 0 0 0 .58 0l.368-.36a.39.39 0 0 0 0-.566l-.45-.44a.39.39 0 0 1 0-.565.414.414 0 0 1 .58 0l.45.439a.414.414 0 0 0 .58 0l.37-.36a.39.39 0 0 0 0-.567l-.45-.438a.39.39 0 0 1 0-.567.414.414 0 0 1 .58 0l.45.44a.414.414 0 0 0 .58 0l.368-.36a.39.39 0 0 0 0-.567l-.45-.439a.39.39 0 0 1 0-.566.414.414 0 0 1 .58 0l.45.44a.414.414 0 0 0 .58 0l.814-.795a.414.414 0 0 1 .58 0 .39.39 0 0 1 0 .566l-.814.794a.39.39 0 0 0 0 .566l.293.286a.39.39 0 0 1 0 .566z"/>
        </g>
        <path d="M5.77 33.757V11.574c0-.954-.774-1.728-1.729-1.728H1.728C.774 9.846 0 10.62 0 11.574v26.097c0 .954.774 1.728 1.728 1.728h2.195c.201.082.422.128.653.128h16.886v6.745c0 .954.773 1.728 1.728 1.728h2.313c.954 0 1.728-.774 1.728-1.728v-6.745h17.116c.23 0 .452-.046.653-.128h1.272c.954 0 1.728-.774 1.728-1.728V11.574c0-.954-.774-1.728-1.728-1.728h-2.313c-.955 0-1.728.774-1.728 1.728v22.183H5.769z"/>
    </g>
</svg>
