<svg xmlns="http://www.w3.org/2000/svg" width="64" height="36" viewBox="0 0 64 36">
    <g fill="#fff" fill-rule="nonzero">
        <path d="M39.606 13.616c.17-.198.285-.448.3-.77 0-.037.003-.091.007-.16l-.902.181c.185.26.384.51.595.75zM38.962 7.938l.049-.02c-.79-.699-1.064-.846-1.674-.786-.379.037-.72.022-1.027-.03a8.223 8.223 0 0 0 .12 1.758c.006.035.017.068.023.103.775-.315 1.759-.715 2.511-1.019l-.002-.006z"/>
        <path d="M34.536 9.711c.05.327.158.634.367.876.653.757 1.814.447 2.743.716.827.238 1.498 1.014 1.657 1.917l-3.615 1.549c-.299.128-.639.307-.698.646-.029.166.02.335.068.496l1.185 3.989c.047.16.099.328.212.444.164.17.415.19.641.174.885-.061 1.736-.551 2.271-1.309a3.559 3.559 0 0 0 .563-2.696c.362 1.051 1.386 1.728 2.425 1.854 1.325.163 3.264-.424 4.152-1.565.515-.66.7-1.695 1.452-1.999.763-.309 1.696.353 2.405-.082.35-.214.532-.639.67-1.044.984-2.885.778-6.237-.663-8.89-1.44-2.654-4.123-4.523-6.982-4.72-4.706-.325-8.514 3.838-8.874 8.723-.02.302-.025.62.02.921zm4.599 7.655c.027.54-.118.953-.348 1.274-.465.65-1.283.91-1.756 1.009l-.01-.038-.707-2.393-.005-.02-.022-.07 2.786-.933c.03.54.055 1.022.062 1.17zm-.104-1.966l-2.228.756-.735.25-.226-.742.615-.27c.754-.329 1.773-.774 2.514-1.095l.06 1.1zm6.761-3.325c.017.086.027.175.027.263.003.57-.367 1.12-.872 1.3-.505.177-1.107-.03-1.422-.49-.708-1.035.272-2.491 1.412-2.1.428.146.761.559.855 1.027z"/>
        <path d="M34.657 17.916l.745-3.392-2.288 1.13-1.543-2.968-.922 3.143-2.69-1.846.895 3.224-2.578.115 1.506 1.445-2.304 1.948 2.953.509.054 2.63 2.128-1.358-1.437.113-.106-1.895-1.995-.339 1.737-1.325-.939-1.219 1.73.011-.524-2.238L31.01 16.9l.663-2.214.924 2.164 1.847-.687z"/>
        <path d="M50.246 27.553a.454.454 0 0 1-.223-.07c-.103-.078-.127-.223-.145-.352-.34-2.5-1.483-4.88-3.211-6.689 1.31-2.305 4.416-3.163 6.658-1.72 1.793 1.154 2.635 3.635 1.925 5.67-.705 2.021-2.87 3.4-4.963 3.166l-.041-.005zm-19.388-4.915a2.635 2.635 0 0 1-.864-1.815 2.65 2.65 0 0 1 .643-1.909 2.571 2.571 0 0 1 1.942-.885c.634 0 1.243.235 1.715.66l6.61 5.965 5.28-2.848c.372.38.87.978 1.321 1.801.018.032.036.059.053.092.4.75.69 1.559.866 2.413.058.285.105.575.138.87l-6.676 3.21c-.34.192-.719.314-1.116.34-.054.003-.106.017-.16.017a2.555 2.555 0 0 1-1.716-.66l-8.036-7.25zm18.875-7.06c-3.089.527-5.794 3.095-6.21 6.385a10.308 10.308 0 0 0 1.884-1.068c-.176-.188-.087-.497.027-.73.974-1.991 3.095-3.346 5.28-3.365 2.185-.018 4.331 1.305 5.322 3.287.992 1.983.775 4.534-.54 6.31-1.315 1.777-3.668 2.69-5.81 2.247-.252-.052-.507-.125-.716-.279-.086-.063-.169-.143-.274-.154a.468.468 0 0 0-.238.06l-3.21 1.462c.611 1.815 2.153 6.19 2.153 6.19s15.98 0 15.969.028c-.674-5.075-2.147-10.614-4.776-14.978-1.367-2.269-3.222-4.42-5.722-5.197a6.72 6.72 0 0 0-3.139-.199z"/>
        <g>
            <path d="M24.394 13.616a1.233 1.233 0 0 1-.3-.77 11.109 11.109 0 0 0-.007-.16l.902.181c-.185.26-.384.51-.595.75zM25.038 7.938l-.049-.02c.79-.699 1.064-.846 1.674-.786.379.037.72.022 1.027-.03a8.223 8.223 0 0 1-.12 1.758c-.006.035-.017.068-.023.103-.775-.315-1.759-.715-2.511-1.019l.002-.006z"/>
            <path d="M29.464 9.711c-.05.327-.158.634-.367.876-.653.757-1.814.447-2.743.716-.827.238-1.498 1.014-1.657 1.917l3.615 1.549c.299.128.639.307.698.646.029.166-.02.335-.068.496L27.757 19.9c-.047.16-.099.328-.212.444-.164.17-.415.19-.641.174-.885-.061-1.736-.551-2.271-1.309a3.559 3.559 0 0 1-.563-2.696c-.362 1.051-1.386 1.728-2.425 1.854-1.325.163-3.264-.424-4.152-1.565-.515-.66-.7-1.695-1.452-1.999-.763-.309-1.696.353-2.405-.082-.35-.214-.532-.639-.67-1.044-.984-2.885-.778-6.237.663-8.89 1.44-2.654 4.123-4.523 6.982-4.72 4.706-.325 8.514 3.838 8.874 8.723.02.302.025.62-.02.921zm-4.599 7.655c-.027.54.118.953.348 1.274.465.65 1.283.91 1.756 1.009l.01-.038.707-2.393.005-.02.022-.07-2.786-.933c-.03.54-.055 1.022-.062 1.17zm.104-1.966l2.228.756.735.25.226-.742-.615-.27c-.754-.329-1.773-.774-2.514-1.095l-.06 1.1zm-6.761-3.325a1.386 1.386 0 0 0-.027.263c-.003.57.367 1.12.872 1.3.505.177 1.107-.03 1.422-.49.708-1.035-.272-2.491-1.412-2.1-.428.146-.761.559-.855 1.027z"/>
            <path d="M29.343 17.916l-.745-3.392 2.288 1.13 1.543-2.968.922 3.143 2.69-1.846-.895 3.224 2.578.115-1.506 1.445 2.304 1.948-2.953.509-.054 2.63-2.128-1.358 1.437.113.106-1.895 1.995-.339-1.737-1.325.939-1.219-1.73.011.524-2.238L32.99 16.9l-.663-2.214-.924 2.164-1.847-.687z"/>
            <path d="M13.754 27.553a.454.454 0 0 0 .223-.07c.103-.078.127-.223.145-.352.34-2.5 1.483-4.88 3.211-6.689-1.31-2.305-4.416-3.163-6.658-1.72-1.793 1.154-2.635 3.635-1.925 5.67.705 2.021 2.87 3.4 4.963 3.166l.041-.005zm19.388-4.915a2.635 2.635 0 0 0 .864-1.815 2.65 2.65 0 0 0-.643-1.909 2.571 2.571 0 0 0-1.942-.885c-.634 0-1.243.235-1.715.66l-6.61 5.965-5.28-2.848c-.372.38-.87.978-1.321 1.801-.018.032-.036.059-.053.092-.4.75-.69 1.559-.866 2.413a9.95 9.95 0 0 0-.138.87l6.676 3.21c.34.192.719.314 1.116.34.054.003.106.017.16.017.635 0 1.244-.234 1.716-.66l8.036-7.25zm-18.875-7.06c3.089.527 5.794 3.095 6.21 6.385a10.308 10.308 0 0 1-1.884-1.068c.176-.188.087-.497-.027-.73-.974-1.991-3.095-3.346-5.28-3.365-2.185-.018-4.331 1.305-5.322 3.287-.992 1.983-.775 4.534.54 6.31 1.315 1.777 3.668 2.69 5.81 2.247.252-.052.507-.125.716-.279.086-.063.169-.143.274-.154a.468.468 0 0 1 .238.06l3.21 1.462c-.611 1.815-2.153 6.19-2.153 6.19s-15.98 0-15.969.028c.674-5.075 2.147-10.614 4.776-14.978 1.367-2.269 3.222-4.42 5.722-5.197a6.72 6.72 0 0 1 3.139-.199z"/>
        </g>
    </g>
</svg>
