<svg xmlns="http://www.w3.org/2000/svg" width="39" height="57" viewBox="0 0 39 57">
    <path fill="#fff" fill-rule="nonzero" d="M5.921 8.71c-1.383-.041-2.824-.77-4.166-2.103l-.049-.047-.233-.243-.102-.11A11.732 11.732 0 0 1 .18 4.668l-.082-.134a.65.65 0 0 1 .022-.716l.086-.121c.054-.075.53-.735 1.282-1.469.117-.11.236-.224.362-.336l.049-.044C3.316.601 4.796-.04 6.18.002c1.383.041 2.823.77 4.166 2.101l.269.278c.067.073.133.144.194.214.715.798 1.117 1.457 1.12 1.463l.073.118a.65.65 0 0 1-.02.717l-.085.121s-.447.64-1.2 1.386c-.11.108-.227.218-.35.333l-.143.129c-1.419 1.25-2.899 1.89-4.284 1.848zm16.175 4.773c2.947 0 5.334-2.395 5.334-5.35 0-2.957-2.387-5.352-5.334-5.352-2.946 0-5.332 2.395-5.332 5.352 0 2.955 2.386 5.35 5.332 5.35zM38.85 53.667L33.023 37.57a2.487 2.487 0 0 0-1.245-1.387l-6.838-3.34c-.831-1.784-2.564-6.539-.64-12.053l3.474 2.854-1.324 5.38a2.033 2.033 0 0 0 1.969 2.519 2.03 2.03 0 0 0 1.967-1.546l1.629-6.628a2.04 2.04 0 0 0-.685-2.062l-6.027-4.947c-.019-.015-.04-.024-.058-.038l-.001-.045s-4.887-2.95-9.71-2.011c-.025.002-.051.011-.076.016a10.26 10.26 0 0 0-.347.074v.02c-.118.045-.235.098-.348.168l-5.897 3.633-.808-6.106a2.03 2.03 0 0 0-2.275-1.748 2.033 2.033 0 0 0-1.743 2.283l1.22 9.21a2.034 2.034 0 0 0 2.008 1.766c.369 0 .736-.1 1.06-.3l5.165-3.183c-1.046 3.023-1.76 8.088.778 15.004.013.07.03.14.05.212l2.172 7.383-8.61 3.984A2.49 2.49 0 0 0 6.67 49.98a2.477 2.477 0 0 0 3.286 1.217l10.554-4.884a2.488 2.488 0 0 0 1.339-2.96l-2.057-6.992.509-.254 8.404 4.105 5.487 15.151a2.474 2.474 0 0 0 3.175 1.489 2.487 2.487 0 0 0 1.483-3.185z"/>
</svg>
