<svg xmlns="http://www.w3.org/2000/svg" xmlns:xlink="http://www.w3.org/1999/xlink" width="50" height="41" viewBox="0 0 50 41">
    <defs>
        <path id="a" d="M171.363 767.387a1.251 1.251 0 0 0 2.224-.788v-25.06a1.251 1.251 0 1 0-2.503 0v19.86l-2.004-6.17a1.251 1.251 0 1 0-2.38.773l3.418 10.52c.178.548.697.89 1.245.865zm-9.748 3.43a1.251 1.251 0 0 0 2.224-.788V744.97a1.251 1.251 0 1 0-2.503 0v19.86l-2.005-6.17a1.251 1.251 0 0 0-2.38.773l3.418 10.52c.178.548.697.89 1.246.865zm39.05-9.419v-19.86a1.251 1.251 0 0 0-2.504 0v25.06c0 .692.56 1.252 1.252 1.252.392 0 .743-.18.972-.463a1.252 1.252 0 0 0 1.246-.864l3.418-10.521a1.251 1.251 0 0 0-2.38-.774l-2.005 6.17zm-9.75 3.431V744.97a1.251 1.251 0 1 0-2.502 0v25.06c0 .691.56 1.251 1.251 1.251.393 0 .743-.18.973-.463a1.252 1.252 0 0 0 1.245-.864l3.419-10.521a1.251 1.251 0 1 0-2.38-.773l-2.005 6.17zm-9.748 5.719V739.25a1.251 1.251 0 1 0-2.503 0v36.498a1.251 1.251 0 0 0 2.224.787 1.252 1.252 0 0 0 1.245-.863l3.419-10.521a1.251 1.251 0 0 0-2.38-.773l-2.005 6.169z"/>
    </defs>
    <g fill="none" fill-rule="evenodd" transform="translate(-156 -737)">
        <use fill="#fff" xlink:href="#a"/>
        <path stroke="#fff" stroke-width=".5" d="M171.251 767.637a1.502 1.502 0 0 1-1.37-1.037l-3.42-10.52a1.501 1.501 0 0 1 2.857-.929l1.516 4.669v-18.281a1.501 1.501 0 1 1 3.003 0v25.06a1.501 1.501 0 0 1-2.586 1.038zm-9.749 3.43a1.502 1.502 0 0 1-1.37-1.036l-3.42-10.52a1.501 1.501 0 0 1 2.857-.929l1.517 4.669v-18.28a1.501 1.501 0 0 1 3.003 0v25.059a1.501 1.501 0 0 1-2.587 1.038zm39.412-11.247l1.517-4.669a1.501 1.501 0 1 1 2.856.928L201.87 766.6a1.502 1.502 0 0 1-1.371 1.037 1.501 1.501 0 0 1-2.586-1.038v-25.06a1.501 1.501 0 1 1 3.002 0v18.28zm-9.748 3.43l1.516-4.668a1.501 1.501 0 0 1 2.856.928l-3.418 10.521a1.502 1.502 0 0 1-1.371 1.037 1.501 1.501 0 0 1-2.586-1.038v-25.06a1.501 1.501 0 1 1 3.003 0v18.28zm-9.75 5.72l1.518-4.669a1.501 1.501 0 0 1 2.856.928l-3.419 10.52a1.502 1.502 0 0 1-1.37 1.038 1.501 1.501 0 0 1-2.586-1.038l-.001-36.498a1.501 1.501 0 1 1 3.003 0v29.718z"/>
    </g>
</svg>
