<svg xmlns="http://www.w3.org/2000/svg" width="57" height="24" viewBox="0 0 57 24">
    <g fill="#fff" fill-rule="nonzero">
        <g>
            <path d="M23.445 20s.143-.155.226-.19c.083-.037-.783-.902-.783-.902s-.504-.232-.562-.241c-.058-.01 1.119 1.333 1.119 1.333z"/>
            <path d="M25.701 12.188c-.09-1.827-.943-3.876-.943-3.876S21.931 8 20.943 8s-.584.802-.494 1.024c.18.09.718 1.827.808 2.362-6.42-1.916-6.644-2.05-7.004-1.426-.358.624 1.437 5.035 1.437 5.035l6.375 3.074s.314 1.024.583 1.203c.27.178.987 1.738 1.122 1.96.136.223.315.045.585-.223.268-.756 1.436-6.994 1.346-8.821zm-4.579-2.495c-.134-.356-.853-1.47-.18-1.47.584.09 3.098.49 3.503.356l.763 2.94-3.502-.088s-.45-1.381-.584-1.738zm-6.51.668s-.448-.668 1.483-.133c1.93.534 5.341 1.738 5.341 1.738s.225 1.603.225 2.138v.535s-4.624-1.917-6.644-2.673c-.09-.58-.404-1.605-.404-1.605zm1.168 4.233l-.584-2.05s.404.045.764.134c.359.09 5.432 2.362 5.656 2.45-.044.491.225 2.05.225 2.496-.18-.133-6.06-3.03-6.06-3.03zm8.215 6.283c-.09-.268-1.526-2.674-1.526-2.674l2.11.445s-.359 1.649-.584 2.229zm.628-2.63s-1.705-.31-2.289-.49c-.224-.445-.269-2.54-.269-2.54s2.693.179 2.963.179c0 .356-.405 2.851-.405 2.851zm.54-3.162s-2.65-.312-3.098-.446c.044-.58-.314-2.718-.314-2.718s3.276.134 3.457.134c.178 0-.045 3.03-.045 3.03z"/>
            <path d="M25.52 7.778s-1.546-.96-3.512-2.878c-.89-1.178-2.575-2.878-3.231-3.227-.655-.349-3.84-2.006-7.584-1.613-3.746.392-7.21 2.137-7.21 2.137s-1.592.784-2.2.828c-.61.044-.937.131-.937.131s-.188.13.374.872c.047.262-.843 1.788-.983 2.834.14.393.374.48.374.48l-.28.916L.19 9.785l-.187.13s-.047.61.234.872c.14.392.609 1.875.328 2.224.562.305.937.523.937.523l.093.305s-.656 1.178.796 1.657l.046.35s2.388.348 3.559.566c1.17.218 7.397 2.05 7.678 2.225.28.174 8.052 4.622 8.895 5.363a1.45 1.45 0 0 0 .61-.261s-.422-.131.654-2.355c-.14-.654-.375-1.701-2.06-2.485-1.686-.785-2.528-.96-2.528-.96s-3.37-3.489-3.838-3.707c-.47-.219-1.124-3.794-.937-4.23.187-.436.467-2.53 5.9-1.875 5.43.654 5.196.349 5.336.087l-.187-.436zm-4.121 11.73c1.076.872.936.916.936.916v.654s.234.611-.936-.654l-1.17-1.265s-.281-.654 1.17.35zm-3.792-1.7c.749.697 2.622 3.27 2.95 3.968-2.108-1.003-3.513-2.398-4.261-3.663-.61-2.05 1.311-.305 1.311-.305zm2.762-13.65c-3.652-.392-5.619-2.703-5.619-2.703 2.576.654 4.26 1.613 5.62 2.704zM9.88 1.718c.092-.35.095-.393.095-.393 2.435-.087 2.857.218 3.044.349 1.451 1.308.702 1.09.702 1.09s-3.606-.174-3.84-.218c-.143-.027-.093-.48 0-.828zm11.375 3.451c-3.682-.836-8.402-2.175-17.684-1.757 0 0 9.845-1.468 17.684 1.757zm-5.832 2.388c-.069.294-.38.481-.695.418-.316-.064-.517-.354-.45-.649.069-.294.38-.481.696-.418.316.064.517.354.449.649zM3.608 3.025s3.746-1.308 4.448-1.396c0 0-.234 1.09-2.622 1.265-2.388.174-1.826.13-1.826.13zm-2.341 7.587c3.505 1.01 6.742 3.358 6.742 3.358l-6.742-3.358zm.796 3.01c2.221.45 4.682 2.005 4.682 2.005l-4.682-2.006zm5.735 2.572c-.323 0-.585-.244-.585-.544 0-.302.262-.546.585-.546.323 0 .585.244.585.546 0 .3-.262.544-.585.544zm.773-6.192c3.277.96 3.183 1.265 3.558 1.744.655 1.222-.047.742-.047.742s-.234-.044-1.358-.48c-3.183-.916-2.153-2.006-2.153-2.006zm3.699 5.407c-3.512-1.57-3.325-2.268-3.325-2.268 2.06.524 3.933 1.745 4.26 2.138.235.61-.373.392-.935.13zm-1.967-7.936c3.354.86 4.494.828 5.15.872-2.06.523-5.15-.872-5.15-.872zm9.223-1.003c-1.498-.044-3.558-.044-3.558-.044s3.25-.458 5.45-.022c-.375-.262-.346-.501-.346-.501s1.216.654 1.872.916c.655.261-1.217-.219-3.418-.349z"/>
            <ellipse cx="14.544" cy="7.667" rx="1" ry="1"/>
            <ellipse cx="8.456" cy="16.333" rx="1" ry="1"/>
        </g>
        <g transform="matrix(-1 0 0 1 57 0)">
            <path d="M23.445 20s.143-.155.226-.19c.083-.037-.783-.902-.783-.902s-.504-.232-.562-.241c-.058-.01 1.119 1.333 1.119 1.333z"/>
            <path d="M25.701 12.188c-.09-1.827-.943-3.876-.943-3.876S21.931 8 20.943 8s-.584.802-.494 1.024c.18.09.718 1.827.808 2.362-6.42-1.916-6.644-2.05-7.004-1.426-.358.624 1.437 5.035 1.437 5.035l6.375 3.074s.314 1.024.583 1.203c.27.178.987 1.738 1.122 1.96.136.223.315.045.585-.223.268-.756 1.436-6.994 1.346-8.821zm-4.579-2.495c-.134-.356-.853-1.47-.18-1.47.584.09 3.098.49 3.503.356l.763 2.94-3.502-.088s-.45-1.381-.584-1.738zm-6.51.668s-.448-.668 1.483-.133c1.93.534 5.341 1.738 5.341 1.738s.225 1.603.225 2.138v.535s-4.624-1.917-6.644-2.673c-.09-.58-.404-1.605-.404-1.605zm1.168 4.233l-.584-2.05s.404.045.764.134c.359.09 5.432 2.362 5.656 2.45-.044.491.225 2.05.225 2.496-.18-.133-6.06-3.03-6.06-3.03zm8.215 6.283c-.09-.268-1.526-2.674-1.526-2.674l2.11.445s-.359 1.649-.584 2.229zm.628-2.63s-1.705-.31-2.289-.49c-.224-.445-.269-2.54-.269-2.54s2.693.179 2.963.179c0 .356-.405 2.851-.405 2.851zm.54-3.162s-2.65-.312-3.098-.446c.044-.58-.314-2.718-.314-2.718s3.276.134 3.457.134c.178 0-.045 3.03-.045 3.03z"/>
            <path d="M25.52 7.778s-1.546-.96-3.512-2.878c-.89-1.178-2.575-2.878-3.231-3.227-.655-.349-3.84-2.006-7.584-1.613-3.746.392-7.21 2.137-7.21 2.137s-1.592.784-2.2.828c-.61.044-.937.131-.937.131s-.188.13.374.872c.047.262-.843 1.788-.983 2.834.14.393.374.48.374.48l-.28.916L.19 9.785l-.187.13s-.047.61.234.872c.14.392.609 1.875.328 2.224.562.305.937.523.937.523l.093.305s-.656 1.178.796 1.657l.046.35s2.388.348 3.559.566c1.17.218 7.397 2.05 7.678 2.225.28.174 8.052 4.622 8.895 5.363a1.45 1.45 0 0 0 .61-.261s-.422-.131.654-2.355c-.14-.654-.375-1.701-2.06-2.485-1.686-.785-2.528-.96-2.528-.96s-3.37-3.489-3.838-3.707c-.47-.219-1.124-3.794-.937-4.23.187-.436.467-2.53 5.9-1.875 5.43.654 5.196.349 5.336.087l-.187-.436zm-4.121 11.73c1.076.872.936.916.936.916v.654s.234.611-.936-.654l-1.17-1.265s-.281-.654 1.17.35zm-3.792-1.7c.749.697 2.622 3.27 2.95 3.968-2.108-1.003-3.513-2.398-4.261-3.663-.61-2.05 1.311-.305 1.311-.305zm2.762-13.65c-3.652-.392-5.619-2.703-5.619-2.703 2.576.654 4.26 1.613 5.62 2.704zM9.88 1.718c.092-.35.095-.393.095-.393 2.435-.087 2.857.218 3.044.349 1.451 1.308.702 1.09.702 1.09s-3.606-.174-3.84-.218c-.143-.027-.093-.48 0-.828zm11.375 3.451c-3.682-.836-8.402-2.175-17.684-1.757 0 0 9.845-1.468 17.684 1.757zm-5.832 2.388c-.069.294-.38.481-.695.418-.316-.064-.517-.354-.45-.649.069-.294.38-.481.696-.418.316.064.517.354.449.649zM3.608 3.025s3.746-1.308 4.448-1.396c0 0-.234 1.09-2.622 1.265-2.388.174-1.826.13-1.826.13zm-2.341 7.587c3.505 1.01 6.742 3.358 6.742 3.358l-6.742-3.358zm.796 3.01c2.221.45 4.682 2.005 4.682 2.005l-4.682-2.006zm5.735 2.572c-.323 0-.585-.244-.585-.544 0-.302.262-.546.585-.546.323 0 .585.244.585.546 0 .3-.262.544-.585.544zm.773-6.192c3.277.96 3.183 1.265 3.558 1.744.655 1.222-.047.742-.047.742s-.234-.044-1.358-.48c-3.183-.916-2.153-2.006-2.153-2.006zm3.699 5.407c-3.512-1.57-3.325-2.268-3.325-2.268 2.06.524 3.933 1.745 4.26 2.138.235.61-.373.392-.935.13zm-1.967-7.936c3.354.86 4.494.828 5.15.872-2.06.523-5.15-.872-5.15-.872zm9.223-1.003c-1.498-.044-3.558-.044-3.558-.044s3.25-.458 5.45-.022c-.375-.262-.346-.501-.346-.501s1.216.654 1.872.916c.655.261-1.217-.219-3.418-.349z"/>
            <ellipse cx="14.544" cy="7.667" rx="1" ry="1"/>
            <ellipse cx="8.456" cy="16.333" rx="1" ry="1"/>
        </g>
    </g>
</svg>
