<svg xmlns="http://www.w3.org/2000/svg" width="41" height="41" viewBox="0 0 41 41">
    <g fill="#fff" fill-rule="nonzero">
        <path d="M38.583 2.695c-4.779-4.682-7.464-2.898-8.647 2.54-.364 1.784-4.096 4.86-4.551 5.886-.547 1.248-1.366 3.3-1.366 3.3L.444 37.47a1.459 1.459 0 0 0 0 2.095c.591.58 1.547.58 2.139 0l23.666-23.139s2.094-.668 3.414-1.293c.91-.445 4.324-3.745 5.689-4.057 5.052-1.248 8.01-3.7 3.231-8.381zm-6.19 9.14c-.045-.045-.09-.09-.181-.09-.365-.045-.683-.223-.956-.401.41-.357.773-.669 1.183-.981.273.312.546.58.91.758-.364.178-.682.446-.955.713zm.774-10.077c.137.535.546 1.115.91 1.605a62.596 62.596 0 0 1-1.092 1.784c-.41-.58-.773-1.115-1.183-1.605l-.046-.045c.365-.802.82-1.427 1.411-1.739zm-.682 7.624c-.182-.267-.364-.49-.547-.713-.136-.134-.227-.312-.364-.49.501-.625.956-1.249 1.411-1.873.41.58.865 1.114 1.366 1.605-.638.49-1.275.98-1.866 1.471zm2.366-1.828c-.546-.535-1.047-1.159-1.502-1.783.41-.58.774-1.16 1.138-1.784.046.045.046.09.091.134.5.803 1.229 1.56 2.003 2.23a56.92 56.92 0 0 1-1.73 1.203zm-2.275-1.828c-.455.624-.91 1.293-1.411 1.873-.228-.357-.455-.714-.592-1.115.228-.312.364-.624.455-.892.137-.535.273-.98.41-1.426.364.535.774 1.07 1.138 1.56zm-2.458 1.427c.182.357.364.713.592 1.025-.364.446-.729.892-1.138 1.338-.273-.312-.546-.669-.637-1.026.455-.445.819-.891 1.183-1.337zm1.047 1.56c.182.223.364.446.5.625.091.133.228.267.319.445l-1.229 1.07c-.273-.267-.5-.58-.683-.847.365-.401.729-.847 1.093-1.293zm3.868 1.249c-.273.089-.682.312-1.138.624a2.191 2.191 0 0 1-1-.713c.636-.49 1.274-1.026 1.91-1.516.501.446 1.002.802 1.64 1.114-.456.223-.911.357-1.412.49zm2.185-.803c-.046-.044-.046-.044-.091-.044A5.65 5.65 0 0 1 35.352 8a25.995 25.995 0 0 1 1.82-1.248 6.817 6.817 0 0 0 1.866.98c-.364.58-1 1.07-1.82 1.427zm2.093-1.962l-.045-.044a4.976 4.976 0 0 1-1.456-.758c.455-.312.955-.58 1.456-.892.182.624.228 1.16.045 1.694zm-.364-2.273c-.591.312-1.137.668-1.73 1.025-.545-.49-1.046-1.025-1.547-1.516-.136-.178-.5-.58-.864-1.025.273-.49.546-1.026.819-1.56.637.312 1.32.802 2.048 1.515.592.535 1.001 1.07 1.274 1.56zM35.033 1.58c-.182.401-.41.802-.591 1.204-.319-.446-.547-.937-.592-1.249.364-.089.728-.089 1.183.045zm-7.51 8.605c.137-.268.501-.67.956-1.16.183.357.41.67.683.981-.591.624-1.138 1.249-1.775 1.828-.09-.49-.09-1.114.137-1.65zm.137 2.363a42.06 42.06 0 0 0 1.957-2.051c.046.044.091.089.091.133.182.223.364.446.546.625-.682.58-1.32 1.203-2.002 1.828a1.59 1.59 0 0 1-.41-.268c-.045-.045-.136-.134-.182-.267zm1.32.802c.592-.535 1.138-1.07 1.73-1.605.318.268.682.446 1.092.58-.5.4-.91.713-1.138.847-.5.223-1.138.267-1.684.178z"/>
        <path d="M2.692 2.414C-1.985 7.188-.203 9.87 5.23 11.052c1.781.364 4.854 4.091 5.878 4.546a142.88 142.88 0 0 0 3.296 1.364l23.069 23.595a1.457 1.457 0 0 0 2.093 0 1.531 1.531 0 0 0 0-2.137L16.408 14.734s-.668-2.091-1.291-3.41c-.446-.909-3.741-4.318-4.053-5.682C9.817.596 7.368-2.36 2.692 2.414zm9.129 6.183c-.045.045-.089.09-.089.182-.045.363-.223.682-.4.954-.357-.409-.669-.772-.98-1.182.311-.272.578-.545.756-.909.179.364.446.682.713.955zM1.756 7.824c.535-.136 1.114-.546 1.604-.91.623.364 1.202.728 1.78 1.092-.578.409-1.112.773-1.602 1.182l-.045.045c-.801-.363-1.425-.818-1.737-1.409zm7.616.682c-.268.182-.49.364-.713.546-.134.136-.312.227-.49.363-.623-.5-1.247-.955-1.87-1.41.579-.408 1.113-.863 1.603-1.363.49.636.98 1.273 1.47 1.864zM7.546 6.142c-.535.545-1.158 1.046-1.782 1.5a23.909 23.909 0 0 0-1.781-1.136c.045-.046.09-.046.134-.091.801-.5 1.558-1.228 2.226-2 .401.545.802 1.136 1.203 1.727zM5.72 8.415c.623.455 1.291.91 1.87 1.41-.356.227-.712.454-1.113.59a3.293 3.293 0 0 0-.89-.454 29.76 29.76 0 0 1-1.426-.41c.535-.363 1.069-.772 1.559-1.136zm1.425 2.455c.356-.182.712-.364 1.024-.591.446.364.89.727 1.336 1.137-.311.272-.668.545-1.024.636-.445-.455-.89-.818-1.336-1.182zm1.559-1.046c.222-.181.445-.363.623-.5.134-.09.267-.227.445-.318l1.07 1.228c-.268.272-.58.5-.847.681a33.15 33.15 0 0 0-1.291-1.09zM9.95 5.96c.089.273.311.682.623 1.137a2.189 2.189 0 0 1-.712 1c-.49-.637-1.025-1.273-1.515-1.91.446-.5.802-1 1.114-1.636.222.454.356.909.49 1.41zm-.802-2.182c-.045.045-.045.045-.045.09a5.645 5.645 0 0 1-1.113 1.774 25.966 25.966 0 0 1-1.247-1.819 6.81 6.81 0 0 0 .98-1.864c.579.364 1.069 1 1.425 1.819zm-1.96-2.091l-.044.045a4.97 4.97 0 0 1-.757 1.455c-.312-.455-.58-.955-.89-1.455.623-.182 1.157-.227 1.691-.045zm-2.27.363c.311.591.667 1.137 1.024 1.728-.49.545-1.025 1.046-1.515 1.546-.178.136-.579.5-1.024.863-.49-.272-1.024-.545-1.559-.818.312-.636.802-1.318 1.515-2.046.534-.59 1.068-1 1.558-1.273zm-3.34 3.91c.4.182.8.41 1.202.591-.446.318-.936.546-1.247.591-.09-.364-.09-.727.044-1.182zm8.594 7.501c-.267-.136-.668-.5-1.158-.954.357-.182.668-.41.98-.682.624.59 1.247 1.136 1.826 1.773-.49.09-1.113.09-1.648-.137zm2.36-.136a42.013 42.013 0 0 0-2.048-1.955c.045-.045.09-.09.134-.09.222-.183.445-.365.623-.546.579.682 1.202 1.318 1.826 2-.09.182-.178.318-.267.41a.685.685 0 0 1-.267.18zm.802-1.318c-.534-.591-1.069-1.137-1.603-1.728.267-.318.445-.682.579-1.091.4.5.712.91.846 1.136.223.5.267 1.137.178 1.683z"/>
    </g>
</svg>
