<svg xmlns="http://www.w3.org/2000/svg" width="24" height="54" viewBox="0 0 24 54">
    <g fill="#fff" fill-rule="nonzero">
        <ellipse cx="11.614" cy="12.728" rx="4.319" ry="4.516" transform="rotate(-76.891 11.614 12.728)"/>
        <path d="M18.548 19.735c-.886-.603-1.846-1.038-2.9-1.108a1.423 1.423 0 0 0-.325-.038h-7.08c-.11-.04-.38-.147-.746-.368-.725-.44-1.799-1.296-2.72-2.968-.919-1.674-1.703-4.2-1.705-8.058 0-.187.002-.378.006-.57h2.66V0H1.706v4.375c-.028-.002-.054-.006-.082-.007C.777 4.33.061 5.019.026 5.905.008 6.347 0 6.778 0 7.195c-.01 5.932 1.713 9.639 3.578 11.777 1.04 1.198 2.088 1.897 2.843 2.29V51.4c0 1.37 1.063 2.482 2.374 2.482 1.31 0 2.374-1.111 2.374-2.482V35.42h.89V51.4c0 1.37 1.063 2.482 2.374 2.482 1.31 0 2.373-1.111 2.373-2.482V34.14l-.023-.008c-1.488-.658-2.535-2.2-2.535-3.993 0-.923.28-1.777.751-2.48a4.207 4.207 0 0 1 1.807-1.523v-3.754c.019.013.037.023.056.037.94.638 1.99 1.808 2.748 3.157.098.173.191.348.28.526 1.546.63 2.647 2.2 2.647 4.037 0 1.778-1.03 3.308-2.5 3.975.09.136.2.26.333.366.278.223.607.331.932.331a1.51 1.51 0 0 0 1.221-.63c.984-1.339 1.396-2.927 1.391-4.455-.016-2.745-1.193-5.372-2.741-7.426-.782-1.025-1.667-1.906-2.625-2.566z"/>
        <path d="M20.148 26.663a3.613 3.613 0 0 0-1.756-.455c-.567 0-1.103.135-1.586.37a3.813 3.813 0 0 0-1.426 1.214 4.029 4.029 0 0 0-.748 2.348c0 1.578.891 2.935 2.174 3.561a3.605 3.605 0 0 0 3.057.059c1.346-.599 2.29-1.994 2.29-3.62 0-1.509-.813-2.817-2.005-3.477z"/>
    </g>
</svg>
