<svg xmlns="http://www.w3.org/2000/svg" width="58" height="45" viewBox="0 0 58 45">
    <path fill="#fff" fill-rule="nonzero" d="M56.138 2.18C55.283 1.422 54.118 1 52.844 1c-2.14 0-3.982 1.145-4.281 2.664-.126.659-.156.997-.167 1.223-.024.255-.024.255-.544 1.121l-.389.641c-1.411 2.344-1.357 4.273-.622 5.388l-1.118 1.33a1.875 1.875 0 0 0-1.196.011l-2.756 1.003c-.88.314-2.29.25-3.133-.142l-9.232-4.314c-.842-.398-2.05-.155-2.673.534L16.527 21.72a75.16 75.16 0 0 1-2.338 2.445l-4.772 4.74c-.663.66-1.967 1.194-2.9 1.194H1.698C.765 30.1 0 30.859 0 31.785v1.685c0 .926.765 1.686 1.698 1.686h6.924c.933 0 2.236-.534 2.9-1.193l5.202-5.163a1.636 1.636 0 0 1 2.356.042l3.318 3.542c.634.677 1.154 1.994 1.154 2.92v8.01c0 .927.766 1.686 1.699 1.686h1.704c.932 0 1.698-.759 1.698-1.685v-9.999c0-.926-.52-2.243-1.154-2.92l-2.846-3.043c-.634-.678-.706-1.852-.162-2.606l2.541-3.513c.545-.754.993-.611.993.315l-.012 3.287c0 .926.712 1.97 1.579 2.314l3.396 1.347-.873 1.033 1.465 1.21 1.267-1.507.789.314a1.642 1.642 0 0 0 2.159-.955l.304-.83c.246-.671.03-1.395-.478-1.828l6.416-7.613 2.331-1.229a1.746 1.746 0 0 0 .748-2.302l-.042-.083 1.34-1.59c.238.053.484.083.747.083 1.25 0 2.678-.635 4.018-1.787l.574-.492c.765-.659.765-.659 1.023-.724.214-.053.55-.142 1.183-.38 1.046-.397 1.788-1.507 1.991-2.96.203-1.465-.18-3.472-1.812-4.676zM35.797 25.159l-1.501-.534c-.885-.315-1.65-1.33-1.705-2.255l-.238-4c-.055-.926.604-1.388 1.458-1.02l5.112 2.171c.395.172.897.25 1.412.244l-4.538 5.394zm20.97-18.461c-.138.99-.623 1.78-1.238 2.011a7.48 7.48 0 0 1-1.053.338c-.526.13-.598.196-1.507.985l-.568.487c-1.124.961-2.278 1.495-3.241 1.495-.442 0-.813-.118-1.076-.338-.724-.6-.903-2.237.4-4.415l.389-.64c.622-1.027.67-1.11.71-1.65.019-.196.037-.493.157-1.08.18-.944 1.573-1.703 3.103-1.703.974 0 1.86.308 2.54.914 1.258.925 1.539 2.462 1.383 3.596zM35.5 11a5.5 5.5 0 1 1 .001-11.001A5.5 5.5 0 0 1 35.5 11z"/>
</svg>
