<svg xmlns="http://www.w3.org/2000/svg" width="59" height="38" viewBox="0 0 59 38">
    <g fill="#fff" fill-rule="nonzero" stroke="#fff" stroke-width=".7">
        <path d="M39.633.507H1v37.05h57V.507H39.633zM2.14 36.353V1.583h17.227v34.77H2.14zm18.05 0V1.583h18.557v34.77H20.19zm36.67 0H39.633V1.583H56.86v34.77z"/>
        <path d="M50.337 17.923h1v2.153h-1z"/>
        <path d="M50.717 25.84h.443v-3.673A3.16 3.16 0 0 0 53.947 19a3.16 3.16 0 0 0-2.787-3.167V12.16h-.443c-3.8 0-6.84 3.04-6.84 6.84s3.103 6.84 6.84 6.84zM53.123 19c0 1.267-1.076 2.343-2.343 2.343S48.373 20.267 48.373 19s1.077-2.343 2.344-2.343c1.266 0 2.406 1.076 2.406 2.343zm-3.483 3.04l-1.077.76c-1.33-.76-2.216-2.217-2.216-3.737s.823-2.976 2.216-3.736l1.077.76a3.22 3.22 0 0 0-2.153 3.04c0 1.393.95 2.47 2.153 2.913zm.697-8.993v2.343l-1.647-1.14-.253.127A5.129 5.129 0 0 0 45.587 19a5.129 5.129 0 0 0 2.85 4.623l.253.127 1.647-1.14v2.343c-3.104-.19-5.574-2.786-5.574-5.953 0-3.167 2.47-5.763 5.574-5.953zM29.5 12.54c-3.293 0-6.017 2.66-6.017 5.953A6.014 6.014 0 0 0 29.5 24.51a5.974 5.974 0 0 0 6.017-6.017c0-3.293-2.724-5.953-6.017-5.953zm0 11.147c-2.85 0-5.13-2.28-5.13-5.13s2.28-5.13 5.13-5.13 5.13 2.28 5.13 5.13-2.28 5.13-5.13 5.13z"/>
        <path d="M29.057 16.467h1v4.117h-1zM7.967 17.923h1v2.153h-1z"/>
        <path d="M8.41 12.16h-.443v3.673A3.16 3.16 0 0 0 5.18 19a3.16 3.16 0 0 0 2.787 3.167v3.673h.443c3.8 0 6.84-3.04 6.84-6.84s-3.103-6.84-6.84-6.84zM6.067 19c0-1.267 1.076-2.343 2.343-2.343s2.343 1.076 2.343 2.343-1.076 2.343-2.343 2.343S6.067 20.267 6.067 19zm3.42-3.04l1.076-.76c1.33.76 2.217 2.217 2.217 3.737s-.823 2.976-2.217 3.736l-1.076-.76a3.22 3.22 0 0 0 2.153-3.04c0-1.393-.95-2.47-2.153-2.913zm-.634 8.993V22.61l1.647 1.14.253-.127A5.129 5.129 0 0 0 13.603 19a5.129 5.129 0 0 0-2.85-4.623l-.253-.127-1.647 1.14v-2.343c3.104.19 5.574 2.786 5.574 5.953 0 3.167-2.47 5.763-5.574 5.953z"/>
    </g>
</svg>
