<svg xmlns="http://www.w3.org/2000/svg" width="38" height="54" viewBox="0 0 38 54">
    <g fill="#fff" fill-rule="nonzero">
        <path d="M26.058 51.714c.447-.192 4.536-2.015 5.574-4.868.375-1.03.327-2.066-.144-3.076-.91-1.951-2.317-3.039-3.679-4.09-1.3-1.005-2.53-1.954-3.175-3.638-.858-2.241-2.551-4.006-4.895-5.1a11.455 11.455 0 0 0-1.026-.422L5.265 1.682A2.28 2.28 0 0 0 3.968.493 2.28 2.28 0 0 0 2.209.57c-.556.26-.978.72-1.189 1.297a2.286 2.286 0 0 0 .077 1.758l13.448 28.838-.027.07c-.722 1.986-1.23 4.988.45 8.017.876 1.577.814 3.128.747 4.77-.07 1.72-.141 3.496.768 5.447.484 1.038 1.274 1.751 2.347 2.117 2.845.973 6.8-.954 7.228-1.17zM14.054 24.883l.778 1.667-.834.389-.778-1.667.834-.39zm-1.61-1.279L4.124 5.765l.834-.387 8.318 17.837-.834.39zm3.165 4.614l.812 1.74a.918.918 0 0 0-.834.39l-.811-1.743.833-.387zM26.988 41.37l-.005.014-1.728-.629.215-.59c.398.34.808.658 1.215.972l.303.233zm-.635 1.744l-.629 1.728-1.728-.629.63-1.728 1.727.629zm-2.827-2.988l-1.729-.63.629-1.727 1.283.467c.108.16.22.316.336.464l-.52 1.426zm-3.457-1.258l-1.73-.63.63-1.727 1.729.629-.63 1.728zm1.258-3.457l-1.73-.629.55-1.506a7.61 7.61 0 0 1 1.486 1.295l-.306.84zm-5.08-2.248c.193-.53.404-.969.566-1.276.413.087 1.015.246 1.691.521l-.635 1.745-1.743-.635c.04-.123.08-.241.121-.355zm.993 2.718l-.629 1.728-.84-.306a7.578 7.578 0 0 1-.038-1.97l1.507.548zm.004 5.37l.466-1.283 1.73.63-.63 1.728-1.426-.52a7.867 7.867 0 0 0-.14-.555zm3.923-.025l1.73.63-.63 1.728-1.729-.63.63-1.728zm.471 4.086l-.63 1.73-1.728-.63.63-1.73 1.728.63zm1.73.63l1.727.628-.63 1.73-1.727-.63.63-1.729zm.469 4.086l-.265.728c-.658.222-1.41.422-2.144.513l.68-1.87 1.729.629zm3.082-.835l-.724-.264.63-1.73 1.87.682c-.368.343-.807.684-1.313 1.019a16.09 16.09 0 0 1-.463.293zm2.985-2.976a2.29 2.29 0 0 1-.052.128l-2.399-.874.63-1.728 1.635.596c.034.068.07.137.103.208.26.56.288 1.107.083 1.67zM2.75 2.496a.453.453 0 0 1 .237-.259.457.457 0 0 1 .61.222l.584 1.25-.833.39-.583-1.25a.453.453 0 0 1-.015-.353zm14.84 41.342l.591.216-.63 1.73-.013-.006.015-.383c.02-.513.042-1.031.036-1.557zm.56 6.152a7.489 7.489 0 0 1-.094-.214l.595-1.635 1.729.629-.873 2.399a2.093 2.093 0 0 1-1.357-1.18zM32.313 30.164c-1.27 0-2.468.495-3.366 1.395-.9.9-1.395 2.094-1.395 3.366 0 1.272.495 2.469 1.395 3.367a4.732 4.732 0 0 0 3.366 1.395 4.735 4.735 0 0 0 3.367-1.395 4.728 4.728 0 0 0 1.395-3.367 4.727 4.727 0 0 0-1.395-3.366 4.73 4.73 0 0 0-3.367-1.395zm-2.02 2.741a2.856 2.856 0 0 1 3.314-.527c-.204.386-.668 1.074-1.717 2.123-1.049 1.049-1.736 1.513-2.123 1.718a2.863 2.863 0 0 1 .526-3.314zm4.04 4.04a2.834 2.834 0 0 1-2.02.836c-.381 0-.752-.074-1.094-.214.56-.377 1.225-.927 2.017-1.719.79-.79 1.342-1.456 1.717-2.014a2.858 2.858 0 0 1-.62 3.11z"/>
    </g>
</svg>
