<svg xmlns="http://www.w3.org/2000/svg" width="51" height="45" viewBox="0 0 51 45">
    <g fill="#fff" fill-rule="nonzero">
        <ellipse cx="37.003" cy="5.324" rx="4.429" ry="4.519" transform="rotate(-10.597 37.003 5.324)"/>
        <path d="M50.278 40.683c-2.84-3.256-4.404-6.925-5.241-9.782a27.28 27.28 0 0 1-.785-3.489c-.043-.28-.074-.514-.096-.705.28-.443.51-.998.674-1.692.7-4.436.526-7.084-.639-11.193-.864-2.983-3.258-4.023-4.956-3.67a2.115 2.115 0 0 0-.607.228 1.585 1.585 0 0 0-1.01.954l-.002.002a6.82 6.82 0 0 1-.87 1.496c-.267.343-.582.65-.892.847-.315.198-.6.294-.94.296-.29-.001-.648-.071-1.142-.334-.491-.263-1.105-.73-1.814-1.492a1.553 1.553 0 0 0-2.227-.059 1.63 1.63 0 0 0-.058 2.272 12.023 12.023 0 0 0 1.67 1.51 1.932 1.932 0 0 1 1.693.218c1.048.694 1.82.975 2.36 1.072a4.833 4.833 0 0 0 1.797-.565c.07-.074.14-.156.207-.245a4.51 4.51 0 0 0 .423-.675c.53-1.01.722-2.184.724-2.194.141-.994.978-1.734 1.948-1.734.052 0 .105.007.157.012.042.003.084.003.126.01.52.075.98.354 1.295.784.315.43.448.958.373 1.49-.047.313-.19 1.118-.544 2.121-.378 1.047-1.04 2.573-2.439 3.752-.459.388-.976.69-1.526.91.096 1.486.083 2.992-.163 4.391-.02.207-.035.398-.044.577a15.165 15.165 0 0 0-1.962 1.92c-2.403 2.793-4.641 7.512-4.625 14.671 0 1.387 1.102 2.511 2.462 2.511s2.462-1.124 2.462-2.511c.017-6.135 1.798-9.453 3.415-11.373.127-.149.253-.288.378-.42.128.544.28 1.129.461 1.747.985 3.353 2.818 7.704 6.279 11.679a2.427 2.427 0 0 0 3.474.209 2.547 2.547 0 0 0 .205-3.545z"/>
        <path d="M41.531 16.03c.393-1.114.514-1.972.525-2.044.124-.878-.474-1.693-1.335-1.819-.026-.004-.053-.005-.08-.008a1.58 1.58 0 0 0-1.703 1.367v.002c-.01.086-.224 1.3-.767 2.335l-.055.102a4.414 4.414 0 0 1-.637.907 2.71 2.71 0 0 1-.293.273c-.378.293-.744.454-1.323.462-.45.002-1.07-.123-1.874-.509a9.854 9.854 0 0 1-1.168-.671 1.543 1.543 0 0 0-1.032-.249c-.452.052-.88.302-1.147.723a1.626 1.626 0 0 0 .464 2.223c1.729 1.142 3.297 1.695 4.757 1.698h.031a5.17 5.17 0 0 0 3.318-1.214c1.272-1.073 1.92-2.472 2.32-3.579z"/>
        <ellipse cx="13.895" cy="5.324" rx="4.429" ry="4.519" transform="rotate(-79.403 13.895 5.324)"/>
        <path d="M.826 44.228a2.428 2.428 0 0 0 3.475-.208c3.46-3.976 5.293-8.326 6.278-11.68.181-.618.334-1.203.462-1.747.274.288.553.615.828.985 1.473 1.99 2.954 5.236 2.965 10.808 0 1.387 1.102 2.511 2.462 2.511s2.461-1.124 2.461-2.51c.017-7.16-2.222-11.879-4.625-14.671a15.162 15.162 0 0 0-1.961-1.92c-.01-.18-.024-.37-.045-.578-.302-1.72-.255-3.6-.081-5.406a6.29 6.29 0 0 0 3.06.768h.034c1.018 0 2.124-.205 3.332-.634.821-.292 1.255-1.208.97-2.046a1.567 1.567 0 0 0-2.006-.99c-.94.334-1.697.456-2.296.456-.55-.005-.97-.097-1.322-.248-.473-.027-.94-.1-1.4-.214a8.29 8.29 0 0 1-2.38-1.015 8.35 8.35 0 0 1-1.613-1.296 2.024 2.024 0 0 1-.53-1.447c.021-.536.244-1.032.63-1.397a1.94 1.94 0 0 1 2.774.097l.003.002.012.013a4.813 4.813 0 0 0 1.463.95c-.238-1.313-.986-2.427-2.111-2.66-1.698-.352-4.092.687-4.956 3.67-1.165 4.11-1.34 6.757-.639 11.193.164.695.395 1.25.674 1.692a26.406 26.406 0 0 1-.962 4.464c-.855 2.817-2.409 6.357-5.16 9.513a2.547 2.547 0 0 0 .204 3.545z"/>
        <path d="M12.347 12.422a4.015 4.015 0 0 1-.307-.272l-.029-.029a1.553 1.553 0 0 0-2.22-.077 1.619 1.619 0 0 0-.467 1.515c.058.274.184.536.384.756.069.074.595.646 1.533 1.23a7.978 7.978 0 0 0 2.236.963 7.283 7.283 0 0 0 1.817.224c1.898 0 4.101-.818 6.23-2.874a1.63 1.63 0 0 0 .07-2.272 1.553 1.553 0 0 0-2.227-.072c-1.712 1.624-3.047 1.993-4.11 2.004-.519 0-.995-.102-1.42-.254a5.046 5.046 0 0 1-1.49-.842z"/>
        <ellipse cx="25.788" cy="15.92" rx="3.582" ry="3.5" transform="rotate(-51.945 25.788 15.92)"/>
    </g>
</svg>
