<svg xmlns="http://www.w3.org/2000/svg" width="59" height="51" viewBox="0 0 59 51">
    <path fill="#fff" fill-rule="nonzero" d="M31.748 18.29c.148.116.258.233.34.325 3.816 3.81 5.797 9.144 5.39 14.585a18.437 18.437 0 0 1-4.625 11.007 13.63 13.63 0 0 1-.844.902 18.683 18.683 0 0 1-11.888 5.41 18.733 18.733 0 0 1-14.644-5.448l-.13-.133a7.1 7.1 0 0 1-.432-.472C1.438 40.689-.333 35.573.052 30.423a18.633 18.633 0 0 1 5.44-11.88c.33-.328.622-.599.922-.85a18.429 18.429 0 0 1 11.005-4.581 18.72 18.72 0 0 1 14.33 5.178zM9.61 20.946a14.176 14.176 0 0 0-4.569 7.168 1.195 1.195 0 0 0 1.156 1.507c.527 0 1.01-.351 1.154-.884a11.793 11.793 0 0 1 3.803-5.964 1.195 1.195 0 1 0-1.544-1.827zM28.058 8.185a1.194 1.194 0 0 1-.845-2.04L32.626.734a1.196 1.196 0 0 1 1.691 1.69l-5.413 5.41c-.234.234-.54.35-.846.35zm5.23 5.714a1.194 1.194 0 0 1 0-1.69l6.107-6.104a1.196 1.196 0 0 1 1.691 1.69l-6.106 6.104c-.234.234-.54.35-.846.35-.306 0-.612-.116-.846-.35zm9.894-8.695a1.195 1.195 0 0 1-.844-2.042l2.64-2.629a1.195 1.195 0 1 1 1.69 1.693l-2.64 2.63c-.234.232-.54.348-.846.348zM58.404.941a1.195 1.195 0 0 1 0 1.69l-17.349 17.34c-.233.234-.54.35-.846.35a1.194 1.194 0 0 1-.846-2.04L56.713.941a1.196 1.196 0 0 1 1.69 0z"/>
</svg>
