<svg xmlns="http://www.w3.org/2000/svg" width="56" height="56" viewBox="0 0 56 56">
    <path fill="#fff" fill-rule="nonzero" d="M28 56C12.536 56 0 43.464 0 28S12.536 0 28 0s28 12.536 28 28-12.536 28-28 28zm0-10c9.941 0 18-8.059 18-18s-8.059-18-18-18-18 8.059-18 18 8.059 18 18 18zm3.68-31.828c.112.11.172.258.168.41l-.497 17.239a.58.58 0 0 1-.592.551h-5.643a.58.58 0 0 1-.592-.55l-.498-17.24a.552.552 0 0 1 .167-.41.608.608 0 0 1 .425-.172h6.638c.16 0 .313.062.425.172zm-.933 21.26c.328 0 .593.269.593.599v5.244c0 .33-.265.598-.592.598h-5.62a.595.595 0 0 1-.593-.598V36.03c0-.33.265-.598.592-.598h5.62z"/>
</svg>
