<svg xmlns="http://www.w3.org/2000/svg" width="54" height="57" viewBox="0 0 54 57">
    <g fill="none" fill-rule="evenodd">
        <path d="M53 13h-.837l-.837 1.455L50.581 13h-1.395l-.744 1.455L47.698 13h-1.396l-.744 1.455L44.72 13h-1.395l-.744 1.455L41.837 13H41l1.208 2.273-.65 1.18.28 1.09.744-1.453 1.023 2.001-1.023 2-.374-.638.746 2.82.65 1.361-.186.455.187.911h.185l.28-.55.28.55h.835l-.743-1.365 1.115-2 1.024 2L45.836 25h.838l.278-.55.28.55h.837l-.652-1.365 1.024-2 1.024 2L48.812 25h.839l.278-.55.28.55h.37l.187-.64-.465-.726.932-1.816.557-2.546-.465.818-1.024-2 1.024-2 .837 1.451.186-1.179-.558-1.09L53 13zm-6.047.271l1.117 2.002-1.117 1.997-1.023-1.997 1.023-2.002zm-3.999 2.002l1.117-2.002 1.023 2.002-1.023 1.997-1.117-1.997zm1.117 7.542l-1.117-2 1.117-1.998 1.023 1.998-1.023 2zm.371-4.724l1.116-2.002 1.024 2.002-1.024 1.999-1.116-2zm2.511 4.724l-1.023-2 1.023-1.998 1.117 1.998-1.117 2zm.465-4.724l1.024-2.002 1.024 2.002-1.024 1.999-1.024-2zm3.536 2.724l-1.024 2-1.116-2 1.116-1.998 1.024 1.998zM49.93 17.27l-1.117-1.997 1.117-2.001 1.024 2.001-1.024 1.997z"/>
        <path fill="#fff" fill-rule="nonzero" d="M37 0c-2.79 0-5 2.207-5 5 0 2.672 2.21 5 5 5s5-2.328 5-5c0-2.793-2.209-5-5-5zM48 17l-1 2.001L48 21l1-1.999zM49 21l1.043 2L51 21l-.957-2zM49 16.002L50.043 18 51 16.002 50.043 14zM46 21l.956 2L48 21l-1.044-2z"/>
        <path fill="#fff" fill-rule="nonzero" d="M41 13h-1l3.182 13h8.092L54 13H41zm11.183 5.092l-.818-1.403-1 1.934 1 1.932.455-.79-.545 2.46-.91 1.756.454.702-.182.618h-.363L50 24.77l-.272.53h-.82l.638-1.32-1-1.932-1.001 1.932.637 1.32h-.818l-.273-.53-.272.53H46l.729-1.32-1.001-1.932-1.09 1.932.726 1.32h-.817l-.273-.53-.274.53h-.181l-.182-.881.182-.44-.636-1.315-.728-2.725.364.615 1-1.932-1-1.934-.727 1.404-.274-1.054.637-1.14-1.182-2.196h.819l.727 1.406.727-1.406h1.364l.818 1.406.728-1.406h1.364l.727 1.406.727-1.406h1.363l.729 1.406.817-1.406h.819L51.82 15.9l.545 1.053-.182 1.139z"/>
        <path fill="#fff" fill-rule="nonzero" d="M48 16.002L46.956 14 46 16.002 46.956 18zM22.52 20c.646 0 1.29-.184 1.843-.37a5.961 5.961 0 0 0 3.127-2.865c.645-1.295.645-2.865.184-4.252A5.498 5.498 0 0 0 22.521 9c-.643 0-1.287.092-1.933.276-2.852 1.113-4.324 4.254-3.221 7.12.83 2.123 2.854 3.604 5.154 3.604z"/>
        <path fill="#fff" fill-rule="nonzero" d="M35.945 11.27l-.642-.18c-.826-.272-1.834.09-2.2.905l-3.396 6.868c-.185.361-.643.721-1.1.813l-3.304.452-6.698.54h-.092c-.458 0-.916.182-1.284.453L4.2 31.513c-.275.274-.551.635-.46 1.086 0 .361.185.813.551.994l1.377.903c.275.27.734.362 1.1.362.46 0 .917-.182 1.285-.453l7.065-5.69-2.11 8.403c-.092.089-.092.18-.092.18l-2.753 6.78c-.183.54-.916 1.266-1.468 1.446L.99 48.504c-.459.184-.827.544-.918.995-.184.452 0 .903.368 1.354l.642.722c.458.546 1.285.907 2.018.907.275 0 .55-.092.826-.18L12 49.409c.917-.272 1.834-1.178 2.203-1.989l2.75-6.236 1.56-.18.366 2.982c.092.631-.09 1.808-.366 2.35l-3.945 8.404c-.274.54-.183.996 0 1.447.276.453.734.631 1.192.723l1.102.09h.184c.918 0 1.927-.542 2.295-1.354l3.945-7.593c.366-.724.641-1.986.641-2.893l.092-6.323 2.936-15.004 4.496-.633c.734-.09 1.56-.724 1.926-1.444l3.486-8.407c.184-.45.184-.902 0-1.264-.182-.36-.46-.636-.917-.814zM43 21l1.044 2L45 21l-.956-2zM46.043 17L45 19.001 46.043 21 47 19.001zM45 16.002L44.044 14 43 16.002 44.044 18z"/>
    </g>
</svg>
