<svg xmlns="http://www.w3.org/2000/svg" width="42" height="42" viewBox="0 0 42 42">
    <g fill="#fff" fill-rule="nonzero">
        <path d="M9.011 11.147c0-1.93 1.545-3.423 3.433-3.291l26.123-.044c1.888.132 3.433 1.8 3.433 3.73 0 1.931-1.545 3.6-3.433 3.73l-26.123.396c-1.888.131-3.433-1.36-3.433-3.292v-1.229z"/>
        <path d="M14.16 20.978c0 1.931-1.072 2.414-2.445 1.01l-10.556-7.9c-1.33-1.36-1.33-3.599 0-4.96l10.599-7.943c1.33-1.36 2.446-.922 2.446 1.01v18.783h-.043z"/>
        <g>
            <path d="M32.989 29.975c0-1.931-1.545-3.423-3.433-3.292L3.433 26.64C1.545 26.771 0 28.44 0 30.37c0 1.932 1.545 3.6 3.433 3.731l26.123.395c1.888.132 3.433-1.36 3.433-3.291v-1.23z"/>
            <path d="M27.84 39.806c0 1.93 1.072 2.413 2.445 1.009l10.556-7.9c1.33-1.36 1.33-3.598 0-4.959l-10.599-7.943c-1.33-1.361-2.446-.922-2.446 1.009v18.784h.043z"/>
        </g>
    </g>
</svg>
