<svg xmlns="http://www.w3.org/2000/svg" width="42" height="51" viewBox="0 0 42 51">
    <path fill="#fff" fill-rule="nonzero" d="M40.362 21.656h-.553c.209-1.084.318-2.2.318-3.34C40.127 8.2 31.563 0 21 0S1.87 8.2 1.87 18.316c0 1.14.11 2.257.318 3.34h-.553c-.904 0-1.636.7-1.636 1.566 0 .866.732 1.567 1.636 1.567h.74L7.984 38.32c.012.04.029.08.048.117l1.582 3.816v7.964c0 .433.366.783.818.783.452 0 .818-.35.818-.783v-3.294h2.184v3.294c0 .433.366.783.818.783.452 0 .818-.35.818-.783v-3.294h1.936v3.294c0 .433.366.783.818.783.452 0 .819-.35.819-.783v-3.294h1.54v3.294c0 .433.366.783.818.783.451 0 .817-.35.817-.783v-3.294h1.54v3.294c0 .433.366.783.818.783.452 0 .818-.35.818-.783v-3.294h1.936v3.294c0 .433.367.783.818.783.452 0 .818-.35.818-.783v-3.294h2.184v3.294c0 .433.367.783.818.783.451 0 .817-.35.817-.783v-7.963l1.583-3.816a.785.785 0 0 0 .048-.117l5.608-13.531h.74c.904 0 1.636-.702 1.636-1.567s-.734-1.567-1.638-1.567zm-34.8 3.133h2.471l1.986 6.408a16.862 16.862 0 0 1-4.501-5.339c-.001-.336.013-.693.045-1.07zm17.483-10.553c1.468 2.716 3.038 5.174 4.39 7.42h-11.07c.085-1.414.212-2.88.367-4.38.32-3.254.763-6.354 1.464-9.014 1.304.07 2.645.234 4.002.5-.133.36-.224.74-.262 1.136-.141 1.536.445 3 1.11 4.338zm3.37 10.553l-1.542 8.696h-3.056V24.79h4.598zm-9.412 7.14c-.57-1.97-.776-4.41-.752-7.14h3.93v8.697h-2.655a13.04 13.04 0 0 1-.523-1.557zm.132 1.556h-.01l-.007-.037.017.037zm-1.32-16.291a71.037 71.037 0 0 0-.329 4.462H6.204c.873-2.59 2.6-5.488 4.804-8.328.747-.969 1.513-1.975 2.005-3.078.286-.62.499-1.242.668-1.857a26.568 26.568 0 0 1 3.755-.16c-.796 2.658-1.305 5.742-1.621 8.961zM12.17 32.639l-2.432-7.85h4.184l1.542 8.696h-1.587a17.813 17.813 0 0 1-1.707-.846zm14.362.846l1.542-8.696h1.138c.488.941.897 1.842 1.193 2.707.215.553.388 1.077.527 1.572l-1.106 3.57c-.549.311-1.118.594-1.704.847h-1.59zm4.608-5.088c-.084-.333-.182-.679-.298-1.038a18.636 18.636 0 0 0-.954-2.57h2.37l-1.118 3.608zm2.824-3.608h3.033a16.758 16.758 0 0 1-5.019 6.408l1.986-6.408zm-5.66-3.133c-1.324-2.411-2.927-5.02-4.428-7.8-.647-1.292-1.164-2.623-1.062-3.884.027-.357.107-.701.229-1.028.114.026.228.051.341.078 3.163.707 6.09 1.752 8.48 3.138 2.394 1.38 4.206 3.144 5.241 4.913.584.999.955 1.935 1.187 2.767a15.927 15.927 0 0 1-.279 1.815h-9.709zm2.743-16.638c.135.004.268.01.4.016 4.201 3.035 6.917 7.854 6.917 13.282 0 .217-.006.431-.014.646-.191-.65-.46-1.353-.84-2.098-.97-1.891-2.787-3.827-5.232-5.333-2.442-1.515-5.447-2.643-8.683-3.367l-.147-.033a5.155 5.155 0 0 1 1.174-1.283c1.986-1.527 4.479-1.843 6.425-1.83zm-9.67-3.326c3.475.071 6.7 1.12 9.384 2.87-1.958-.079-4.446.152-6.624 1.705a5.734 5.734 0 0 0-1.544 1.676 26.871 26.871 0 0 0-4.167-.507c.494-1.672 1.103-3.145 1.866-4.338.343-.55.71-1.014 1.085-1.406zm-.48-.003c-.343.34-.678.727-.99 1.169-.898 1.239-1.625 2.79-2.214 4.556a25.679 25.679 0 0 0-3.823.222c.049-.213.095-.425.137-.635.238-.998.28-2.371-.72-3.092a2.95 2.95 0 0 0-.48-.259 17.896 17.896 0 0 1 8.09-1.961zM12.14 4.01c.275.078.533.194.752.366.641.502.625 1.499.355 2.47-.065.308-.142.615-.229.92-2.365.405-4.445 1.136-6.038 2.077-.527.29-1.005.588-1.44.884 1.498-2.79 3.794-5.12 6.6-6.717zM3.633 18.316c0-2.493.574-4.857 1.6-6.98.573-.37 1.227-.745 1.966-1.105 1.523-.789 3.43-1.386 5.581-1.718-.523 1.478-1.336 2.912-2.516 4.293-2.293 2.946-3.99 6.077-4.72 8.849H3.983a16.02 16.02 0 0 1-.35-3.339zm4.107 15.17l-1.42-3.427a18.975 18.975 0 0 0 3.955 3.426H7.74zm1.585 3.825l-.936-2.26h2.823l.7 2.26H9.325zm1.667 4.024l-1.018-2.456h2.424l.761 2.456h-2.167zm2.441 4.023H11.25V42.9h2.183v2.457zm.186-8.047l-.7-2.26h.298c.865.37 1.763.68 2.69.924l.237 1.336h-2.525zm1.247 4.024l-.761-2.456h2.316l.436 2.456h-1.991zm2.14 4.023h-1.937V42.9h1.936v2.457zm3.175 0h-1.54V42.9h1.54v2.457zm0-4.023h-1.665l-.435-2.456h2.1v2.456zm-2.378-4.024l-.17-.962c.832.141 1.683.23 2.548.265v.697h-2.378zm5.553 8.047h-1.54V42.9h1.54v2.457zm.125-4.023h-1.664v-2.457h2.1l-.436 2.457zm-1.664-4.024v-.697a19.916 19.916 0 0 0 2.548-.265l-.17.962h-2.378zm5.112 8.047h-1.936V42.9h1.936v2.457zm.203-4.023h-1.991l.435-2.456h2.317l-.76 2.456zm1.247-4.024h-2.525l.237-1.336a19.442 19.442 0 0 0 2.69-.924h.298l-.7 2.26zm2.37 8.047h-2.185V42.9h2.185v2.457zm.256-4.023H28.84l.76-2.456h2.425l-1.019 2.456zm1.667-4.024h-2.587l.7-2.26h2.824l-.937 2.26zm-.95-3.826a18.96 18.96 0 0 0 3.956-3.426l-1.42 3.426h-2.536z"/>
</svg>
