<svg xmlns="http://www.w3.org/2000/svg" width="45" height="45" viewBox="0 0 45 45">
    <g fill="#fff" fill-rule="nonzero">
        <path d="M22.5 0C10.074 0 0 10.074 0 22.5S10.074 45 22.5 45 45 34.926 45 22.5C44.982 10.081 34.919.018 22.5 0m0 41.863c-10.694 0-19.363-8.669-19.363-19.363 0-10.694 8.669-19.363 19.363-19.363 10.694 0 19.363 8.669 19.363 19.363-.009 10.69-8.673 19.354-19.363 19.363"/>
        <path d="M24.31 19.82v-6.275a9.097 9.097 0 0 1 3.009 1.569 1.69 1.69 0 0 0 1.065.345 1.769 1.769 0 0 0 1.817-1.757 1.899 1.899 0 0 0-.893-1.569 11.365 11.365 0 0 0-4.887-2.055V9.64a1.638 1.638 0 1 0-3.274 0v.345c-3.823.424-6.455 2.934-6.455 6.275s1.896 5.349 6.596 6.525v6.447a9.504 9.504 0 0 1-4.387-2.274 1.784 1.784 0 0 0-2.898 1.365 1.773 1.773 0 0 0 .768 1.568 12.947 12.947 0 0 0 6.423 2.808v1.663a1.638 1.638 0 1 0 3.274 0v-1.569c3.932-.47 6.532-2.996 6.532-6.4 0-3.404-2.052-5.349-6.626-6.478l-.063-.094zm-3.07-.69c-2.647-.848-2.866-1.82-2.866-2.918 0-1.443 1.112-2.479 2.867-2.761v5.678zm3.134 10.321v-5.914c2.725.847 2.96 1.836 2.96 2.918 0 1.569-1.112 2.604-2.96 2.902v.094z"/>
    </g>
</svg>
