<svg xmlns="http://www.w3.org/2000/svg" width="27" height="39" viewBox="0 0 27 39">
    <path fill="#fff" fill-rule="evenodd" d="M25.364 22.379c1.09 1.51 1.636 3.326 1.636 5.445 0 2.31-.598 4.307-1.795 5.992-1.196 1.684-2.837 2.97-4.922 3.855-2.085.886-4.447 1.329-7.087 1.329-2.27 0-4.412-.404-6.426-1.211-2.015-.808-3.647-2.037-4.896-3.687C.624 32.452 0 30.43 0 28.032h7.97c0 .868.238 1.659.713 2.37.475.713 1.126 1.269 1.953 1.668.827.4 1.751.6 2.772.6 1.16 0 2.168-.213 3.022-.639.853-.425 1.504-1.012 1.953-1.758.448-.747.673-1.607.673-2.58 0-3.682-2.033-5.523-6.097-5.523H8.842v-6.122h4.117c1.795 0 3.158-.451 4.09-1.355.933-.903 1.4-2.145 1.4-3.725 0-1.372-.427-2.488-1.28-3.348-.854-.86-2.107-1.29-3.761-1.29-.88 0-1.698.166-2.455.496-.757.33-1.36.799-1.808 1.406-.449.608-.673 1.312-.673 2.11H.502c0-2.049.567-3.86 1.702-5.431 1.135-1.572 2.67-2.783 4.605-3.634C8.745.426 10.874 0 13.196 0c2.64 0 4.954.412 6.942 1.237 1.988.825 3.532 2.05 4.632 3.674 1.1 1.624 1.65 3.6 1.65 5.927 0 1.684-.515 3.256-1.545 4.715-1.029 1.459-2.459 2.605-4.288 3.439 2.093.747 3.686 1.876 4.777 3.387z"/>
</svg>
