<svg xmlns="http://www.w3.org/2000/svg" width="45" height="45" viewBox="0 0 45 45">
    <path fill="#fff" fill-rule="nonzero" d="M.078 24.326c3.02-2.648 8.242-3.418 11.876-1.687.136.065.273.136.41.21-3.224 4.432-5.728 9.268-7.15 14.134A22.602 22.602 0 0 1 .079 24.326zm9.08-14.462a167.489 167.489 0 0 1 8.1 7.137 56.768 56.768 0 0 0-3.96 4.603 9.777 9.777 0 0 0-.697-.37C8.747 19.398 3.53 19.963 0 22.427A22.618 22.618 0 0 1 6.06 7.042L9.16 9.864zM23.523.043c4.57.292 8.764 2.003 12.168 4.702-4.264 1.427-8.502 3.81-12.431 6.852-1.74-3.338-1.568-8.227.263-11.554zm9.593 34.006l4.042 4.921a22.252 22.252 0 0 1-4.265 3.162c-2.827.584-6.041.015-8.902-1.662-3.86-2.263-6.268-6.02-6.448-10.058.215-3.381-.844-6.123-3.006-7.938a54.418 54.418 0 0 1 3.824-4.44 169.282 169.282 0 0 1 14.755 16.015zm3.959-28.115a22.619 22.619 0 0 1 7.162 16.558c0 1.722-.198 3.396-.56 5.008-.397-2.017-1.243-4.024-2.508-5.85-2.585-3.73-6.405-5.968-10.48-6.14l-.041-.001-.042.002c-3.317.227-5.319-1.11-6.52-2.634 4.096-3.179 8.54-5.611 12.989-6.943zm-13.846 35.88a15.091 15.091 0 0 0 5.943 1.998 21.679 21.679 0 0 1-7.054 1.18c-6.132 0-11.688-2.553-15.698-6.667 1.318-5.025 3.862-10.046 7.19-14.617 1.445 1.232 2.633 3.27 2.408 6.643l-.002.042.001.043c.187 4.587 2.882 8.841 7.212 11.378zm16.693-19.27c1.976 2.854 2.815 6.174 2.373 9.15a22.596 22.596 0 0 1-4.052 6.177l-3.953-4.813a170.774 170.774 0 0 0-14.845-16.12 53.206 53.206 0 0 1 3.443-3.103c1.81 2.303 4.51 3.44 7.779 3.227 3.582.165 6.953 2.162 9.255 5.482zM7.146 5.948C11.022 2.316 16.172.074 21.829 0c-1.746 3.741-1.791 8.74.087 12.333.04.08.087.153.13.23a55.313 55.313 0 0 0-3.706 3.342 168.755 168.755 0 0 0-8.192-7.222L7.146 5.948z"/>
</svg>
