<svg xmlns="http://www.w3.org/2000/svg" width="51" height="54" viewBox="0 0 51 54">
    <path fill="#fff" fill-rule="nonzero" d="M30.713 21.598l.166.207c.113.139.231.272.349.405-1.525 1.953-3.126 4.17-4.264 6.487a18.119 18.119 0 0 1 3.11 2.22c3.64 3.19 7.592 8.94 10.11 19.053.438 1.749-.664 3.511-2.46 3.937a3.44 3.44 0 0 1-.793.093c-1.507 0-2.875-1-3.248-2.49-2.152-8.603-5.23-13.028-7.617-15.319-.67-.64-1.293-1.12-1.84-1.482-.22.443-.47.913-.754 1.402-1.535 2.633-4.12 5.883-8.318 8.088-2.788 1.468-6.266 2.418-10.356 2.413-.543 0-1.092-.017-1.65-.049-1.844-.106-3.251-1.648-3.142-3.445.109-1.797 1.692-3.167 3.536-3.061.436.025.854.037 1.256.037 2.958-.005 5.198-.633 7.01-1.544 1.808-.914 3.201-2.141 4.284-3.43 1.289-1.523 2.1-3.138 2.551-4.223-.953-1.092-1.447-2.638-.783-4.967 1.496-4.037 2.932-6.67 5.196-9.34a8.29 8.29 0 0 0-1.843.847c-1.542.953-3.202 2.62-4.695 5.655a2.148 2.148 0 0 1-1.934 1.187c-.309 0-.623-.065-.92-.204-1.068-.496-1.52-1.741-1.01-2.78 1.757-3.593 3.952-5.96 6.27-7.383a12.541 12.541 0 0 1 6.638-1.873c.832.003 1.589.08 2.257.191 2.424-1.215 4.89-.743 6.294.425 1.39 1.155 1.381 3.348.434 5.202a10.043 10.043 0 0 1-.745-1.311c-.145.299-.286.635-.081.99.156.27.335.55.535.831a9.365 9.365 0 0 0 3.498 2.993c1.368.674 3.118 1.152 5.47 1.154.443 0 .907-.017 1.396-.054 1.179-.088 2.208.77 2.3 1.92.014.187 0 .369-.034.545a2.12 2.12 0 0 1-1.937 1.694 23.07 23.07 0 0 1-1.744.066 19.58 19.58 0 0 1-1.73-.081c-2.195-.194-4.087-.744-5.66-1.526a13.566 13.566 0 0 1-4.255-3.292c-.054-.063-.496-.126-.847-.188zm2.389-6.961l-.317-.314a1.01 1.01 0 0 0-.016-.197 2.664 2.664 0 0 0-.225-.238c-.219.03-.412.472.268.536.068.007.132.018.191.033.035.058.068.118.099.18zm14.3 10.44C49.496 25.805 51 27.75 51 30.043c0 2.915-2.426 5.279-5.42 5.279-2.993 0-5.42-2.363-5.42-5.28 0-1.091.341-2.105.923-2.946.69.072 1.396.11 2.122.11h.02c.573 0 1.167-.023 1.765-.068 1.211-.091 2.172-.96 2.411-2.063zM40.04 9.661c-2.12 2.561-5.861 2.964-8.356.9-2.496-2.066-2.8-5.816-.68-8.378 2.119-2.561 5.86-2.964 8.355-.899 2.496 2.065 2.8 5.815.68 8.377z"/>
</svg>
