<svg xmlns="http://www.w3.org/2000/svg" width="45" height="45" viewBox="0 0 45 45">
    <g fill="#fff" fill-rule="evenodd">
        <path d="M30.869 14.991h-.097c-.71 0-1.285.57-1.285 1.28l-.46 5.764c-.353-.218-.843-.409-.843-.573v-9.003c0-.709-.414-1.272-1.122-1.272h-.098a1.28 1.28 0 0 0-1.284 1.278l-.459 8.325c-.372-.05.11-.093-.842-.12V9.795c0-.71-.415-1.46-1.123-1.46h-.097c-.71 0-1.284.663-1.284 1.372l-.46 10.92c-.39.026-.84.11-.84.161v-9.47c0-.71-.417-2.032-1.127-2.032h-.096c-.71 0-1.284.948-1.284 1.657 0 0-.41 13.551-.898 13.926-.147.112-.296.29-.447.357l-2.838-5.328c-.232-.671-.965-1.001-1.634-.77l-.092.044a1.29 1.29 0 0 0-.791 1.64l3.054 7.973c.79 4.06 4.422 7.132 8.785 7.132 4.816 0 8.659-3.738 8.854-8.424.003-.029-.072-11.227-.072-11.227 0-.71-.41-1.274-1.12-1.274z"/>
        <path fill-rule="nonzero" d="M22.125 0C9.905 0 0 9.906 0 22.125 0 34.345 9.906 44.25 22.125 44.25c12.22 0 22.125-9.906 22.125-22.125C44.232 9.913 34.337.018 22.125 0m0 41.165c-10.516 0-19.04-8.524-19.04-19.04s8.524-19.04 19.04-19.04 19.04 8.524 19.04 19.04c-.008 10.512-8.528 19.032-19.04 19.04"/>
    </g>
</svg>
