<svg xmlns="http://www.w3.org/2000/svg" width="48" height="60" viewBox="0 0 48 60">
    <path fill="#fff" fill-rule="nonzero" d="M38.598 33.431c-.331-.03-.713-.09-.854-.02a9.804 9.804 0 0 1-3.033.88c-.468.06-.955.095-1.477.095-1.449 0-3.06-.252-4.85-.814-.92-.288-1.42-1.234-1.118-2.111.303-.878 1.295-1.355 2.215-1.066 1.492.469 2.73.646 3.753.646 2.084-.016 3.326-.69 4.218-1.488.08-.073-.022-.404-.026-.59-.033-.321.006-4.226 1.686-4.74 1.836-.561 4.61.236 5.922 3.221 1.779 4.114 2.288 6.834 2.043 11.503-.249 1.875-1.087 2.866-2.124 3.397a2.648 2.648 0 0 1-.185.404 3.634 3.634 0 0 0-.073.15c-.07.154-.176.41-.287.755a10.09 10.09 0 0 0-.456 3.062c.01 2.255.644 5.32 3.418 9.047.878 1.175.592 2.807-.64 3.645-1.232.838-2.943.565-3.821-.61-3.253-4.334-4.346-8.423-4.431-11.621-.188.238-.361.49-.516.754-.538.922-.899 1.995-.904 3.426 0 1.314.321 2.952 1.245 4.991.6 1.325-.04 2.863-1.428 3.436a2.846 2.846 0 0 1-1.086.215c-1.06 0-2.07-.59-2.516-1.577-1.166-2.57-1.694-4.927-1.694-7.065-.005-2.324.64-4.36 1.61-5.992.968-1.637 2.228-2.875 3.446-3.8a17.16 17.16 0 0 1 2.663-1.645c.09-1.364-.047-2.797-.294-4.208-.54.43-1.153.834-1.852 1.186-1.692.855-3.84 1.392-6.483 1.392-.402 0-.813-.012-1.234-.037-.967-.056-1.703-.848-1.644-1.77.058-.922.89-1.625 1.856-1.569.355.02.696.03 1.022.03.767 0 1.456-.054 2.078-.15.163.006.326.01.5.01 1.718 0 3.298-.343 4.695-1.02a9.249 9.249 0 0 0 .656-.352zm-12.9-16.52a4.991 4.991 0 0 1-.51.957c-1.476 2.628-3.787 6.34-4.412 9.918a12.75 12.75 0 0 1-.064.24c.53 1.283 1.15 3.425 1.148 6.39.002 3.74-.987 8.744-4.22 14.907-.48.915-1.448 1.445-2.453 1.445-.412 0-.83-.09-1.223-.277-1.353-.645-1.902-2.215-1.225-3.506 2.012-3.843 2.984-7.02 3.391-9.563a17.505 17.505 0 0 1-3.574 2.962c-2.424 1.528-5.55 2.701-9.449 3.2-1.5.194-2.88-.81-3.082-2.24-.202-1.43.85-2.746 2.35-2.94 3.076-.397 5.313-1.256 7.001-2.283 1.686-1.029 2.84-2.24 3.668-3.438a11.806 11.806 0 0 0 1.718-3.786c-.917-.743-1.525-1.902-1.31-3.825.572-2.955 1.253-5.057 2.39-7.141a10.384 10.384 0 0 0-1.657 1.643c-1.044 1.304-1.894 3.002-2.285 5.328-.138.823-.883 1.41-1.73 1.41-.092 0-.185-.008-.278-.022-.956-.145-1.608-1.003-1.456-1.915.471-2.836 1.569-5.1 2.963-6.834 1.392-1.736 3.06-2.938 4.64-3.763 3.17-1.644 5.988-1.834 6.136-1.85.175-.011.346.002.509.037.768.005 1.479.193 2.046.512.607-.183 1.677-.225 2.236-.546 2.485-1.437 5.268-3.79 6.741-7.627.242-.632.843-1.038 1.502-1.09.246-.02.5.008.747.094.91.318 1.377 1.278 1.044 2.146-.222.58-.47 1.132-.738 1.658-1.919 3.772-4.903 6.2-7.484 7.682-1.014.583-2.245 1.752-3.08 2.117zM38.79.057c2.418-.381 4.703 1.179 5.104 3.486.4 2.306-1.235 4.486-3.654 4.868a4.579 4.579 0 0 1-3.649-.992c.3-.575.574-1.181.82-1.822.415-1.083-.17-2.286-1.305-2.681a2.279 2.279 0 0 0-.753-.128h-.007c.53-1.388 1.807-2.472 3.444-2.73zM28.9 9.393c-1.37 2.353-4.3 3.201-6.545 1.895-2.244-1.307-2.954-4.274-1.584-6.627 1.37-2.353 4.3-3.201 6.545-1.894C29.56 4.073 30.27 7.04 28.9 9.393zm10.37 14.445c-2.606.79-5.33-.583-6.084-3.068-.754-2.485.747-5.141 3.353-5.932 2.606-.79 5.33.583 6.084 3.068.754 2.485-.747 5.141-3.353 5.932z"/>
</svg>
