<svg xmlns="http://www.w3.org/2000/svg" width="41" height="47" viewBox="0 0 41 47">
    <g fill="#fff" fill-rule="nonzero">
        <path d="M18.532 18.207c-.831.16-1.73.296-2.703.405a52.456 52.456 0 0 1-4.804.292 66.94 66.94 0 0 1-2.056.005c-1.316-.018-2.14-.07-2.15-.07a2.111 2.111 0 0 1-1.98-2.232 2.115 2.115 0 0 1 2.245-1.97l.186.01a46.143 46.143 0 0 0 2.084.055c-.803-.943-1.902-1.5-2.98-1.245-1.813.43-3.689 2.495-3.208 5.72.686 4.43 1.691 7.026 4.343 10.927.639.8 1.283 1.296 1.92 1.575l-.861 6.236-6.93 3.987a2.623 2.623 0 0 0-.964 3.596 2.65 2.65 0 0 0 2.294 1.314c.45 0 .906-.115 1.324-.355l8.05-4.632a2.643 2.643 0 0 0 1.296-1.92l.924-6.692c.765.572 1.62 1.272 2.511 2.11a30.06 30.06 0 0 1 6.976 9.902 2.654 2.654 0 0 0 3.483 1.366 2.626 2.626 0 0 0 1.375-3.462 35.327 35.327 0 0 0-9.528-12.82c-2.276-1.928-4.207-3.067-5.152-3.573-1.45-2.215-2.372-5.005-3.084-7.429.768.098 1.603.16 2.495.162h.01c1.684 0 3.569-.226 5.535-.84a.957.957 0 0 1-.65-.422zM20.386 17.773a.87.87 0 0 1-.315.555c.543-.2 1.09-.431 1.64-.697.268-.13.486-.32.646-.547a2.154 2.154 0 0 1-.148.07 16.38 16.38 0 0 1-1.823.62zM23.507 15.079c4.06-2.175 10.867-5.653 16.368-9.395l.007-.004.176-.11c.225-.138.278-.457.119-.71l-.863-1.377c-.16-.254-.47-.347-.694-.208l-.177.109-.007.005c-5.722 3.211-11.77 7.668-15.538 10.345.187.19.344.411.451.667.092.22.143.448.158.678z"/>
        <path d="M9.676 15.125a58.865 58.865 0 0 1-2.428-.058l-.19-.01a1.691 1.691 0 0 0-1.797 1.576 1.694 1.694 0 0 0 1.587 1.785c.01.001.19.012.507.026a61.155 61.155 0 0 0 3.55.041c1.447-.023 3.144-.1 4.877-.291a35.01 35.01 0 0 0 2.507-.369 22.688 22.688 0 0 0 1.714-.386 15.72 15.72 0 0 0 2.042-.674c.24-.099.442-.247.605-.426.132-.144.237-.309.311-.487.072-.172.113-.357.124-.546a1.663 1.663 0 0 0-.535-1.325 1.693 1.693 0 0 0-1.807-.325c-1.39.58-3.357.974-5.337 1.19-1.983.22-3.989.28-5.533.28h-.197zM2.652 12.319c2.358 1.16 5.216.201 6.385-2.142A4.692 4.692 0 0 0 9.36 6.82c-.632.09-1.311.17-2.02.236-1.77.163-3.376.206-4.527.141a35.843 35.843 0 0 0 3.824-.553 40.396 40.396 0 0 0 2.453-.557c1.215-.317 2.207-.65 2.826-.943.471-.224.726-.425.695-.58-.08-.402-2.028-.372-4.62.025a4.768 4.768 0 0 0-1.11-.758C4.523 2.671 1.664 3.63.496 5.973a4.722 4.722 0 0 0 2.156 6.346z"/>
        <ellipse cx="30.988" cy="2.59" rx="2.012" ry="2"/>
    </g>
</svg>
