<svg xmlns="http://www.w3.org/2000/svg" width="38" height="55" viewBox="0 0 38 55">
    <g fill="#fff" fill-rule="nonzero">
        <path fill="#fff" d="M20.657 16.163l-.225.302-.023.025c.367.065.722.13 1.06.195a5.129 5.129 0 0 1-.812-.522z"/>
        <path fill="#fff" d="M37.657 50.985c-3.825-8.343-7.845-12.794-10.319-14.952.773-4.252 1.29-10.578 1.364-14.665a7.55 7.55 0 0 0 1.013-.465 4.5 4.5 0 0 0 1.062-.796c.18-.189.362-.419.51-.718.149-.296.259-.673.258-1.079a2.454 2.454 0 0 0-.31-1.181c-.34-.607-.819-1.001-1.38-1.354-.478-.293-1.047-.56-1.736-.82a5.13 5.13 0 0 1-.473.604c-.041.045-.078.093-.12.137a5.106 5.106 0 0 1-3.43 1.553c.7.168 1.305.333 1.821.49l-5.433.865c-.107.022-.12.022-.132.024 0 0-.049.006-.14.006-.289.003-.823-.075-1.193-.393-.194-.164-.392-.392-.573-.832-.163-.404-.3-1-.321-1.848.131.198.304.369.509.497a.923.923 0 0 1-.022-.293c-.002-.151-.064-.362-.332-.54l-.155-.117c.004-.16.01-.328.022-.504.134.097.26.19.365.273.413.273.523.633.52.91a.46.46 0 0 0 .175.43l.114.085c.213.158.393.165.55.093a.574.574 0 0 0 .224-.18l.242-.325c-.694-.665-1.139-1.379-1.395-2.162a21.549 21.549 0 0 1-.69-.535 1.678 1.678 0 0 0-1.785-1.477C12.964 8.761 7.35 3.856 1.957.212a66.54 66.54 0 0 0-.171-.128c-.21-.156-.525-.089-.703.15L.118 1.526c-.178.238-.152.557.059.713l.165.123c4.86 3.932 10.89 7.72 14.771 10.219a1.662 1.662 0 0 0-.192.575c-.109.789-.16 1.512-.16 2.178 0 1.306.197 2.403.569 3.324.547 1.386 1.541 2.314 2.498 2.774a5.265 5.265 0 0 0 1.433.463 34.392 34.392 0 0 1-1.438 12.532c-.258.839.162 1.755.986 2.057.412.147.785.274 1.137.39.43 1.163.795 2.623.792 4.112-.005 1.48-.327 2.962-1.276 4.457-.956 1.49-2.594 3.06-5.507 4.493a2.61 2.61 0 0 0-1.194 3.5 2.626 2.626 0 0 0 3.514 1.19c3.586-1.755 6.072-3.955 7.615-6.376a13.24 13.24 0 0 0 2.058-6.215c1.924 2.171 4.426 5.672 6.935 11.124a2.626 2.626 0 0 0 3.479 1.29 2.61 2.61 0 0 0 1.295-3.465z"/>
        <path fill="#fff" d="M27.115 8.753a4.737 4.737 0 0 0-6.679.108 4.682 4.682 0 0 0-.876 5.271c.237.502.562.972.986 1.38.014.015.03.026.044.04a4.737 4.737 0 0 0 6.634-.147 4.72 4.72 0 0 0 .486-.598c.658-.945.93-2.071.816-3.166-.53.074-1.09.142-1.669.2-1.753.174-3.344.227-4.485.171a35.414 35.414 0 0 0 3.785-.576 40.746 40.746 0 0 0 2.635-.625c1.107-.306 2.012-.62 2.587-.9.466-.225.717-.427.686-.581-.075-.365-1.707-.36-3.957-.038-.153.022-.308.045-.466.07a4.736 4.736 0 0 0-.527-.61z"/>
    </g>
</svg>
