<svg xmlns="http://www.w3.org/2000/svg" width="37" height="42" viewBox="0 0 37 42">
    <g fill="#fff" fill-rule="nonzero">
        <path d="M36.556 35.855a1.55 1.55 0 0 0-2.153 0l-.538.526L8.254 7.118c-1.784-1.746-4.678-1.746-6.46 0a4.398 4.398 0 0 0 0 6.318l29.918 25.051-.539.527a1.469 1.469 0 0 0 0 2.106 1.554 1.554 0 0 0 2.153 0l3.23-3.159c.592-.58.592-1.53 0-2.106z"/>
        <path d="M.9 35.855a1.55 1.55 0 0 1 2.153 0l.539.526 25.61-29.263c1.785-1.746 4.678-1.746 6.46 0a4.398 4.398 0 0 1 0 6.318L5.744 38.487l.539.527c.592.579.595 1.526 0 2.106a1.554 1.554 0 0 1-2.153 0L.9 37.961a1.472 1.472 0 0 1 0-2.106zM18.88 0c-1.683 0-3.045 1.333-3.045 2.978 0 1.646 1.362 2.98 3.045 2.98 1.68 0 3.045-1.334 3.045-2.98C21.925 1.333 20.561 0 18.88 0z"/>
    </g>
</svg>
