<svg xmlns="http://www.w3.org/2000/svg" width="42" height="40" viewBox="0 0 42 40">
    <g fill="#fff" fill-rule="nonzero" stroke="#fff" stroke-width=".713">
        <path d="M10.185 17.892c-5.622.69-9.617 5.96-8.906 11.747.71 5.788 5.862 9.935 11.483 9.245 5.621-.69 9.616-5.96 8.906-11.748-.71-5.787-5.862-9.934-11.483-9.244zm.122.993c3.035-.373 5.92.813 7.89 2.943a14.9 14.9 0 0 1-1.377.622l-.398-.826a.483.483 0 0 0-.651-.23.504.504 0 0 0-.219.669l.349.723c-.537.181-1.1.348-1.685.495l-.173-.704a.49.49 0 0 0-.591-.366.497.497 0 0 0-.351.605l.169.685c-.593.126-1.2.235-1.818.323l-.085-.694a.493.493 0 0 0-.543-.437.493.493 0 0 0-.421.555l.085.695c-.654.07-1.303.116-1.94.138l-.002-.706c0-.276-.219-.5-.487-.502a.49.49 0 0 0-.485.498l.002.726a22.682 22.682 0 0 1-1.754-.073l.164-.787a.504.504 0 0 0-.374-.596.483.483 0 0 0-.577.38l-.186.899c-.524-.07-1.022-.16-1.486-.27 1.396-2.544 3.908-4.393 6.944-4.765zM2.924 24.56a15.4 15.4 0 0 0 1.721.34l-.14.675a.504.504 0 0 0 .374.596.488.488 0 0 0 .577-.38l.161-.78c.63.056 1.285.087 1.961.088l.002.697a.497.497 0 0 0 .548.499.491.491 0 0 0 .424-.494l-.002-.72a28.519 28.519 0 0 0 2.059-.15l.087.707c.033.274.276.47.543.437a.493.493 0 0 0 .421-.555l-.087-.71a28.381 28.381 0 0 0 1.936-.338l.173.699a.49.49 0 0 0 .59.366.497.497 0 0 0 .352-.605l-.167-.677a22.812 22.812 0 0 0 1.882-.56l.345.717a.487.487 0 0 0 .651.23.504.504 0 0 0 .22-.67l-.3-.62a15.4 15.4 0 0 0 1.587-.746 9.726 9.726 0 0 1 1.86 4.648 9.729 9.729 0 0 1-.68 4.96 15.4 15.4 0 0 0-1.72-.34l.14-.676a.504.504 0 0 0-.375-.595.482.482 0 0 0-.576.38l-.162.78a22.946 22.946 0 0 0-1.961-.088l-.002-.698c0-.276-.218-.5-.487-.502a.489.489 0 0 0-.485.498l.002.72c-.641.023-1.297.071-1.96.14l-.088-.71a.493.493 0 0 0-.543-.437.493.493 0 0 0-.421.556l.087.708c-.695.096-1.376.212-2.034.352l-.173-.7a.49.49 0 0 0-.59-.365.498.498 0 0 0-.352.605l.167.677c-.656.165-1.284.354-1.882.56l-.345-.717a.482.482 0 0 0-.652-.23.504.504 0 0 0-.218.669l.3.621c-.57.23-1.099.48-1.588.746a9.735 9.735 0 0 1-1.86-4.648 9.73 9.73 0 0 1 .68-4.96zm9.716 13.33c-3.036.373-5.92-.814-7.89-2.943.424-.22.886-.428 1.376-.622l.398.826a.487.487 0 0 0 .652.23c.24-.122.338-.421.219-.67l-.349-.723c.536-.18 1.1-.347 1.684-.494l.174.704a.491.491 0 0 0 .59.366.498.498 0 0 0 .352-.606l-.169-.685a26.95 26.95 0 0 1 1.916-.335l.085.695c.034.274.277.47.543.437a.493.493 0 0 0 .421-.556l-.085-.694a27.223 27.223 0 0 1 1.842-.126l.002.705a.497.497 0 0 0 .547.499.49.49 0 0 0 .424-.494l-.002-.726c.604.002 1.19.027 1.754.072l-.163.787a.504.504 0 0 0 .374.596.487.487 0 0 0 .576-.38l.187-.899c.523.07 1.022.16 1.486.27-1.396 2.544-3.908 4.393-6.944 4.766zM29.985 1.27c-5.622.69-9.617 5.96-8.906 11.748.71 5.787 5.862 9.934 11.483 9.244 5.621-.69 9.616-5.96 8.906-11.748-.71-5.787-5.862-9.934-11.483-9.244zm.122.993c3.035-.373 5.92.813 7.89 2.943a14.9 14.9 0 0 1-1.377.622l-.398-.826a.483.483 0 0 0-.651-.23.504.504 0 0 0-.219.669l.349.724c-.537.18-1.1.347-1.685.495l-.173-.705a.49.49 0 0 0-.591-.366.497.497 0 0 0-.351.605l.169.685c-.593.127-1.2.235-1.818.323l-.085-.694a.493.493 0 0 0-.543-.437.493.493 0 0 0-.421.556l.085.695c-.654.07-1.303.115-1.94.137l-.002-.705c0-.276-.219-.501-.487-.502a.49.49 0 0 0-.485.497l.002.726a22.682 22.682 0 0 1-1.754-.073l.164-.786a.504.504 0 0 0-.374-.596.483.483 0 0 0-.577.38l-.186.898c-.524-.07-1.022-.16-1.486-.27 1.396-2.543 3.908-4.392 6.944-4.765zM22.724 7.94a15.4 15.4 0 0 0 1.721.339l-.14.676a.504.504 0 0 0 .374.595c.055.013.11.015.162.009.2-.025.37-.176.414-.389l.162-.78c.63.056 1.285.087 1.961.088l.002.698a.497.497 0 0 0 .548.498.491.491 0 0 0 .424-.494l-.002-.72a28.519 28.519 0 0 0 2.059-.15l.087.707c.033.275.276.47.543.437a.493.493 0 0 0 .421-.555l-.087-.71a28.381 28.381 0 0 0 1.936-.338l.173.7a.49.49 0 0 0 .59.365.497.497 0 0 0 .352-.605l-.167-.677a22.812 22.812 0 0 0 1.882-.56l.345.717a.487.487 0 0 0 .651.23.504.504 0 0 0 .22-.669l-.3-.621a15.4 15.4 0 0 0 1.587-.746 9.726 9.726 0 0 1 1.86 4.648 9.729 9.729 0 0 1-.68 4.96 15.4 15.4 0 0 0-1.72-.34l.14-.675a.504.504 0 0 0-.375-.596.482.482 0 0 0-.576.38l-.162.78a22.946 22.946 0 0 0-1.961-.088l-.002-.697c0-.276-.218-.501-.487-.502a.489.489 0 0 0-.485.497l.002.72c-.641.023-1.297.072-1.96.14l-.088-.71a.493.493 0 0 0-.543-.436.493.493 0 0 0-.421.555l.087.708c-.695.096-1.376.212-2.034.353l-.173-.7a.49.49 0 0 0-.59-.365.498.498 0 0 0-.352.605l.167.677c-.656.165-1.284.353-1.882.56l-.345-.718a.482.482 0 0 0-.652-.23.504.504 0 0 0-.218.67l.3.62c-.57.23-1.099.48-1.588.746a9.735 9.735 0 0 1-1.86-4.648 9.73 9.73 0 0 1 .68-4.96zm9.716 13.33c-3.036.372-5.92-.814-7.89-2.944.424-.22.886-.427 1.376-.622l.398.826a.487.487 0 0 0 .652.23c.24-.121.338-.42.219-.669l-.349-.723c.536-.181 1.1-.347 1.684-.495l.174.705a.491.491 0 0 0 .59.365.498.498 0 0 0 .352-.605l-.169-.685a26.95 26.95 0 0 1 1.916-.336l.085.695c.034.274.277.47.543.437a.493.493 0 0 0 .421-.555l-.085-.694a27.223 27.223 0 0 1 1.842-.127l.002.706a.497.497 0 0 0 .547.498.49.49 0 0 0 .424-.493l-.002-.727c.604.002 1.19.027 1.754.073l-.163.786a.504.504 0 0 0 .374.596.487.487 0 0 0 .576-.38l.187-.898c.523.07 1.022.16 1.486.27-1.396 2.544-3.908 4.393-6.944 4.765z"/>
    </g>
</svg>
