<svg xmlns="http://www.w3.org/2000/svg" width="55" height="43" viewBox="0 0 55 43">
    <g fill="#fff" fill-rule="nonzero">
        <path d="M38.701 22.667c.105-.234-.865-.747-.656-.906a1.549 1.549 0 0 1 .727-.303c2.594-3.346 9.562-13.249 13.73-17.58l.13-.15c.16-.18.458-.18.664 0l1.12.986c.207.182.244.475.084.657l-.125.142c-3.633 4.491-11.19 13.463-14.214 16.468.084.099.159.208.218.33.024.05-1.785.595-1.678.356z"/>
        <path d="M4.011 41.99l12.888-14.81 5.369 3.304-7.477 5.079a1.829 1.829 0 0 0-.573 2.35c.465.885 1.544 1.224 2.41.76l11.443-6.147c.296-.16.571-.392.784-.683a2.432 2.432 0 0 0-.495-3.358l-.196-.149-6.628-5.031 6.5-7.107a5.04 5.04 0 0 0 .215-.257l4.165 5.193c.457.57 1.188.834 1.892.685l9.208-1.957c1.037-.22 1.696-1.256 1.472-2.313-.225-1.056-1.248-1.734-2.286-1.513l-8.059 1.713-3.961-4.94a1.963 1.963 0 0 0-.327-.322l-1.571-1.22c-.028-.06-.054-.121-.085-.181.335.016.677-.005 1.02-.078 2.184-.464-5.284-5.412-4.811-3.187.041.196.1.383.167.567l-1.377-1.07a1.927 1.927 0 0 0-.617-.32l-6.626-2.034a1.89 1.89 0 0 0-1.553.2l-8.4 5.213c-.903.56-1.183 1.762-.625 2.685a1.911 1.911 0 0 0 2.645.655l7.67-4.76 5.03 1.544c-.013.018-2.34 3.453-6.98 10.307-.082.12-.143.247-.208.374-.016.021-4.29 6.207-12.82 18.557a1.836 1.836 0 0 0 .284 2.398c.738.666 1.864.6 2.513-.146z"/>
        <path d="M35.589 3.993a37.36 37.36 0 0 0-.49-.198 4.754 4.754 0 0 0-7.146-2.58 4.74 4.74 0 0 0-1.373 6.568 4.753 4.753 0 0 0 8.53-1.261 35.43 35.43 0 0 0-1.826-.925c-1.604-.75-3.007-1.522-3.963-2.158.961.462 2.198.97 3.568 1.448a40.045 40.045 0 0 0 2.803.868c.604.16 1.153.286 1.625.373 1.023.188 1.687.193 1.765-.029.126-.36-1.33-1.213-3.493-2.106z"/>
    </g>
</svg>
