<svg xmlns="http://www.w3.org/2000/svg" width="41" height="41" viewBox="0 0 41 41">
    <path fill="#fff" fill-rule="nonzero" d="M9.873 1.696c-.185.006-.374.013-.566.022A5 5 0 0 0 8.226.786C5.873-.716 2.725-.02 1.193 2.34-.337 4.7.328 7.832 2.681 9.333c2.353 1.502 5.5.807 7.032-1.554a5.062 5.062 0 0 0 .78-3.412c-.693-.05-1.43-.089-2.186-.1-1.896-.026-3.602-.163-4.814-.362 1.142.028 2.572-.02 4.12-.155a43.107 43.107 0 0 0 3.121-.385c.66-.108 1.252-.227 1.753-.35 1.083-.265 1.736-.55 1.716-.8-.031-.406-1.827-.598-4.33-.519zm-2.256 8.355a4.147 4.147 0 0 0-1.604.325 4.056 4.056 0 0 0-2.181 5.35l3.104 7.346c.247.683.235.803.184 1.455l-.795 4.695c-.306 1.472-.7 2.24-1.552 3.142L.84 36.232a2.77 2.77 0 0 0-.03 3.943 2.842 2.842 0 0 0 3.988.016l.56-.573 4.638-4.566c.66-.691 1.216-1.18 1.533-3.025l.59-3.434 4.534 10.685a2.797 2.797 0 1 0 5.157-2.165c-2.264-5.34-6.732-15.913-6.777-16.02L22.09 18.2c.495-.203.852-.483 1.09-.804l15.408 5.737c2.41.897 3.47-2.474 1.013-3.232L23.71 15.99c-.012-.754-.473-1.534-1.543-1.918l-10.5-3.758c-.498-.172-1.317-.263-1.823-.263H7.617zm30.846 4.377c-1.105 0-2.01.898-2.01 1.995.001 1.103.906 1.994 2.01 1.994a2 2 0 0 0 2.01-1.994 2.004 2.004 0 0 0-2.01-1.995zm-26.14.278l4.252 1.516-3.069 1.268-1.184-2.784z"/>
</svg>
