<svg xmlns="http://www.w3.org/2000/svg" width="46" height="50" viewBox="0 0 46 50">
    <g fill="#fff" fill-rule="nonzero">
        <path d="M36.556 43.855a1.55 1.55 0 0 0-2.153 0l-.538.526L8.254 15.118c-1.784-1.746-4.678-1.746-6.46 0a4.398 4.398 0 0 0 0 6.318l29.918 25.051-.539.527a1.469 1.469 0 0 0 0 2.106 1.554 1.554 0 0 0 2.153 0l3.23-3.159c.592-.58.592-1.53 0-2.106zM45.556 34.855a1.55 1.55 0 0 0-2.153 0l-.538.526L17.254 6.118c-1.784-1.746-4.678-1.746-6.46 0a4.398 4.398 0 0 0 0 6.318l29.918 25.051-.539.527a1.469 1.469 0 0 0 0 2.106 1.554 1.554 0 0 0 2.153 0l3.23-3.159c.592-.58.592-1.53 0-2.106z"/>
        <path d="M2.9 41.855a1.55 1.55 0 0 1 2.153 0l.539.526 25.61-29.263c1.785-1.746 4.678-1.746 6.46 0a4.398 4.398 0 0 1 0 6.318L7.744 44.487l.539.527c.592.579.595 1.526 0 2.106a1.554 1.554 0 0 1-2.153 0L2.9 43.961a1.472 1.472 0 0 1 0-2.106zM27.88 0c-1.683 0-3.045 1.333-3.045 2.978 0 1.646 1.362 2.98 3.045 2.98 1.68 0 3.045-1.334 3.045-2.98C30.925 1.333 29.561 0 27.88 0z"/>
    </g>
</svg>
