<svg xmlns="http://www.w3.org/2000/svg" width="40" height="43" viewBox="0 0 40 43">
    <g fill="#fff" fill-rule="nonzero">
        <path d="M28.013 3.608c.041-.363-1.493-.855-3.692-1.235a33.27 33.27 0 0 0-.494-.081 4.509 4.509 0 0 0-7.175-.909 4.555 4.555 0 0 0 .105 6.421A4.508 4.508 0 0 0 23.15 7.7a4.531 4.531 0 0 0 1.26-2.863 33.34 33.34 0 0 0-1.887-.48c-1.647-.363-3.111-.79-4.133-1.182.99.23 2.244.443 3.617.602a38.112 38.112 0 0 0 2.785.222c.594.023 1.13.025 1.586.007.99-.04 1.608-.174 1.634-.397zM19.717 32.86c1.43-2.023 2.082-3.867 2.364-5.253l1.523-.186c.773.253 2.637 1.008 4.787 2.966 2.203 2.012 4.735 5.292 6.682 10.769a2.514 2.514 0 0 0 2.367 1.677c.28 0 .565-.047.844-.147a2.526 2.526 0 0 0 1.523-3.224c-2.585-7.306-6.335-11.631-9.533-14.06-1.476-1.124-2.822-1.847-3.871-2.304L24.8 12.752c.122-.004.25-.007.382-.007 1.16 0 2.684.203 4.218.983.981.501 1.982 1.232 2.928 2.343a3.832 3.832 0 0 1 1.255-1.361c.43-.29.873-.482 1.32-.58-1.258-1.517-2.66-2.583-4.053-3.286-2.101-1.065-4.143-1.329-5.668-1.33a12.26 12.26 0 0 0-2.261.204 1.643 1.643 0 0 0-.23.017l-8.013 1.252c-.181.028-.35.087-.504.169-.113.049-.223.11-.326.188l-.003.002c-.185.135-2.822 1.942-6.903 1.935-1.214 0-2.56-.156-4.032-.562a1.607 1.607 0 0 0-1.977 1.128l-.002.008c.298-.14.628-.221.977-.221a2.319 2.319 0 0 1 2.284 2.658c.963.15 1.883.219 2.75.219 3.109-.006 5.521-.83 7.035-1.546l3.264 10.595c.002.05.003.101.008.152 0 .011.002.036.002.075-.009.37-.067 1.912-1.64 4.159-1.577 2.24-4.752 5.231-11.198 8.153a2.528 2.528 0 0 0-1.257 3.338 2.513 2.513 0 0 0 2.292 1.487c.346 0 .696-.072 1.031-.224 7.045-3.19 11.028-6.703 13.237-9.84z"/>
        <path d="M1.91 14.038A1.917 1.917 0 0 0 0 15.956c0 1.059.855 1.918 1.91 1.918a1.91 1.91 0 0 0 1.888-1.647 1.914 1.914 0 0 0-1.888-2.189zM32.712 16.548c-.461 1.058-.317 2.47.828 4.18 1.747 2.617 7.242-1.088 5.494-3.704-1.238-1.852-2.539-2.52-3.73-2.39a3.124 3.124 0 0 0-1.41.54c-.525.354-.938.815-1.182 1.374zm4.715.26c.725.614 1.223 1.222 1.11 1.356-.114.134-.793-.255-1.52-.87a9.28 9.28 0 0 1-.197-.173c-.615-.551-1.014-1.061-.912-1.183.04-.047.151-.028.31.041.29.128.739.43 1.209.828zm-2.481.031c.14-.106.716.426 1.287 1.187.127.169.242.335.344.492.357.552.546.997.437 1.079-.105.079-.457-.202-.868-.67a8.614 8.614 0 0 1-.42-.518c-.57-.761-.92-1.465-.78-1.57zm-1.319.587c.156-.081.637.538 1.075 1.383.057.11.11.217.16.322.331.707.488 1.286.353 1.357-.155.08-.637-.539-1.074-1.385a7.175 7.175 0 0 1-.476-1.114c-.096-.31-.116-.523-.038-.563z"/>
    </g>
</svg>
