<svg xmlns="http://www.w3.org/2000/svg" width="50" height="41" viewBox="0 0 50 41">
    <g fill="#fff" fill-rule="nonzero">
        <ellipse cx="21.712" cy="4.864" rx="21.329" ry="4.436" transform="translate(6.695 31.143)"/>
        <path d="M18.974 8.678l-6.726-7.432c-.274-.323-.777-.34-1.109-.068a.78.78 0 0 0-.231.763c.03.113.09.22.178.318l5.324 5.918a8.653 8.653 0 0 1 2.564.501zM11.873 9.148L4.262.735C3.988.412 3.485.395 3.153.666c-.231.184-.3.507-.232.763.03.114.09.22.179.318l7.442 8.246a8.898 8.898 0 0 1 1.331-.845zM9.59 10.857l-5.759-6.38c-.273-.323-.776-.34-1.108-.069a.78.78 0 0 0-.232.763c.03.114.09.22.179.318l5.936 6.577c.294-.414.617-.836.984-1.209zM1.491 10.04C1.218 9.719.715 9.7.383 9.973a.78.78 0 0 0-.232.763c.03.114.09.22.179.318l7.124 7.874a8.21 8.21 0 0 1-.263-2.611l-5.7-6.275z"/>
        <g stroke="#fff" stroke-width=".648">
            <path d="M25.236 12.953C23.307 8.18 17.769 5.9 12.89 7.871c-4.879 1.971-7.279 7.458-5.35 12.232 1.928 4.774 7.467 7.054 12.346 5.083 4.878-1.972 7.279-7.459 5.35-12.233zm-.837.339c1.042 2.578.688 5.386-.704 7.61-.292-.32-.582-.677-.867-1.063l.626-.541a.44.44 0 0 0 .047-.626.454.454 0 0 0-.635-.036l-.549.475a20.618 20.618 0 0 1-.829-1.364l.573-.316a.444.444 0 0 0 .18-.604.45.45 0 0 0-.61-.167l-.558.307a24.75 24.75 0 0 1-.71-1.52l.585-.236a.446.446 0 0 0 .253-.579.446.446 0 0 0-.584-.24l-.586.236a24.863 24.863 0 0 1-.578-1.67l.615-.166a.45.45 0 0 0 .322-.545.444.444 0 0 0-.548-.31l-.632.171a20.76 20.76 0 0 1-.35-1.556l.724-.04a.454.454 0 0 0 .431-.467.44.44 0 0 0-.468-.418l-.827.046a13.704 13.704 0 0 1-.115-1.368c2.547.634 4.752 2.408 5.794 4.987zm-6.693-5.16c.006.507.042 1.037.11 1.59l-.621.035a.454.454 0 0 0-.432.467.443.443 0 0 0 .468.418l.718-.04c.1.566.228 1.148.386 1.742l-.607.164a.45.45 0 0 0-.306.596.445.445 0 0 0 .531.258l.628-.17c.18.586.387 1.178.617 1.773l-.597.24a.446.446 0 0 0-.253.58.446.446 0 0 0 .584.24l.598-.242c.238.559.488 1.101.752 1.62l-.569.315a.445.445 0 0 0-.18.604.45.45 0 0 0 .611.167l.551-.304c.299.537.611 1.045.933 1.522l-.544.47a.442.442 0 0 0-.047.625.454.454 0 0 0 .635.036l.471-.407c.335.446.678.852 1.025 1.22a8.728 8.728 0 0 1-3.613 2.715 8.73 8.73 0 0 1-4.486.557 14.072 14.072 0 0 0-.11-1.59l.622-.034a.454.454 0 0 0 .43-.466.44.44 0 0 0-.467-.418l-.718.04a21 21 0 0 0-.386-1.743l.608-.163a.449.449 0 0 0 .322-.545.443.443 0 0 0-.548-.31l-.628.17a26.18 26.18 0 0 0-.585-1.689l.599-.242a.447.447 0 0 0 .253-.578.447.447 0 0 0-.584-.24l-.597.24a25.94 25.94 0 0 0-.787-1.703l.569-.314a.444.444 0 0 0 .18-.604.45.45 0 0 0-.611-.167l-.551.304a20.954 20.954 0 0 0-.932-1.522l.543-.47a.439.439 0 0 0 .047-.625.454.454 0 0 0-.635-.037l-.47.408a14.005 14.005 0 0 0-1.026-1.22A8.736 8.736 0 0 1 13.22 8.69a8.731 8.731 0 0 1 4.485-.557zm-9.33 11.633c-1.041-2.578-.687-5.386.705-7.611.291.32.581.678.867 1.063l-.626.542a.442.442 0 0 0-.047.625.454.454 0 0 0 .635.036l.548-.474c.285.429.562.884.83 1.363l-.574.317a.445.445 0 0 0-.18.603.45.45 0 0 0 .611.168l.558-.308c.262.516.512 1.053.744 1.604l-.585.236a.446.446 0 0 0-.253.579.446.446 0 0 0 .583.24l.585-.236c.203.53.384 1.06.546 1.587l-.615.166a.449.449 0 0 0-.306.597.445.445 0 0 0 .531.257l.633-.17c.14.53.257 1.05.35 1.556l-.724.04a.454.454 0 0 0-.43.467c0 .05.012.099.03.144.069.169.24.284.437.273l.827-.046c.062.476.102.935.115 1.368-2.548-.633-4.753-2.408-5.794-4.986z"/>
        </g>
    </g>
</svg>
