<svg xmlns="http://www.w3.org/2000/svg" width="41" height="48" viewBox="0 0 41 48">
    <g fill="#fff" fill-rule="nonzero">
        <path d="M17.313 36.985l-3.82-6.17-2.688 7.293-5.32 7.86c-.866 1.428-1.879 2.33-3.312 1.941C.741 47.523-.252 45.983.41 44.606l5.434-8.739 2.368-8.379c.14-.77-.355-2.01-.355-2.01-.466-1.725-.149-2.75-.149-2.75l1.407-7.84-3.498 2.946-1.437 5.95c-.224 1.246-.92 2.174-2.11 2.184-1.192.01-2.168-1.015-2.06-2.096l1.849-7.392c.228-1.447 1.074-1.929 1.074-1.929l7.655-5.323c4.451-1.659 7.35 1.335 7.35 1.335l3.719 7.21 4.2 3.11c.9.941 1.016 2.261.133 3.063-.76.689-2.212.223-2.936-.503l-3.648-2.696c-.72-.419-2.374-3.757-2.374-3.757l-1.118 7.062c-.188.87.27 1.426.27 1.426l5.735 8.916 1.599 10.228c.375 1.677-.392 2.88-1.724 3.214-1.404.353-2.716-.465-3.061-1.806l-1.42-9.045z"/>
        <path d="M21.729 26.038c4.498-2.373 12.041-6.166 18.137-10.249l.008-.004.195-.12c.249-.15.308-.498.132-.775l-.957-1.502c-.176-.277-.52-.378-.769-.227l-.195.12c-.003 0-.005.003-.008.005-6.34 3.503-13.043 8.365-17.218 11.286.208.206.382.448.5.727.102.239.158.488.175.74zM11.194 8.273c2.072 1.07 4.583.186 5.61-1.973a4.514 4.514 0 0 0 .283-3.093c-.555.083-1.151.157-1.774.218-1.555.15-2.966.19-3.977.13.937-.08 2.104-.252 3.359-.51a34.09 34.09 0 0 0 2.156-.512c1.066-.293 1.938-.599 2.481-.87.414-.205.639-.391.612-.535-.07-.369-1.782-.342-4.059.024a4.187 4.187 0 0 0-.975-.698C12.838-.616 10.327.268 9.3 2.427c-1.025 2.16-.178 4.777 1.894 5.846z"/>
    </g>
</svg>
