<svg xmlns="http://www.w3.org/2000/svg" width="50" height="50" viewBox="0 0 50 50">
    <g fill="#fff" fill-rule="nonzero" stroke="#fff">
        <path d="M44.646 19.261c.512-.349.99-.745 1.429-1.182a9.794 9.794 0 0 0 1.977-2.817c.131-.272.248-.551.35-.836a9.272 9.272 0 0 0 .448-1.698c.047-.268.075-.534.1-.8 0-.007.006-.014.007-.022.001-.009-.002-.016-.001-.025.035-.374.049-.75.04-1.126.002-.055 0-.11-.005-.165a6.27 6.27 0 0 0-.04-.556 1.586 1.586 0 0 0-.017-.192 6.289 6.289 0 0 0-.065-.462 8.094 8.094 0 0 0-.215-.978 9.987 9.987 0 0 0-12.055-7.105 2.76 2.76 0 0 0-.172.047 4.72 4.72 0 0 0-.505.148 3.898 3.898 0 0 0-.653.235 9.99 9.99 0 0 0-5.535 5.522l-.016.04a16.811 16.811 0 0 0-16.684 4.284L1.99 22.626a3.29 3.29 0 0 0-.02 4.684L22.65 48.03a3.332 3.332 0 0 0 4.7 0l19.928-19.943.737-.76a3.292 3.292 0 0 0 .007-4.69l-3.376-3.376zm.298-14.197a8.334 8.334 0 0 1 2.168 3.765c.076.269.136.543.18.82.021.119.038.244.06.44 0 .032.002.064.006.096.02.16.031.32.033.48 0 .02.002.041.004.062v.045c.001.024-.002.05-.001.075-.026-.006-.051-.008-.077-.014l-.056-.014-.048-.427a.802.802 0 0 0-.884-.705.79.79 0 0 0-.688.67c-.36-.127-.71-.274-1.055-.431l.04-.422a.8.8 0 0 0-.718-.872.78.78 0 0 0-.809.503c-.324-.2-.638-.415-.944-.64l.126-.397a.8.8 0 0 0-.522-1.004.79.79 0 0 0-.892.32 13.638 13.638 0 0 1-.795-.82l.205-.362a.8.8 0 0 0-.302-1.09.79.79 0 0 0-.94.13 13.528 13.528 0 0 1-.614-.964l.283-.32a.8.8 0 0 0-.07-1.129.791.791 0 0 0-.953-.063l-.03-.066a8.318 8.318 0 0 1 7.293 2.334zM31.07 8.228c.019-.052.037-.104.06-.156.011-.025.032-.088.04-.114l.04-.094a8.394 8.394 0 0 1 4.669-4.66c.045-.019.093-.036.179-.068l.031-.012c.067.17.139.338.211.506h-.006a.8.8 0 0 0 .322 1.568l.42-.087c.252.439.53.858.821 1.267l-.013.006a.8.8 0 1 0 .642 1.465l.404-.176c.334.374.685.731 1.054 1.07l-.012.01a.8.8 0 1 0 .933 1.3l.359-.258c.402.296.815.577 1.245.833l-.005.006a.8.8 0 1 0 1.183 1.078l.293-.322c.456.206.921.39 1.395.55l-.004.006a.8.8 0 1 0 1.381.808l.216-.37.052.014c.098.02.195.032.293.051l-.002.015a7.84 7.84 0 0 1-.372 1.411c-.084.238-.182.47-.292.697a8.366 8.366 0 0 1-4.059 4.05 6.616 6.616 0 0 1-.68.283c-.149.055-.3.097-.452.141-.014-.04-.024-.077-.038-.116l-.022-.055.336-.268a.8.8 0 1 0-.997-1.252c-.225-.45-.471-.886-.738-1.309l.28-.34a.8.8 0 0 0-1.236-1.017l-.001.002a15.23 15.23 0 0 0-.996-1.12l.208-.4a.8.8 0 1 0-1.418-.738l-.007.012a15.293 15.293 0 0 0-1.2-.897l.12-.432a.8.8 0 0 0-1.542-.428l-.003.012a15.055 15.055 0 0 0-1.359-.637l.027-.436a.8.8 0 0 0-.748-.848.78.78 0 0 0-.849.749v.005a14.95 14.95 0 0 0-.465-.123c.028-.144.043-.288.079-.432l.048-.172c.02-.078.042-.157.068-.24.004-.011.012-.018.016-.028.004-.013.001-.026.005-.04l.046-.143a2.04 2.04 0 0 1 .04-.127zm-.463 2.787l-.008.014v-.015l.008.001zm.194.944a.8.8 0 0 0 1.128-.092l.273-.322c.353.142.697.303 1.036.475a.79.79 0 0 0 .531 1.259.8.8 0 0 0 .592-.16l.325-.252c.317.213.622.44.92.678a.79.79 0 0 0 .262 1.339.8.8 0 0 0 .611-.034l.37-.177c.266.274.523.557.766.853a.79.79 0 0 0-.388.871.8.8 0 0 0 .966.59l.406-.098c.204.323.4.653.576.994a.782.782 0 0 0 .004 1.507c-.142.002-.287.012-.427.006H38.679a4.094 4.094 0 0 1-.481-.033 2.725 2.725 0 0 0-.195-.018c-.12-.014-.239-.028-.38-.053-.272-.042-.54-.1-.804-.175a8.371 8.371 0 0 1-6.177-7.361.783.783 0 0 0 .16.203zm16.08 14.238L26.219 46.898c-.675.67-1.763.67-2.438 0L3.871 26.974l-.769-.792a1.692 1.692 0 0 1 .007-2.413l11.058-11.065a15.223 15.223 0 0 1 15.087-3.885 10.052 10.052 0 0 0 2.676 9.26 9.929 9.929 0 0 0 4.468 2.582c.316.09.637.16.96.21a7.312 7.312 0 0 0 .673.085c.208.025.417.038.627.04h.045a9.422 9.422 0 0 0 2.009-.14c.088-.013.172-.038.259-.055a.79.79 0 0 0 .146-.021c.012-.004.02-.013.032-.017.143-.031.29-.056.43-.092a8.7 8.7 0 0 0 .84-.263c.267-.096.528-.205.783-.327l3.7 3.698c.322.316.502.75.498 1.2 0 .46-.187.9-.518 1.22z"/>
        <path d="M41.625 26.053l-1.583 1.569c-2.88-5.303-8.46-8.614-14.534-8.622h-.014c-6.074.008-11.654 3.319-14.534 8.622l-1.582-1.57a.812.812 0 0 0-1.142 0 .795.795 0 0 0 0 1.132l7.859 7.793.006.004 6.499 6.443a3.137 3.137 0 0 0-.327 1.375c0 1.768 1.445 3.201 3.228 3.201 1.783 0 3.228-1.433 3.228-3.201a3.127 3.127 0 0 0-.327-1.374l6.5-6.445.006-.003 7.858-7.793a.795.795 0 0 0-.002-1.129.812.812 0 0 0-1.14-.002zM25.5 20.6c5.658.007 10.824 3.189 13.337 8.215l-4.499 4.461-6.887-6.822-.002-.001-.006-.01a.812.812 0 0 0-1.141.016 1.133 1.133 0 0 1-1.603 0 .81.81 0 0 0-1.142-.015l-.006.009h-.001l-6.888 6.823-4.499-4.461c2.514-5.026 7.68-8.208 13.337-8.215zm-.004 23.794a1.614 1.614 0 0 1-1.489-.992 1.59 1.59 0 0 1 .355-1.744 1.624 1.624 0 0 1 1.76-.342 1.6 1.6 0 0 1 .992 1.482 1.613 1.613 0 0 1-1.618 1.596zm1.863-4.2a3.287 3.287 0 0 0-1.875-.602 3.227 3.227 0 0 0-1.846.6l-5.832-5.784 6.406-6.348c.391.212.829.325 1.275.33l.009.002H25.506l.009-.002a2.743 2.743 0 0 0 1.274-.33l6.407 6.348-5.836 5.787z"/>
    </g>
</svg>
