<svg xmlns="http://www.w3.org/2000/svg" width="61" height="38" viewBox="0 0 61 38">
    <g fill="#fff" fill-rule="nonzero">
        <path d="M51.784 15.153c-.137-.128-.276-.259-.42-.39a5.11 5.11 0 0 0-.105-1.447c-.604-2.768-3.345-4.527-6.122-3.929a5.122 5.122 0 0 0-3.935 6.097c.604 2.769 3.345 4.528 6.122 3.929a5.119 5.119 0 0 0 2.994-1.894 38.368 38.368 0 0 0-1.487-1.64c-1.332-1.38-2.451-2.703-3.173-3.716.794.84 1.848 1.831 3.048 2.845a43.406 43.406 0 0 0 2.499 1.963c.548.396 1.055.736 1.499 1.006.962.587 1.631.85 1.796.656.267-.314-.876-1.74-2.716-3.48zM48.446 29.654c-6.36-1.63-10.094-4.857-12.108-7.278a18.641 18.641 0 0 1-1.606-2.235c-.933-1.528-1.309-2.673-1.395-2.961a2.268 2.268 0 0 1 1.492-2.804l.067-.023c.325-.094.66-.115.993-.062a2.3 2.3 0 0 1 1.837 1.607 8.917 8.917 0 0 0 .4.942c.135.274.322.619.562 1.007.477-1.806-.196-4.306-2.873-5.903-4.196-2.47-7.067-3.415-12.162-3.886-2.29-.038-3.514.836-4.212 1.99a14.884 14.884 0 0 1-.251-.038c-2.646-.433-8.312-1.997-14.034-8.441a2.868 2.868 0 0 0-4.037-.253A2.843 2.843 0 0 0 .87 5.338c6.644 7.517 13.707 9.712 17.358 10.29l.07.012c1.452.23 2.362.216 2.512.213.054-.002.105-.008.158-.013.135.025.274.049.423.071 3.957.297 8.222 2.328 11.227 3.6.477.253.993.43 1.515.537.184.369.397.752.653 1.151 1.755 2.746 5.271 6.03 12.152 8.937a1.834 1.834 0 0 0 2.03-.412 2.315 2.315 0 0 1-.522-.07z"/>
        <path d="M49.47 25.68c-5.194-1.344-8.196-3.817-9.968-5.927a14.57 14.57 0 0 1-1.005-1.355c-.338-.515-.596-.98-.782-1.357a9.352 9.352 0 0 1-.416-.98c-.006-.015-.009-.026-.01-.031l-.001-.003a1.824 1.824 0 0 0-1.095-1.182 1.825 1.825 0 0 0-2.417 2.205c.037.126.42 1.395 1.51 3.114.379.596.84 1.245 1.404 1.92 2.183 2.625 5.922 5.604 11.87 7.127a1.832 1.832 0 0 0 2.228-1.31 1.826 1.826 0 0 0-1.317-2.22z"/>
        <g transform="translate(42.816 33.866)">
            <ellipse cx="8.949" cy="1.985" rx="8.603" ry="1.81"/>
        </g>
    </g>
</svg>
