<svg xmlns="http://www.w3.org/2000/svg" width="44" height="29" viewBox="0 0 44 29">
    <g fill="#fff" fill-rule="evenodd">
        <path d="M24.748 28.723v-3.276l9.027-9.788c.99-1.104 1.764-2.053 2.323-2.847.559-.793.955-1.507 1.19-2.142s.352-1.27.352-1.904c0-1.295-.358-2.343-1.075-3.142-.718-.8-1.711-1.2-2.98-1.2-1.499 0-2.644.46-3.438 1.38-.793.92-1.19 2.143-1.19 3.666h-4.742c0-1.637.375-3.13 1.124-4.475.749-1.346 1.834-2.412 3.256-3.2 1.422-.786 3.104-1.18 5.046-1.18 1.841 0 3.415.311 4.723.933 1.308.622 2.304 1.508 2.99 2.657.685 1.149 1.028 2.504 1.028 4.066 0 1.625-.482 3.246-1.447 4.865-.965 1.619-2.374 3.4-4.228 5.342l-6.017 6.436h12.759v3.809h-18.7z"/>
        <path fill-rule="nonzero" d="M11.113.165L.625 9.986h5.873V28.81h9.23V9.986H21.6z"/>
    </g>
</svg>
