<svg xmlns="http://www.w3.org/2000/svg" width="38" height="42" viewBox="0 0 38 42">
    <g fill="#fff" fill-rule="nonzero">
        <path d="M9.57 14.87L1.1 27.798c-.376.534-.207 1.283.328 1.661.403.243.872.237 1.227.032.158-.091.293-.222.405-.392l6.759-10.246a13.08 13.08 0 0 1-.248-3.981zM13.027 25.14L3.436 39.77c-.376.534-.206 1.282.328 1.661.364.266.872.237 1.227.032.158-.091.293-.222.405-.393l9.407-14.312c-.642-.475-1.229-1.035-1.776-1.618zM16.462 27.809l-7.28 11.075c-.375.534-.206 1.282.328 1.661.404.243.873.237 1.228.032.158-.092.293-.222.405-.393l7.503-11.416c-.731-.265-1.486-.57-2.184-.959zM18.388 40.072c-.375.534-.206 1.282.328 1.661.403.243.873.236 1.228.031.157-.09.292-.221.404-.392l8.976-13.693a12.895 12.895 0 0 1-3.792 1.449l-7.144 10.944z"/>
        <g stroke="#fff">
            <path d="M13.541 3.894C7.179 8.688 5.924 17.79 10.743 24.186c4.82 6.395 13.915 7.697 20.277 2.903 6.362-4.794 7.617-13.896 2.798-20.291C28.998.403 19.903-.9 13.54 3.894zm.827 1.097C17.803 2.4 22.12 1.778 25.97 2.924a21.33 21.33 0 0 1-1.249 1.714l-1.048-.704a.684.684 0 1 0-.758 1.138l.919.616c-.529.595-1.1 1.19-1.71 1.78l-.693-.717a.685.685 0 0 0-.968-.018.686.686 0 0 0-.013.969l.674.697a38.928 38.928 0 0 1-1.99 1.669l-.577-.767a.685.685 0 0 0-.96-.138.685.685 0 0 0-.132.96l.58.768a39.105 39.105 0 0 1-2.265 1.535l-.484-.84a.684.684 0 0 0-1.185.682l.498.863c-.734.424-1.464.808-2.181 1.152l-.34-1.052a.684.684 0 0 0-1.303.415l.388 1.201c-.684.287-1.351.532-1.992.728-.04-4.018 1.75-7.995 5.186-10.584zM9.273 16.97a22.032 22.032 0 0 0 2.324-.811l.29.904a.688.688 0 0 0 1.065.342.685.685 0 0 0 .239-.757l-.337-1.043a32.789 32.789 0 0 0 2.445-1.28l.478.83a.686.686 0 0 0 1.007.206.685.685 0 0 0 .178-.888l-.495-.857a41.076 41.076 0 0 0 2.4-1.634l.59.782a.685.685 0 0 0 .959.137.685.685 0 0 0 .132-.96l-.591-.783a40.877 40.877 0 0 0 2.123-1.772l.688.712a.684.684 0 0 0 .968.018.686.686 0 0 0 .013-.969l-.665-.688a32.797 32.797 0 0 0 1.904-1.998l.91.611a.683.683 0 1 0 .758-1.138l-.789-.529a22.032 22.032 0 0 0 1.42-2.01 13.114 13.114 0 0 1 5.439 4.224 13.117 13.117 0 0 1 2.562 6.393c-.751.214-1.527.483-2.324.81l-.291-.903a.687.687 0 0 0-.862-.446.682.682 0 0 0-.44.86l.336 1.044a32.99 32.99 0 0 0-2.445 1.28l-.479-.83a.683.683 0 0 0-1.185.681l.495.858c-.764.48-1.528 1-2.288 1.553l-.591-.785a.685.685 0 0 0-.959-.137.685.685 0 0 0-.132.96l.59.782a40.8 40.8 0 0 0-2.232 1.857l-.688-.712a.684.684 0 1 0-.982.951l.666.689a32.917 32.917 0 0 0-1.905 1.996l-.91-.61a.681.681 0 0 0-.949.186.687.687 0 0 0 .19.952l.79.528a21.927 21.927 0 0 0-1.42 2.011 13.126 13.126 0 0 1-5.439-4.225 13.119 13.119 0 0 1-2.561-6.391zm20.92 9.021c-3.435 2.59-7.752 3.213-11.603 2.067.365-.561.785-1.135 1.248-1.713l1.049.703a.684.684 0 1 0 .758-1.138l-.919-.616c.529-.595 1.1-1.19 1.71-1.78l.693.718a.685.685 0 0 0 .967.018.687.687 0 0 0 .014-.97l-.673-.697a38.815 38.815 0 0 1 2.099-1.753l.578.768a.685.685 0 0 0 .96.137.685.685 0 0 0 .132-.96l-.578-.766c.711-.516 1.431-1 2.152-1.452l.485.839a.685.685 0 0 0 1.006.207.684.684 0 0 0 .178-.888l-.499-.864a32.868 32.868 0 0 1 2.182-1.152l.34 1.052a.687.687 0 0 0 1.064.341c.225-.17.33-.47.238-.756l-.387-1.202a21.422 21.422 0 0 1 1.991-.727c.041 4.017-1.749 7.995-5.185 10.584z"/>
        </g>
    </g>
</svg>
