<svg width="29" height="23" viewBox="0 0 29 23" fill="none" xmlns="http://www.w3.org/2000/svg">
<path d="M27.7083 21.2049L22.9803 16.9421L24.0406 11.6056C24.0511 11.5521 24.0592 11.4956 24.0645 11.44C24.1076 10.9683 23.941 10.527 23.6429 10.205C23.5745 10.0874 23.4933 9.975 23.3966 9.87135L19.0462 5.19866C18.9711 5.11947 18.8809 5.03446 18.7929 4.96401C18.4826 4.71654 18.1286 4.56166 17.7635 4.49412C17.8997 3.56569 17.4127 2.62271 16.5128 2.22328C15.4295 1.74262 14.1622 2.23056 13.6812 3.31357C13.2003 4.39659 13.6879 5.66418 14.7712 6.14514C14.7881 6.15241 14.8047 6.15765 14.8216 6.16435L13.0608 6.7044L9.28831 4.38815C9.27404 4.35496 9.25803 4.32235 9.24231 4.29003C9.51219 4.28188 9.78469 4.22336 10.0467 4.10691C11.13 3.62625 11.6177 2.35836 11.1367 1.27535C10.6561 0.192331 9.38846 -0.295608 8.30515 0.185053C7.23844 0.658727 6.75079 1.89546 7.19564 2.96741C6.26198 2.94529 5.36645 3.48621 4.98477 4.40037L2.48627 10.3835C2.24899 10.7279 2.14477 11.1634 2.23269 11.6056L3.32415 17.0996L0.185731 21.3298C-0.0966685 21.71 -0.0553275 22.2495 0.298108 22.5814C0.67862 22.938 1.27603 22.9188 1.63295 22.5389L5.67563 18.2292C5.88438 18.0047 6.00345 17.6921 5.97317 17.3622L5.96036 17.2228L5.65933 13.9437L8.95147 15.8399L10.5617 21.4876C10.6933 21.9426 11.1501 22.241 11.6281 22.1595C12.1423 22.0719 12.4876 21.5839 12.3999 21.0704L11.3126 14.6943C11.2631 14.4092 11.1038 14.1399 10.8479 13.9606L10.7448 13.8884L6.49314 10.9124L7.90368 8.56387L9.10169 10.8991C9.23532 11.1593 9.47405 11.3497 9.75762 11.4216L13.9258 12.4802C14.0087 12.5012 14.0929 12.5113 14.1764 12.5113C14.4734 12.5113 14.7607 12.3815 14.957 12.1474L17.1029 9.59099L19.1478 11.2219L14.9922 13.8605L14.883 13.9298C14.591 14.1178 14.3872 14.4352 14.3578 14.8084L13.8582 21.1536C13.823 21.6253 14.1459 22.0637 14.6219 22.1549C15.134 22.2527 15.6286 21.9173 15.7267 21.4049L16.7926 15.837L20.6247 13.8241L20.3129 17.2228L20.3007 17.3529C20.2658 17.7456 20.4297 18.1468 20.7694 18.3989L26.5132 22.6632C26.8993 22.9479 27.4489 22.901 27.7767 22.5374C28.1261 22.1505 28.0952 21.5537 27.7083 21.2049ZM13.8073 10.3471L10.705 9.55926L9.27462 6.77107L12.3865 8.68178C12.5487 8.78135 12.7333 8.83259 12.9196 8.83259C13.0201 8.83259 13.1205 8.81774 13.2183 8.78775L15.4129 8.11465C15.4528 8.1723 15.4947 8.22878 15.5401 8.28322L13.8073 10.3471Z" fill="#fff"/>
</svg>
