<svg xmlns="http://www.w3.org/2000/svg" width="42" height="42" viewBox="0 0 42 42">
    <g fill="#fff" fill-rule="evenodd">
        <path d="M5.6 36.68V.56H.44v41.28h41.28v-5.16H5.6z"/>
        <path fill-rule="nonzero" d="M21.94 9.16c-6.172 0-11.18 5.008-11.18 11.18s5.008 11.18 11.18 11.18 11.18-5.008 11.18-11.18S28.112 9.16 21.94 9.16zm9.989 15.295c-.163 0-.38-.082-.406-.244-.027-.081.027-.325.081-.487.054-.298.19-.569.27-.84.082-.216.136-.514.38-.54.162-.028.216.107.325.08 0 .271-.596 1.922-.65 2.03zm-1.083-6.85a.514.514 0 0 1-.541.136c-.217-.054-.406-.27-.542-.487-.19-.298-.406-.541-.433-.947-.027-.488.081-.92.46-.975.488-.081.812.514 1.029.84.108.162.19.351.217.46.108.378 0 .784-.19.974zm-7.66-4.114c.46-.054 1.055.081 1.407.244.352.162.866.65.947 1.191.054.514-.27.812-.595.974-.27.136-.569.217-.975.19-.541-.027-1.245-.46-1.516-.947-.19-.298-.27-.813-.054-1.165.136-.243.406-.433.785-.487zm-.542-3.465c0-.243.243-.352.487-.379.487-.054 1.083.109 1.435.298.135.054.27.19.27.298 0 .162-.135.216-.216.298-.325.027-.623-.082-.948-.109-.243-.027-.514.027-.703-.054-.136-.054-.298-.216-.325-.352zm-.217 10.125c.163-.109.352-.163.623-.19.595-.054 1.056.162 1.353.541.136.163.352.569.38.84.08.785-.57 1.434-1.083 1.65-.488.217-1.137.082-1.49-.216-.324-.27-.622-.704-.622-1.272 0-.568.433-1.083.84-1.353zm2.599 7.336c.325-.434.866-.758 1.543-.84.081 0 .325-.027.46 0 .244.055.487.298.515.488.054.297-.136.541-.271.676-.298.352-.866.677-1.462.84-.217.054-.487.135-.677.08-.162-.026-.352-.243-.379-.378-.08-.27.136-.677.271-.866zm-7.796-2.112c.46-.054.974.162 1.3.433.27.217.568.596.676.92.108.434-.081.867-.46.975-.406.108-1.002-.135-1.246-.27a2.612 2.612 0 0 1-.974-.84.767.767 0 0 1-.162-.433c0-.406.433-.73.866-.785zm-.92-9.285c-.19-.027-.434-.27-.488-.379-.216-.379-.054-1.083.163-1.38.324-.434.893-.759 1.597-.786.162 0 .352.027.487.19.298.298.162 1.001-.027 1.38-.217.352-.731.813-1.137.948-.217.054-.46.081-.596.027zm-3.682 5.793c-.217 0-.38-.298-.46-.568-.109-.352-.244-.786-.19-1.3.027-.433.163-.866.542-.92.406.243.568.758.622 1.434.027.46-.108 1.354-.514 1.354z"/>
    </g>
</svg>
