<svg width="41" height="21" viewBox="0 0 41 21" fill="none" xmlns="http://www.w3.org/2000/svg">
<path d="M20.0984 0C19.6754 0 19.337 0.338392 19.337 0.761381V2.87632C19.337 3.29931 19.6754 3.63771 20.0984 3.63771C20.5214 3.63771 20.8597 3.29931 20.8597 2.87632V0.761381C20.8597 0.338392 20.5214 0 20.0984 0Z" fill="#fff"/>
<path d="M15.9531 4.94897C16.1223 5.11817 16.2915 5.16047 16.503 5.16047C16.7144 5.16047 16.8836 5.07587 17.0528 4.94897C17.3489 4.65288 17.3489 4.14529 17.0528 3.8492L15.5301 2.32644C15.234 2.03035 14.7264 2.03035 14.4303 2.32644C14.1342 2.62253 14.1342 3.13012 14.4303 3.42621L15.9531 4.94897Z" fill="#fff"/>
<path d="M23.6938 5.16047C23.9053 5.16047 24.0745 5.07587 24.2437 4.94897L25.7664 3.42621C26.0625 3.13012 26.0625 2.62253 25.7664 2.32644C25.4703 2.03035 24.9628 2.03035 24.6667 2.32644L23.1439 3.8492C22.8478 4.14529 22.8478 4.65288 23.1439 4.94897C23.2708 5.07587 23.4823 5.16047 23.6938 5.16047Z" fill="#fff"/>
<path d="M16.2915 7.27541L14.4303 7.61381C14.4303 7.61381 14.4726 7.8253 14.5149 8.03679L14.7687 9.60185L16.6722 9.26346C17.222 9.17887 17.5604 8.62898 17.4758 8.07909C17.3489 7.52921 16.8414 7.14852 16.2915 7.27541Z" fill="#fff"/>
<path d="M13.4574 17.977C13.3728 17.554 13.4574 17.131 13.6266 16.7504L13.7112 16.5812L13.542 16.4966C12.9922 16.2005 12.6115 15.6929 12.4846 15.1007C12.4 14.72 12.4423 14.3393 12.6115 13.9586L12.6961 13.7894L12.5269 13.7048C12.3154 13.6202 12.1462 13.5356 12.0193 13.451C11.6809 13.1972 11.4271 12.8589 11.3002 12.4359L11.1733 12.0552L10.9618 12.3513C9.98893 13.7048 8.55077 14.297 7.57789 14.3393C7.3241 14.3393 7.1126 14.1701 7.02801 13.9586V13.9163C7.02801 13.6625 7.1972 13.4087 7.49329 13.3664C7.57789 13.3664 10.0735 13.1126 10.7926 10.3632L10.8349 10.1094L9.81973 10.1517C9.56594 10.1517 9.31215 9.94023 9.31215 9.68644C9.31215 9.43265 9.52364 9.17885 9.77744 9.17885L11.3425 9.13655C11.5963 9.13655 11.8078 9.30575 11.8501 9.55954L12.1885 11.9706C12.2308 12.2244 12.4 12.4782 12.5692 12.6051C12.7807 12.7743 13.0767 12.8166 13.3305 12.7743C13.8381 12.6897 14.2188 12.1821 14.1342 11.6322L13.542 8.16368C13.3728 7.2331 12.5269 6.55632 11.5963 6.59862L8.63536 6.76781C7.4087 6.85241 6.22433 7.4446 5.46295 8.41747L2.88271 11.7168C2.84041 11.8437 2.71352 11.9283 2.58662 11.9283L0.471676 12.309C0.133284 12.3513 -0.0359111 12.6897 0.00638778 12.9858L1.02156 18.4423C1.06386 18.7807 1.40225 18.9499 1.69834 18.9076L3.94019 18.4846C4.10938 18.4423 4.27858 18.5269 4.40547 18.6538L4.91306 19.2037C5.80134 20.1766 7.1549 20.6419 8.46617 20.3881C8.59307 20.3458 8.71996 20.3458 8.84686 20.3035C10.2004 20.0497 12.0193 19.6267 13.7112 18.9922L13.9227 18.9076L13.7958 18.6961C13.6689 18.5269 13.542 18.2308 13.4574 17.977Z" fill="#fff"/>
<path d="M17.3912 13.155L14.2611 13.7472C13.7112 13.8318 13.3729 14.3816 13.4575 14.9315C13.542 15.4814 14.0919 15.8198 14.6418 15.7352L17.7719 15.143C18.3218 15.0584 18.6602 14.5085 18.5756 13.9586C18.491 13.4088 17.9411 13.0704 17.3912 13.155Z" fill="#fff"/>
<path d="M14.9379 10.5747L15.1071 11.5053C15.1494 11.7591 15.1494 12.0552 15.0648 12.309L14.9802 12.6051L17.6873 12.0975C18.2372 12.0129 18.5756 11.463 18.491 10.9131C18.4064 10.3632 17.8565 10.0248 17.3067 10.1094L14.9379 10.5747Z" fill="#fff"/>
<path d="M17.5604 16.2005L15.2763 16.6235C14.7264 16.7081 14.388 17.2579 14.4726 17.8078C14.5572 18.3577 15.1071 18.6961 15.657 18.6115L17.9411 18.1885C18.491 18.1039 18.8294 17.554 18.7448 17.0041C18.6179 16.4543 18.1103 16.0736 17.5604 16.2005Z" fill="#fff"/>
<path d="M23.5246 9.22117L25.428 9.55956L25.6818 7.9945C25.7241 7.78301 25.7664 7.57151 25.7664 7.57151L23.9053 7.27542C23.3554 7.19082 22.8478 7.52922 22.7209 8.0791C22.6363 8.62899 22.9747 9.13657 23.5246 9.22117Z" fill="#fff"/>
<path d="M39.7251 12.3513L37.6101 11.9706C37.4832 11.9283 37.3986 11.886 37.314 11.8014L34.7338 8.50207C33.9724 7.52919 32.8303 6.93701 31.5614 6.85241L28.6004 6.68321C27.6699 6.64091 26.8239 7.3177 26.6547 8.24827L26.0625 11.7168C25.9779 12.2244 26.3163 12.732 26.8662 12.8589C27.12 12.9012 27.4161 12.8589 27.6276 12.6897C27.8391 12.5628 27.966 12.309 28.0083 12.0552L28.3467 9.64414C28.389 9.39034 28.6004 9.22115 28.8542 9.22115L30.4193 9.26345C30.6731 9.26345 30.9269 9.51724 30.8846 9.77103C30.8846 10.0248 30.6308 10.2786 30.377 10.2363L29.3618 10.194L29.4041 10.4478C30.0809 13.1549 32.5765 13.4087 32.7034 13.451C32.9572 13.4933 33.1687 13.7048 33.1687 14.0009V14.0432C33.1264 14.297 32.8726 14.4662 32.6188 14.4239C31.646 14.3393 30.2078 13.7894 29.2349 12.4359L29.0234 12.1398L28.8965 12.5205C28.7696 12.9435 28.5159 13.2818 28.1775 13.5356C28.0506 13.6202 27.8814 13.7048 27.6699 13.7894L27.5007 13.874L27.5853 14.0432C27.7545 14.4239 27.7968 14.8046 27.7122 15.1853C27.5853 15.7775 27.2046 16.2851 26.6547 16.5812H26.4855L26.5701 16.7504C26.7393 17.131 26.8239 17.554 26.7393 17.977C26.697 18.2731 26.5701 18.5269 26.4009 18.7807L26.274 18.9922L26.4855 19.0768C28.2198 19.7113 30.0386 20.1343 31.3499 20.3881C31.4768 20.4304 31.6037 20.4304 31.7306 20.4727C33.0418 20.6842 34.3531 20.2612 35.2837 19.2883L35.7913 18.7384C35.9182 18.6115 36.0874 18.5692 36.2565 18.5692L38.4984 18.9922C38.8368 19.0345 39.1329 18.823 39.1752 18.5269L40.1904 13.0703C40.2326 12.6897 40.0212 12.3936 39.7251 12.3513Z" fill="#fff"/>
<path d="M22.4248 15.143L25.5549 15.7352C26.1048 15.8198 26.6124 15.4814 26.7393 14.9315C26.8239 14.3816 26.4855 13.874 25.9356 13.7472L22.8055 13.155C22.2556 13.0704 21.748 13.4088 21.6211 13.9586C21.5365 14.5085 21.8749 15.0161 22.4248 15.143Z" fill="#fff"/>
<path d="M22.4671 12.0975L25.1742 12.6051L25.0896 12.309C25.005 12.0552 25.005 11.7591 25.0473 11.5053L25.2165 10.5747L22.8055 10.1094C22.2556 10.0248 21.748 10.3632 21.6211 10.9131C21.5788 11.463 21.9595 11.9706 22.4671 12.0975Z" fill="#fff"/>
<path d="M24.9628 16.6235L22.6786 16.2005C22.1287 16.1159 21.6211 16.4543 21.4942 17.0042C21.4096 17.554 21.748 18.0616 22.2979 18.1885L24.5821 18.6115C25.1319 18.6961 25.6395 18.3577 25.7664 17.8078C25.851 17.2579 25.4703 16.7081 24.9628 16.6235Z" fill="#fff"/>
</svg>
