<svg xmlns="http://www.w3.org/2000/svg" width="54" height="50" viewBox="0 0 54 50">
    <g fill="#fff" fill-rule="nonzero">
        <path d="M36.105 15.228L38.99 17.9c.218.212.47.373.738.502L22.606 35.833a4.836 4.836 0 0 1-2.447 1.357c.677 1.032-9.661-1.93-6.939-2.669l-3.57-2.186a3.018 3.018 0 0 1-1.615-2.197 3.048 3.048 0 0 1 .822-2.67l3.087-3.134c1.19-1.212 3.163-1.41 4.557-.464l4.944 3.607c.31.207.87.177 1.18-.138l.58-.561 12.238-12.465c.162.346.384.66.662.915zM53.082 3.403c.367.375.57.877.57 1.41 0 .532-.203 1.024-.57 1.409l-7.73 7.873a.832.832 0 0 1-.175.138l-3.696 2.345a.887.887 0 0 1-.512.148.92.92 0 0 1-.649-.256l-2.912-2.7a1.009 1.009 0 0 1-.319-.71c0-.266.097-.522.29-.719l.049-.05 2.244-3.665a.85.85 0 0 1 .136-.177l7.74-7.874c.735-.759 2.022-.759 2.757 0l2.777 2.828zM8.46 34.4a7.742 7.742 0 0 0-7.74 7.74 7.742 7.742 0 0 0 7.74 7.74 7.742 7.742 0 0 0 7.74-7.74 7.742 7.742 0 0 0-7.74-7.74zm6.915 10.589c-.112 0-.262-.057-.28-.169-.02-.056.018-.225.056-.337.037-.207.13-.394.187-.581.056-.15.094-.356.262-.375.113-.019.15.075.225.056 0 .187-.412 1.33-.45 1.406zm-.75-4.742a.356.356 0 0 1-.374.094c-.15-.038-.281-.188-.375-.337-.131-.207-.281-.375-.3-.656-.018-.338.056-.638.319-.675.337-.056.562.356.712.58.075.113.131.245.15.32.075.262 0 .543-.131.674zM9.323 37.4c.319-.038.731.056.975.168.243.113.6.45.656.825.037.356-.188.562-.413.674-.187.094-.393.15-.674.132-.375-.02-.863-.319-1.05-.656-.131-.206-.187-.562-.037-.806.093-.169.28-.3.543-.337zm-.375-2.4c0-.168.169-.243.338-.262.337-.037.75.075.993.206.094.038.187.132.187.207 0 .112-.093.15-.15.206-.225.019-.43-.056-.656-.075-.168-.019-.356.019-.487-.038-.094-.037-.206-.15-.225-.243zm-.15 7.01c.113-.075.244-.113.431-.131.413-.038.731.112.937.374.094.113.244.394.263.581.056.544-.394.994-.75 1.144-.337.15-.787.056-1.03-.15a1.146 1.146 0 0 1-.432-.881c0-.394.3-.75.581-.937zm1.8 5.079c.224-.3.6-.525 1.068-.581.056 0 .225-.02.318 0 .169.037.338.206.356.337.038.206-.093.375-.187.468-.206.244-.6.469-1.012.581-.15.038-.337.094-.469.057-.112-.02-.243-.169-.262-.263-.056-.187.094-.468.187-.6zm-5.398-1.462c.319-.038.675.112.9.3.187.15.393.412.468.637.075.3-.056.6-.318.675-.282.074-.694-.094-.863-.188a1.808 1.808 0 0 1-.674-.58.531.531 0 0 1-.113-.3c0-.282.3-.507.6-.544zm-.637-6.428c-.131-.02-.3-.188-.337-.263-.15-.262-.038-.75.112-.955.225-.3.618-.525 1.106-.544.112 0 .243.019.337.131.206.206.112.694-.019.956-.15.244-.506.562-.787.656-.15.037-.318.056-.412.019zm-2.549 4.01c-.15 0-.262-.206-.318-.393-.075-.244-.17-.544-.132-.9.02-.3.113-.6.375-.637.281.169.394.525.431.993.019.319-.075.937-.356.937z"/>
    </g>
</svg>
