<svg xmlns="http://www.w3.org/2000/svg" width="45" height="57" viewBox="0 0 45 57">
    <g fill="#fff" fill-rule="nonzero">
        <path d="M1.965 44.057l11.516.599c.805.036 1.63-.295 2.14-.951l.196-.25 3.304-4.246-.47 4.792-10.224 9.68c-.739.703-.81 1.837-.124 2.613.733.83 2.044.945 2.928.258l12.09-9.382c.43-.334.745-.808.853-1.364l.048-.245L26.95 31.58c.018-.094.033-.195.043-.292.018-.19.01-.378-.006-.564l.128-.015-.777-11.9 17.288-6.076c1.095-.385 1.65-1.53 1.238-2.554-.41-1.026-1.633-1.547-2.725-1.16l-16.586 5.83-4.865.587c1.431-1.156 2.001-3.072 1.266-4.811-.926-2.197-3.581-3.274-5.925-2.405-2.346.869-3.495 3.355-2.567 5.553.436 1.032 1.256 1.813 2.244 2.266l-.83.1.063.298-6.407-1.386 3.71-9.378c.407-1.028-.153-2.17-1.25-2.55-1.094-.378-2.313.145-2.72 1.171L3.724 15.788a1.875 1.875 0 0 0 .122 1.631c.289.502.795.864 1.387.991l10.607 2.294 1.913 9.051c-.06.08-.13.153-.183.24l-5.808 9.506-9.831.664c-1.03.068-1.87.845-1.929 1.837-.065 1.076.814 1.996 1.962 2.055z"/>
        <ellipse cx="29.302" cy="4" rx="4.186" ry="4"/>
    </g>
</svg>
