<svg xmlns="http://www.w3.org/2000/svg" width="46" height="50" viewBox="0 0 46 50">
    <g fill="#fff" fill-rule="evenodd">
        <path d="M33.374 17.434c0-1.078.811-1.951 1.812-1.951 1.002 0 1.813.874 1.813 1.95v11.24a.307.307 0 0 0 .614-.008v-9.868c0-1.079.812-1.951 1.812-1.951 1.002 0 1.813.873 1.813 1.95v10.541a.308.308 0 1 0 .617-.006v-8.36c0-1.077.811-1.95 1.813-1.95 1.001 0 1.813.873 1.813 1.95v24.184c0 .443-.138.851-.369 1.179l-.064.084c-1.605 2.117-4.471 3.533-7.733 3.533-3.203 0-6.038-1.366-7.658-3.42-.093-.1-4.224-6-4.224-6-.34-.419-.539-.773-.548-1.386v-7.994c0-1.079.81-1.952 1.812-1.952 1.001 0 1.814.874 1.814 1.952v3.972a.265.265 0 0 0 .232.275c3.009.532 5.496 1.944 6.496 3.449.206.31.674.002.468-.308-1.084-1.63-3.614-3.053-6.58-3.636V18.71c0-1.078.813-1.951 1.814-1.951 1.001 0 1.813.874 1.813 1.95v9.237a.308.308 0 0 0 .616-.006V17.433h.004zM13.055 17.434c0-1.078-.811-1.951-1.812-1.951-1.002 0-1.813.874-1.813 1.95v11.24a.307.307 0 0 1-.614-.008v-9.868c0-1.079-.811-1.951-1.812-1.951-1.002 0-1.813.873-1.813 1.95v10.541a.308.308 0 1 1-.617-.006v-8.36c0-1.077-.81-1.95-1.813-1.95-1.001 0-1.813.873-1.813 1.95v24.184c0 .443.138.851.37 1.179l.063.084c1.606 2.117 4.471 3.533 7.733 3.533 3.203 0 6.039-1.366 7.658-3.42.093-.1 4.224-6 4.224-6 .34-.419.54-.773.549-1.386v-7.994c0-1.079-.812-1.952-1.813-1.952s-1.813.874-1.813 1.952v3.972a.265.265 0 0 1-.233.275c-3.009.532-5.496 1.944-6.496 3.449-.206.31-.673.002-.468-.308 1.084-1.63 3.614-3.053 6.58-3.636V18.71c0-1.078-.813-1.951-1.814-1.951-1.001 0-1.813.874-1.813 1.95v9.237a.308.308 0 0 1-.616-.006V17.433h-.004z"/>
        <path d="M30.669 3.234A10.719 10.719 0 0 0 25.553.297L25.43.27a10.768 10.768 0 0 0-4.328-.095l-.106.02a10.637 10.637 0 0 0-5.59 3.039c-2.035 2.088-3.156 4.87-3.156 7.83 0 2.961 1.12 5.742 3.156 7.83 2.035 2.088 4.745 3.238 7.632 3.238 2.885 0 5.596-1.15 7.63-3.238a11.187 11.187 0 0 0 1.847-2.529l.091-.172-.002-.003c2.16-4.25 1.37-9.565-1.935-12.956zm-12.89 14.328c.592.346 1.633.91 2.896 1.41 1.284.509 3.232 1.115 5.221 1.115.679 0 1.328-.07 1.931-.208.135-.031.269-.066.401-.105a9.668 9.668 0 0 1-5.19 1.491 9.8 9.8 0 0 1-4.524-1.11c-.825-.969-.84-1.84-.736-2.593zm-3.634-1.916a10.303 10.303 0 0 1-.9-2.753c.273-3.752 2.18-6.055 3.73-7.326a11.109 11.109 0 0 1 3.131-1.814c.322.354.613.8.866 1.324-.816.634-2.68 2.18-4.27 4.2-1.196 1.522-1.984 3-2.341 4.391a6.697 6.697 0 0 0-.216 1.978zm-.866-6.537a10.284 10.284 0 0 1 2.724-5.263c.412-.422.861-.809 1.337-1.15a2.926 2.926 0 0 1 2.02.422 12.29 12.29 0 0 0-2.902 1.764 11.03 11.03 0 0 0-3.179 4.227zm17.788 2.395c.062-.905.091-2.478-.237-4.19-.292-1.525-.81-2.859-1.537-3.965a8.268 8.268 0 0 0-.366-.512 10.193 10.193 0 0 1 3.957 6.802c-.406.862-1.017 1.488-1.817 1.865zm-.872.296a6.454 6.454 0 0 1-1.674.131c-.153-.826-.636-3.199-1.542-5.566-.66-1.726-1.415-3.115-2.244-4.13-.47-.576-.971-1.035-1.494-1.372.69.012 1.388.102 2.062.262 2.504 1.029 4.084 3.164 4.696 6.347.374 1.937.258 3.7.196 4.328zm-6.932-1.258l-.256-.105c-.27-4.084-1.305-6.767-3.078-7.974a3.796 3.796 0 0 0-1.263-.569 9.709 9.709 0 0 1 2.473-.852c2.437.115 4.093 3.128 5.053 5.634.81 2.116 1.267 4.208 1.454 5.175-1.836-.254-3.61-.989-4.383-1.309zm-5.907-.716c1.441-1.835 3.157-3.29 3.96-3.929.439 1.218.723 2.753.846 4.565-.351.141-.966.44-1.678 1.02-.997.811-2.398 2.364-3.416 5.177l-.01.055c-.01.08-.025.171-.043.277l-.02.114c-.087.512-.212 1.248.037 2.096a10.094 10.094 0 0 1-1.028-.92l-.209-.216c-1.476-2.27-.95-5.042 1.561-8.24zm8.54 9.396c-3.415 0-6.82-1.877-7.931-2.55.23-.602.491-1.17.778-1.694.835.315 3.264 1.174 5.936 1.59 1.902.295 3.597.307 4.953.033.876-.179 1.636-.48 2.268-.898-.04.082-.082.163-.123.241-1.011 1.652-2.402 2.691-4.134 3.09a7.837 7.837 0 0 1-1.747.188zm3.573-3.471c-1.251.254-2.848.24-4.66-.039-2.47-.384-4.762-1.173-5.615-1.488.535-.823 1.14-1.512 1.8-2.05.767-.63 1.398-.881 1.628-.96l.262.106.065.027c.903.373 3.02 1.248 5.157 1.426 2.173.178 3.816-.393 4.875-1.693-.001.887-.114 1.77-.339 2.634-.613 1.047-1.68 1.732-3.173 2.037z"/>
    </g>
</svg>
