<svg xmlns="http://www.w3.org/2000/svg" width="53" height="36" viewBox="0 0 53 36">
    <g fill="#fff" fill-rule="nonzero">
        <path d="M10.446 17.755c-.152 0-.251.033-.33.117l-.943 1.084c1.252.472 5.804 2.366 5.8 2.37 1.24.55 1.339.567 1.656 1.769l2.294 9.761c.882 3.734-3.67 3.976-4.25 1.602l-2.233-9.082-3.312-1.389c.474 1.369.202 1.656-.33 2.975-1.005 2.269-2.175 5.227-3.3 7.363-1.515 2.866-5.243.872-4.196-1.606l2.611-6.175c.474-1.113.49-1.105.28-1.36C3.291 24.08.902 21.498.375 20.334c-.441-.968-.478-1.794-.19-2.816.495-1.76 6.45-7.355 8.733-9.536.877-.839 1.767-1.143 2.94-.755 1.418.467 11.48 7.242 13.36 8.923 1.404 1.26.13 4.326-2.221 3.896l-12.551-2.29zm4.107-4.426l-.861.905 4.827 1.71-3.966-2.615zM13.947 0c1.929 0 3.487 1.581 3.487 3.53 0 1.947-1.558 3.529-3.487 3.529-1.924 0-3.486-1.582-3.486-3.53C10.46 1.581 12.023 0 13.947 0zM26.498 7.765c1.541 0 2.791 1.26 2.791 2.821 0 1.56-1.25 2.826-2.791 2.826-1.537 0-2.787-1.266-2.787-2.826s1.25-2.821 2.787-2.821z"/>
        <g>
            <path d="M42.554 17.755c.152 0 .251.033.33.117l.943 1.084c-1.252.472-5.804 2.366-5.8 2.37-1.24.55-1.339.567-1.656 1.769l-2.294 9.761c-.882 3.734 3.67 3.976 4.25 1.602l2.233-9.082 3.312-1.389c-.474 1.369-.202 1.656.33 2.975 1.005 2.269 2.175 5.227 3.3 7.363 1.515 2.866 5.243.872 4.196-1.606l-2.611-6.175c-.474-1.113-.49-1.105-.28-1.36.902-1.105 3.291-3.687 3.818-4.851.441-.968.478-1.794.19-2.816-.495-1.76-6.45-7.355-8.733-9.536-.877-.839-1.767-1.143-2.94-.755-1.418.467-11.48 7.242-13.36 8.923-1.404 1.26-.13 4.326 2.221 3.896l12.551-2.29zm-4.107-4.426l.861.905-4.827 1.71 3.966-2.615zM39.053 0c-1.929 0-3.487 1.581-3.487 3.53 0 1.947 1.558 3.529 3.487 3.529 1.924 0 3.486-1.582 3.486-3.53C42.54 1.581 40.977 0 39.053 0z"/>
        </g>
    </g>
</svg>
