<svg xmlns="http://www.w3.org/2000/svg" width="41" height="45" viewBox="0 0 41 45">
    <path fill="#fff" fill-rule="nonzero" d="M40.662 24.075a20.201 20.201 0 0 0-3.305-15.268c-3.113-4.484-7.793-7.493-13.178-8.47a20.431 20.431 0 0 0-15.332 3.29c-4.503 3.1-7.523 7.76-8.505 13.122-1.944 10.604 4.59 20.711 14.958 23.4l-.61 3.796A.912.912 0 0 0 15.592 45c.442 0 .83-.32.903-.767l1.013-6.297a.908.908 0 0 0-.164-.68l-11.1-15.16a2.234 2.234 0 0 1-.272-.488l-.061-.185c-.066-.255-.045-.465.036-.594.164-.262.637-.36 1.225-.259.766.203 3.76 3.004 5.038 4.2.571.534 1.064.996 1.4 1.289.008.007.018.011.025.017.03.025.063.048.096.068a.706.706 0 0 0 .187.09l.008.004a.975.975 0 0 0 .16.037l.043.003c.028.002.055.007.083.007l.042-.003.042-.004a.865.865 0 0 0 .121-.02l.042-.01.02-.004c.021-.006.039-.017.06-.025a.87.87 0 0 0 .092-.038c.027-.014.052-.031.077-.047s.05-.03.073-.05a.76.76 0 0 0 .074-.07c.016-.014.033-.027.046-.042.004-.005.006-.01.01-.013.022-.026.04-.054.059-.082.015-.023.032-.044.044-.067.014-.026.024-.052.035-.079.012-.027.027-.055.035-.084.009-.026.012-.054.019-.08.006-.03.015-.06.018-.09.003-.029.002-.057.003-.085 0-.03.003-.061 0-.093-.002-.025-.008-.05-.012-.073a.924.924 0 0 0-.02-.104l-.003-.016-4.576-14.95c.008-.611.568-1.135 1.292-1.187.738-.052 1.08-.021 1.5 1.282l4.32 13.64a.915.915 0 0 0 1.744-.548l-.024-.08a.908.908 0 0 0 .024-.265L18.247 7.59c-.022-.299.09-.593.314-.83.246-.258.592-.416.974-.443.383-.027.748.079 1.028.299.257.201.41.477.432.775l1.092 14.984.002.011a.873.873 0 0 0 .023.123l.01.055a.83.83 0 0 0 .05.123c.006.013.01.029.016.041.023.042.049.081.078.12.006.009.011.019.018.028.028.034.06.065.092.096l.03.03c.025.022.053.037.078.055.024.016.046.034.07.048.015.008.03.012.046.02.04.02.08.039.122.052l.02.005a1.08 1.08 0 0 0 .164.034c.032.002.063.004.094.004l.034-.003h.03c.016 0 .031-.006.046-.007.035-.005.07-.01.102-.018l.074-.02a1.366 1.366 0 0 0 .16-.07.942.942 0 0 0 .14-.098.836.836 0 0 0 .066-.062c.018-.018.036-.037.053-.058.02-.024.037-.05.054-.075.014-.022.03-.042.042-.065a.784.784 0 0 0 .038-.085c.01-.024.021-.048.03-.073.01-.03.014-.061.021-.092.006-.027.014-.052.016-.08l.003-.013 1.346-13.067a.943.943 0 0 0 .002-.16c-.022-.297.091-.591.315-.827a1.48 1.48 0 0 1 .974-.444c.378-.027.748.078 1.029.299.237.186.385.435.424.707l-1.288 12.512-.04.166a.906.906 0 0 0-.009.383.91.91 0 0 0 .818.913.912.912 0 0 0 1.003-.812l.035-.343 1.966-8.116c.335-1.315.719-1.5 1.384-1.565.34-.007.654.092.891.29.212.176.349.418.393.69l-1.786 9.242a.941.941 0 0 0-.008.294l.394 2.915c.005.03.01.062.018.092.011.05 1.176 5.063-1.583 10.402a.91.91 0 0 0-.098.496l.643 7.48a.913.913 0 0 0 .989.83.913.913 0 0 0 .834-.986l-.558-6.496a20.018 20.018 0 0 0 1.691-1.277.845.845 0 0 0 .16-.132 20.536 20.536 0 0 0 4.429-5.349.946.946 0 0 0 .15-.264 20.24 20.24 0 0 0 2.235-6.2zm-2.573 2.545c-.686-2.915-2.21-5.79-4.2-7.76l1.043-5.396c2.348 2.292 4.072 5.25 4.094 9.003 0 .033.006.064.01.096-.047.395-.101.79-.173 1.184a18.536 18.536 0 0 1-.774 2.873zM23.155 11.87l-.336-4.61c-.01-.132-.03-.26-.058-.386.414.127.851.266 1.309.422a2.867 2.867 0 0 0-.642 1.925l-.273 2.649zM2.14 17.076c.19-1.035.468-2.04.82-3.011-.402 6.796 3.5 13.602 4.856 15.742a13.936 13.936 0 0 1-3.593-.248 18.476 18.476 0 0 1-2.083-12.483zM5.553 31.59c.476.043.95.07 1.415.07a13.79 13.79 0 0 0 3.546-.453c.038-.01.073-.027.107-.041l2.39 3.263c-1.534.297-3.143.298-4.803 0a18.574 18.574 0 0 1-2.655-2.84zm10.038 6.754a18.77 18.77 0 0 1-4.525-1.88 14.093 14.093 0 0 0 3.116-.435l1.46 1.995-.051.32zm-3.24-15.937c-2.523-2.323-3.956-3.475-4.853-3.63-.853-.148-1.626-.044-2.225.277-.926-4.26-.694-9.033 2.984-12.663l.005-.008a19.093 19.093 0 0 1 1.626-1.258 18.94 18.94 0 0 1 2.225-1.315 14.329 14.329 0 0 0-1.702 3.687c-1.094.544-1.808 1.654-1.719 2.878a.907.907 0 0 0 .038.2l3.62 11.832zM15.047 9.7c-.517-1.608-1.313-2.4-2.595-2.537.66-1.738 1.69-3.306 3.084-4.674a18.555 18.555 0 0 1 4.426-.657 14.3 14.3 0 0 0-2.068 3.145 3.202 3.202 0 0 0-.664.532 2.881 2.881 0 0 0-.81 2.213l.598 8.2-1.97-6.222zm11.367-3.613a3.5 3.5 0 0 0-.32.038.912.912 0 0 0-.213-.118 43.92 43.92 0 0 0-5.534-1.665c.56-.85 1.245-1.656 2.044-2.414.487.05.973.113 1.46.201 4.903.891 9.165 3.63 12 7.714a18.636 18.636 0 0 1 2.306 4.54c-1.93-2.657-4.878-4.975-8.78-6.88-.178-.271-.4-.519-.67-.73a3.312 3.312 0 0 0-2.293-.686zm3.183 5.167l.155-1.509c.382.207.765.426 1.147.656-.53.167-.958.446-1.302.853zm4.478 21.9a14.736 14.736 0 0 0-.379-2.365c.397-3-.052-5.215-.136-5.594l-.369-2.726.263-1.362c1.881 2.345 3.151 5.688 3.196 8.6a18.738 18.738 0 0 1-2.575 3.448z"/>
</svg>
