<svg xmlns="http://www.w3.org/2000/svg" width="50" height="52" viewBox="0 0 50 52">
    <g fill="#fff" fill-rule="nonzero">
        <ellipse cx="44.396" cy="15.054" rx="5.604" ry="5.304"/>
        <path d="M25.599 10.605c3.014.077 5.68-2.212 5.912-5.11.232-2.9-2.086-5.417-5.217-5.493-3.014-.076-5.68 2.212-5.912 5.11-.116 2.9 2.202 5.34 5.217 5.493zM42.788 22.563l-24.96-14.92L2.038 24.82l12.989 5 9.338-13.226 16.046 9.597c.34.242.849.323 1.273.323 1.189-.08 2.207-1.049 2.122-2.258a1.95 1.95 0 0 0-1.018-1.694z"/>
        <path d="M28 30.446l-26.097-6.41 7.188 11.871S.278 48.017.192 48.254c-.599 1.424.257 3.007 1.797 3.561 1.283.475 2.738 0 3.508-1.029 0 0 9.583-13.217 9.668-13.296.514-.87.514-1.82.086-2.612l-1.027-2.216 9.155 2.296s-5.647 11.95-5.732 12.188c-.257 1.503.77 2.928 2.48 3.245 1.37.237 2.739-.475 3.252-1.583l6.845-14.404c.342-.554.428-1.188.256-1.9-.256-1.108-1.283-1.9-2.48-2.058z"/>
    </g>
</svg>
