<svg xmlns="http://www.w3.org/2000/svg" width="51" height="35" viewBox="0 0 51 35">
    <path fill="#fff" fill-rule="nonzero" d="M0 0v35h1.645v-1.273l5.265-5.09h37.18l5.265 5.09V35H51V0H0zm7.14 6.806h6.12v5.833H7.14V6.806zm15.3 7.777h6.12v5.834h-6.12v-5.834zm-1.02 5.834H15.3v-5.834h6.12v5.834zm8.16-5.834h6.12v5.834h-6.12v-5.834zm0-1.944V6.806h6.12v5.833h-6.12zm-1.02 0h-6.12V6.806h6.12v5.833zm-7.14 0H15.3V6.806h6.12v5.833zM7.14 14.583h6.12v5.834H7.14v-5.834zm0 6.806h6.12v5.833H7.14V21.39zm8.16 0h6.12v5.833H15.3V21.39zm7.14 0h6.12v5.833h-6.12V21.39zm7.14 0h6.12v5.833h-6.12V21.39zm7.14 0h6.12v5.833h-6.12V21.39zm0-.972v-5.834h6.12v5.834h-6.12zm0-7.778V6.806h6.12v5.833h-6.12zM7.218 5.833L3.06 1.944h45.9l-4.158 3.89H7.218zM6.12 28.055l-4.08 4.028V2.917l4.08 4.028v21.11zm38.76 0V6.945l4.08-4.028v29.166l-4.08-4.028z"/>
</svg>
