<svg xmlns="http://www.w3.org/2000/svg" width="44" height="43" viewBox="0 0 44 43">
    <g fill="#fff" fill-rule="nonzero">
        <path d="M21.94.314C10.208.314.674 9.848.674 21.58c0 11.732 9.534 21.266 21.266 21.266 11.732 0 21.266-9.534 21.266-21.266C43.206 9.848 33.672.314 21.94.314zm0 37.858c-9.16 0-16.592-7.431-16.592-16.592 0-9.16 7.431-16.592 16.592-16.592 9.16 0 16.592 7.431 16.592 16.592 0 9.16-7.431 16.592-16.592 16.592z"/>
        <path d="M23.81 8.493h-4.674v13.32l1.215 2.057 8.647 4.674 2.243-4.113-7.431-4.02z"/>
    </g>
</svg>
