<svg xmlns="http://www.w3.org/2000/svg" width="52" height="53" viewBox="0 0 52 53">
    <g fill="#fff" fill-rule="nonzero" stroke="#fff" stroke-width="1.204">
        <path d="M50.644 37.174c-.312-1.042-1.143-1.875-2.285-2.291-1.039-.313-2.285-.209-3.22.52-1.247.833-1.662 2.5-1.247 3.958.52 1.874-.207 3.852-1.973 4.79-1.766.937-4.051.416-5.401-1.354l-6.025-8.33 11.322-15.413 2.493-3.436 2.493-3.436 3.635-4.999c.52-.729.831-1.666.623-2.603a3.29 3.29 0 0 0-1.35-2.291c-.623-.52-1.35-.729-2.077-.729-1.143 0-2.182.52-2.805 1.458L26.235 28.426l-12.05-16.453-.415-.52-6.128-8.331C6.499 1.456 4.318 1.143 2.76 2.289c-.727.52-1.246 1.354-1.454 2.29-.104.938.104 1.875.623 2.604l3.636 4.999 2.492 3.436 2.597 3.436 11.218 15.412-6.024 8.227a4.241 4.241 0 0 1-5.402 1.354c-1.661-.938-2.492-2.916-1.87-4.79.416-1.459-.103-3.02-1.246-3.854-.623-.416-1.35-.729-2.077-.729-1.558 0-2.908.938-3.324 2.5-1.662 4.894.416 10.205 4.882 12.808 1.662 1.041 3.635 1.458 5.505 1.458 3.532 0 7.063-1.666 9.348-4.79l4.674-6.352 4.675 6.352c2.285 3.124 5.816 4.79 9.348 4.79 1.87 0 3.843-.52 5.505-1.458 4.259-2.603 6.336-7.914 4.778-12.808zm-30.745 8.33c-2.805 3.853-8.102 5.103-12.05 2.708-3.635-2.187-5.297-6.456-4.05-10.518.208-.729.83-.937 1.35-.937.208 0 .52 0 .831.313.52.312.727.937.52 1.562-.832 2.811.415 5.727 2.908 7.185 2.7 1.458 6.128.625 7.998-1.875l5.609-7.706 1.765 2.396-4.881 6.872zm23.37-31.969l-2.285-1.666 1.246-1.77 2.286 1.666-1.247 1.77zm-3.531 0l1.454 1.042.935.625-1.35 1.77-2.286-1.666 1.247-1.77zm6.751-9.268c.416-.624 1.35-.833 1.974-.312.311.208.519.52.623.937.104.417 0 .73-.312 1.042l-3.012 4.165-2.285-1.666 3.012-4.166zm-9.244 12.705l2.285 1.666-10.18 14.058-1.765-2.395 9.66-13.33zM7.954 11.765l2.285-1.666 1.246 1.77-.83.625L9.2 13.535l-.104-.104-1.142-1.666zm2.492 3.437l.935-.625 1.454-1.042 1.247 1.77-2.39 1.667-1.246-1.77zM3.383 4.892c.104-.416.312-.729.624-.937.207-.208.519-.312.83-.312.416 0 .935.208 1.143.624l3.012 4.166-2.285 1.666-3.012-4.165a1.762 1.762 0 0 1-.312-1.042zm41.236 43.32c-3.947 2.395-9.244 1.145-12.048-2.708L12.939 18.638l2.285-1.666L25.3 30.822l2.804 3.852 6.752 9.268c1.87 2.604 5.297 3.437 7.998 1.875 2.596-1.458 3.739-4.374 2.908-7.185-.208-.625 0-1.25.52-1.667.415-.312.83-.312 1.35-.208.415.104.727.52.934.937 1.35 4.062-.311 8.435-3.947 10.518z"/>
        <path d="M26.22 12.403c2.967 0 5.422-2.432 5.422-5.37 0-3.04-2.455-5.473-5.422-5.473-2.967 0-5.422 2.432-5.422 5.371 0 3.04 2.455 5.472 5.422 5.472z"/>
    </g>
</svg>
