<svg xmlns="http://www.w3.org/2000/svg" width="53" height="44" viewBox="0 0 53 44">
    <g fill="#fff" fill-rule="evenodd">
        <path d="M19.531 43.04c-1.057 0-1.914-.976-1.914-2.179 0-1.202.857-2.178 1.914-2.178 13.094 0 22.969-8.43 22.969-19.608 0-1.203.857-2.179 1.914-2.179 1.056 0 1.914.976 1.914 2.179 0 13.662-11.521 23.965-26.797 23.965zm30.898-21.787c-.525 0-1.05-.214-1.45-.638l-4.702-4.996-4.702 4.996a1.965 1.965 0 0 1-2.9 0 2.273 2.273 0 0 1 0-3.08l6.152-6.536a1.965 1.965 0 0 1 2.9 0l6.152 6.535a2.273 2.273 0 0 1 0 3.08c-.4.425-.925.639-1.45.639z"/>
        <path fill-rule="nonzero" d="M16.36.04C7.814.04.88 6.974.88 15.52S7.814 31 16.36 31s15.48-6.934 15.48-15.48S24.906.04 16.36.04zm13.83 21.177c-.224 0-.524-.112-.561-.337-.038-.113.037-.45.112-.675.075-.412.262-.787.375-1.162.112-.3.187-.712.525-.75.224-.037.3.15.45.113 0 .375-.825 2.661-.9 2.811zm-1.498-9.483c-.15.15-.413.3-.75.188-.3-.075-.562-.375-.75-.675-.262-.412-.562-.75-.6-1.312-.037-.674.113-1.274.638-1.35.674-.112 1.124.713 1.424 1.163.15.225.262.487.3.637.15.525 0 1.087-.262 1.35zM18.084 6.037c.637-.075 1.462.113 1.95.337.486.225 1.199.9 1.311 1.65.075.712-.375 1.124-.825 1.349a2.49 2.49 0 0 1-1.349.262c-.75-.037-1.724-.637-2.099-1.312-.262-.412-.375-1.124-.075-1.611.188-.338.562-.6 1.087-.675zm-.75-4.798c0-.337.338-.487.675-.524.675-.075 1.5.15 1.987.412.187.075.375.262.375.412 0 .225-.188.3-.3.413-.45.037-.862-.113-1.312-.15-.337-.038-.712.037-.975-.075-.187-.075-.412-.3-.45-.488zm-.3 14.019c.226-.15.488-.225.863-.263.824-.075 1.462.225 1.874.75.187.225.487.787.525 1.162.112 1.087-.788 1.986-1.5 2.286-.674.3-1.574.113-2.061-.3-.45-.374-.862-.974-.862-1.761 0-.787.6-1.5 1.162-1.874zm3.599 10.157c.45-.6 1.2-1.05 2.136-1.162.113 0 .45-.037.638 0 .337.075.674.413.712.675.075.412-.188.75-.375.937-.412.487-1.2.937-2.024 1.162-.3.075-.675.187-.937.112-.225-.037-.487-.337-.525-.524-.112-.375.188-.937.375-1.2zM9.838 22.492c.637-.075 1.35.225 1.8.6.374.3.786.824.936 1.274.15.6-.112 1.2-.637 1.35-.562.149-1.387-.188-1.724-.376-.487-.225-1.012-.674-1.35-1.162-.112-.15-.224-.375-.224-.6 0-.562.6-1.011 1.2-1.086zM8.564 9.635c-.263-.037-.6-.374-.675-.524-.3-.525-.075-1.5.225-1.912.45-.6 1.237-1.05 2.211-1.087.225 0 .488.038.675.262.412.413.225 1.387-.037 1.912-.3.487-1.012 1.124-1.575 1.312-.3.075-.637.112-.824.037zm-5.098 8.021c-.3 0-.524-.412-.637-.787-.15-.487-.337-1.087-.262-1.799.037-.6.225-1.2.75-1.274.562.337.786 1.05.861 1.986.038.638-.15 1.874-.712 1.874z"/>
    </g>
</svg>
