<svg xmlns="http://www.w3.org/2000/svg" width="37" height="63" viewBox="0 0 37 63">
    <g fill="#fff" fill-rule="nonzero">
        <path d="M21.038 25.53a4.092 4.092 0 0 0 1.239-.19 4.22 4.22 0 0 0 2.93-4.029c0-2.333-1.87-4.224-4.169-4.224-2.299 0-4.167 1.893-4.167 4.224 0 2.328 1.868 4.22 4.167 4.22z"/>
        <path d="M27.564 57.024c.05 1.309 1.106 2.33 2.382 2.28 1.277-.05 2.254-1.095 2.205-2.404l-.433-11.98h.002l-4.052-6.945 1.05-5.271s.526-3.778-.916-5.123c-.73-.681-1.495-1.541-2.07-2.218-1.047 1.353-2.663 2.22-4.475 2.22-3.147 0-5.708-2.626-5.708-5.853 0-.462.054-.912.153-1.344l-6.207-4.415a2.26 2.26 0 0 0-1.835-.362L5.21 9.876c.11-.071-.718-1.333-.32-2.339l2.503-5.242c.107-.276.393-.762-.175-1.434l-.7-.623a.52.52 0 0 0-.68.301L2.854 7.777c-.062.16.081.559.263.887l3.3 7.728c-.043.053-.093.1-.132.16-.728 1.076-.571 2.537.478 3.284l1.627 1.175 5.684 13.305-7.45 13.092-4.671 7.53a2.398 2.398 0 0 0 .705 3.267c1.074.708 2.503.38 3.195-.722l6.08-9.678 8.915-5.317 6.377 5.051.338 9.485zM14.473 25.4v6.161l-3.805-8.908 3.805 2.747z"/>
        <path d="M34.903 57.898c-.223 1.03-1.361 1.695-2.52 1.495L25.47 58.25l-.265 1.253 6.899 1.153c1.951.33 3.837-.788 4.215-2.513l-1.417-.244zM.2 59.851l1.455.862 1.323-1.953-1.455-.862zM16.176 57.898c-1.701 0-3.114.339-3.412.786l-.06 2.477c0 .53 1.555.959 3.472.959 1.918 0 3.473-.43 3.473-.96l-.06-2.476c-.298-.447-1.712-.786-3.413-.786z"/>
    </g>
</svg>
