<svg xmlns="http://www.w3.org/2000/svg" width="52" height="51" viewBox="0 0 52 51">
    <path fill="#fff" fill-rule="nonzero" d="M45.43.84H6.73C3.173.84.28 3.689.28 7.19v34.93h6.45v-.562l5.765-4.73h27.17l5.765 4.73v.562h6.45V7.19c0-3.501-2.893-6.35-6.45-6.35zM7.16 38.68v-25.8l3.44 22.458-3.44 3.342zm31.13-3.44H12.15L7.16 7.72h36.12l-4.99 27.52zM45 38.68l-3.44-3.342L45 12.88v25.8zm-18.92 6.88c-4.887 0-8.053-1.2-8.6-2.206.066-1.92 4.46-2.954 8.6-2.954s8.534 1.036 8.6 2.953c-.546 1.006-3.714 2.207-8.6 2.207zm0 .941c3.427 0 7.016-.681 8.6-1.973v3.078c0 2.045-4.326 3.114-8.6 3.114-4.17 0-8.6-1.118-8.6-3.189V44.53c1.584 1.29 5.173 1.971 8.6 1.971z"/>
</svg>
