<svg xmlns="http://www.w3.org/2000/svg" width="54" height="33" viewBox="0 0 54 33">
    <path fill="#fff" fill-rule="evenodd" d="M16.846 13.272c-9.322 0-15.362-2.535-16.406-4.658.126-4.05 8.507-6.235 16.406-6.235 7.9 0 16.28 2.188 16.406 6.233-1.042 2.125-7.085 4.66-16.406 4.66zm0 1.292c6.538 0 13.384-1.198 16.406-3.47v5.415c0 3.597-8.253 5.478-16.406 5.478C8.893 21.987.44 20.02.44 16.377v-5.28c3.022 2.27 9.868 3.467 16.406 3.467zm3.965 18.316c-1.057 0-1.914-.976-1.914-2.179 0-1.202.857-2.178 1.914-2.178 13.094 0 22.969-8.43 22.969-19.608 0-1.203.857-2.179 1.914-2.179 1.056 0 1.914.976 1.914 2.179 0 13.662-11.521 23.965-26.797 23.965zm30.898-21.787c-.525 0-1.05-.214-1.45-.638l-4.702-4.996-4.702 4.996a1.965 1.965 0 0 1-2.9 0 2.273 2.273 0 0 1 0-3.08L44.107.838a1.965 1.965 0 0 1 2.9 0l6.152 6.535a2.273 2.273 0 0 1 0 3.08c-.4.425-.925.639-1.45.639z"/>
</svg>
