<svg xmlns="http://www.w3.org/2000/svg" width="60" height="58" viewBox="0 0 60 58">
    <g fill="none" fill-rule="evenodd" transform="translate(1.44 1.44)">
        <ellipse cx="27.848" cy="27.52" stroke="#fff" stroke-width="2.752" rx="27.848" ry="27.52"/>
        <path fill="#fff" fill-rule="nonzero" d="M43.884 30.68l3.053 6.151c.127.314.382.565.636.753l9.54 7.595c.382.313.7.753.763 1.192 0 0 .89 1.632.509 1.946-3.244 2.573-14.946-7.406-14.946-7.406a2.987 2.987 0 0 1-.763-.565l-4.834-5.586-1.336 1.004-1.272 15.189c.128.44.128.879 0 1.318 0 0-.127 2.699-.89 2.762-5.342.439-3.88-18.892-3.88-18.892-.381-.816-.318-1.758.255-2.448l3.37-4.833 1.59-2.071a2.429 2.429 0 0 1-2.798.314l-.063-.063c-.764-.44-1.145-1.255-1.145-2.071l.19-3.892-1.208 9.603c-.063.502-.254.942-.636 1.255l-7.06 7.595c-.317.376-.763.565-1.271.69l-.318.377-.382.188S8.141 52.145 7.06 52.648c-.827.376-5.088-.628-6.042-.816C.7 51.769 0 51.58 0 51.267c0-.251.064-.879.19-1.507.064-.376.891-.188 1.273-.062.89.25 2.925.565 4.134.69a2.58 2.58 0 0 0 1.78-.502l11.067-9.352.382-.376 7.377-9.792c.255-.376.445-.816.445-1.255l.318-6.841c0-.377-.063-.753-.19-1.067l-.7-1.507c.064.314.127.565.19.88.255 1.694-1.398 3.012-2.988 2.51l1.08.878 1.464 4.457v1.694l-2.354 3.138-.7-2.51c-.063-.126-.063-.251-.126-.377l-2.672-5.648c-.19-.377-.254-.754-.19-1.193l.19-1.946c.064-.69.446-1.318 1.082-1.757l2.098-1.318c.255-.188.51-.377.7-.69l1.336-2.009c.318-.502.826-.879 1.462-.941l2.29-.503c.509-.125 1.081 0 1.59.251l10.43 5.524c.255.125.446.314.636.502l2.735 3.138c.318.377.51.879.573 1.38l.127 1.947c0 .502-.127 1.004-.382 1.443l-.763 2.134zm-24.04-12.49l1.716-.502c.764-.251 1.336-.816 1.527-1.57l1.081-3.702c.254-.753 0-1.632-.572-2.197l-.382-.502c-.954-1.004-2.417-1.57-3.816-1.444-2.99.251-4.96 2.825-4.198 5.65.318 1.317 1.082 2.635 2.544 3.828.573.502 1.4.69 2.1.44z"/>
    </g>
</svg>
