<svg xmlns="http://www.w3.org/2000/svg" width="49" height="49" viewBox="0 0 49 49">
    <path fill="#fff" fill-rule="nonzero" d="M15.824 36.12c0 .373.074.813.306 1.27H1.99c-1.927 0-1.349-1.48-1.349-1.48l3.221-7.33c.884-2.026 1.724-2.044 3.593-2.044h16.87c3.76 0 4.078-.501 5.057-1.998.13-.198 1.201-2.042 2.962-5.094l6.19 2.95-4.87 8.459-.358-.001c-4.254 0-8.274.348-11.319.98-1.585.329-2.862.727-3.794 1.184-1.958.96-2.37 2.218-2.37 3.103zM48.72 4.696V.72h-5.601s-4.152 7.224-5.922 10.3l6.186 2.947 5.337-9.27zm-6.995 12.152l-6.187-2.947-1.533 2.661 6.187 2.948 1.533-2.662zm-8.419 15.696c-8.512 0-15.413 1.432-15.413 3.198 0 1.765 6.9 3.197 15.413 3.197s15.414-1.432 15.414-3.197c0-1.766-6.9-3.198-15.414-3.198zm0 7.87c-8.512 0-15.413-1.432-15.413-3.198v8.466c0 1.766 6.9 3.197 15.413 3.197s15.414-1.43 15.414-3.196v-8.467c0 1.766-6.9 3.198-15.414 3.198z"/>
</svg>
