<svg xmlns="http://www.w3.org/2000/svg" width="61" height="28" viewBox="0 0 61 28">
    <path fill="#fff" fill-rule="evenodd" d="M21.311 16.06c10.587 1.676 17.856.177 19.384-1.802.512-4.155-8.653-7.892-17.623-9.312-3.183-.504-6.478-.738-9.442-.647-5.39.166-9.683 1.407-10.196 4.056.84 2.355 7.293 6.028 17.877 7.705zm-.508 1.841c-7.87-1.246-15.879-4.018-19.076-7.377l-1.05 6.63c-.698 4.404 8.873 8.28 18.687 9.834 9.574 1.517 20.13.721 20.836-3.74l1.024-6.465c-4.077 2.203-12.55 2.365-20.421 1.118zm36.302-.351l-1.454-3.118-11.81 1.598 1.454 3.117 11.81-1.597zM47.013 3.106L45.56-.01l-9.44 3.42 1.454 3.117 9.44-3.42zM60.75 8.38l-1.454-3.117-15.933 3.09 1.454 3.117L60.75 8.38z"/>
</svg>
