<svg xmlns="http://www.w3.org/2000/svg" width="36" height="45" viewBox="0 0 36 45">
    <g fill="#fff" fill-rule="nonzero">
        <path d="M13.152 22.193c-.191 0-.316.042-.414.146l-1.188 1.356c1.576.59 7.307 2.957 7.302 2.962 1.561.688 1.686.71 2.085 2.211l2.889 12.202c1.11 4.667-4.621 4.97-5.352 2.003L15.663 31.72l-4.17-1.737c.596 1.71.254 2.07-.415 3.718-1.266 2.837-2.738 6.534-4.154 9.204-1.909 3.582-6.603 1.09-5.285-2.008l3.288-7.717c.596-1.393.617-1.382.353-1.7-1.136-1.382-4.144-4.61-4.808-6.065-.555-1.21-.602-2.242-.239-3.52.623-2.2 8.122-9.193 10.995-11.92 1.105-1.048 2.225-1.43 3.703-.944 1.784.584 14.455 9.052 16.82 11.154 1.768 1.575.166 5.407-2.796 4.87l-15.803-2.863zm5.171-5.532l-1.084 1.131 6.079 2.138-4.995-3.27zM17.561 0c2.428 0 4.39 1.977 4.39 4.412 0 2.435-1.962 4.412-4.39 4.412-2.423 0-4.39-1.977-4.39-4.412C13.17 1.977 15.138 0 17.56 0zM32.485 9.706A3.52 3.52 0 0 1 36 13.233a3.524 3.524 0 0 1-3.515 3.532c-1.935 0-3.51-1.582-3.51-3.532a3.518 3.518 0 0 1 3.51-3.527z"/>
    </g>
</svg>
