<svg xmlns="http://www.w3.org/2000/svg" width="45" height="48" viewBox="0 0 45 48">
    <g fill="#fff" fill-rule="nonzero">
        <g transform="translate(0 5.76)">
            <ellipse cx="22.523" cy="8.552" rx="6.876" ry="6.894"/>
            <path d="M23.422 16.798h-2.146V42.24h2.39V16.798M26.056 16.798V42.24h2.39V16.828a6.433 6.433 0 0 0-.597-.03h-1.793zM16.495 16.828V42.24h2.39V16.798h-1.792c-.208 0-.405.013-.598.03zM.643.492a.455.455 0 0 0-.367.442v14.807c0 .137.061.268.167.355l11.271 9.378V42.24h2.391V17.705h-.001c-.017-.017-.031-.035-.051-.05L6.306 11.99V.935a.456.456 0 0 0-.343-.439M5.018.472h-3.43M38.966.498a.457.457 0 0 0-.334.437v11.054l-7.748 5.666c-.02.014-.033.033-.05.05l.002.003V42.24h2.392V25.47l11.266-9.374a.463.463 0 0 0 .168-.355V.934a.456.456 0 0 0-.375-.444M43.34.472h-3.43"/>
        </g>
        <path d="M5.723 5.247c.316 0 .574-.26.574-.576v-1.44a.577.577 0 0 0-.574-.576h-.575a.577.577 0 0 1-.574-.576V.576A.577.577 0 0 0 3.999 0H.841a.577.577 0 0 0-.575.576v4.095c0 .317.259.576.575.576h4.882zM39.224 5.247a.577.577 0 0 1-.574-.576v-1.44c0-.316.259-.576.574-.576h.575c.315 0 .574-.259.574-.576V.576c0-.317.258-.576.575-.576h3.158c.316 0 .575.26.575.576v4.095a.577.577 0 0 1-.575.576h-4.882z"/>
    </g>
</svg>
