<svg xmlns="http://www.w3.org/2000/svg" width="45" height="45" viewBox="0 0 45 45">
    <path fill="#fff" fill-rule="evenodd" d="M38.44 6.576A22.517 22.517 0 0 0 27.762.605l-.257-.057c-2.922-.657-6.111-.726-9.031-.192l-.223.041A22.376 22.376 0 0 0 6.586 6.575C2.34 10.822 0 16.476 0 22.497c0 6.02 2.339 11.673 6.586 15.92C10.834 42.662 16.49 45 22.513 45c6.023 0 11.679-2.338 15.926-6.583a22.783 22.783 0 0 0 3.853-5.142l.191-.35-.005-.006c4.508-8.641 2.86-19.448-4.039-26.343zM11.536 35.709a46.023 46.023 0 0 0 6.046 2.866c2.68 1.034 6.745 2.267 10.896 2.267 1.416 0 2.771-.143 4.03-.424.282-.063.56-.134.837-.212-3.241 1.99-6.945 3.032-10.831 3.032-3.277 0-6.54-.781-9.441-2.26-1.724-1.968-1.753-3.737-1.537-5.27zm-7.582-3.897a20.572 20.572 0 0 1-1.878-5.597c.57-7.629 4.547-12.31 7.784-14.895 2.733-2.182 5.37-3.275 6.535-3.69.67.72 1.278 1.625 1.806 2.693-1.702 1.289-5.593 4.431-8.91 8.541-2.497 3.094-4.141 6.097-4.887 8.927-.362 1.374-.512 2.721-.45 4.021zM2.148 18.52a20.732 20.732 0 0 1 8.474-13.038c.297-.045.606-.067.923-.067 1.18 0 2.288.311 3.292.925a25.795 25.795 0 0 0-6.056 3.587c-2.128 1.695-4.847 4.481-6.633 8.593zm37.122 4.87c.13-1.84.19-5.039-.495-8.52-.61-3.1-1.688-5.811-3.206-8.06a16.825 16.825 0 0 0-.764-1.042c.843.62 1.643 1.307 2.39 2.053a20.519 20.519 0 0 1 5.867 11.777c-.848 1.753-2.122 3.027-3.792 3.792zm-1.82.601c-1.037.229-2.217.319-3.494.268-.318-1.679-1.327-6.505-3.218-11.318-1.377-3.508-2.952-6.333-4.683-8.396-.981-1.171-2.027-2.105-3.118-2.79a20.81 20.81 0 0 1 4.304.532c5.227 2.093 8.524 6.434 9.8 12.906.781 3.939.538 7.522.41 8.798zm-14.467-2.556l-.534-.213c-.562-8.305-2.723-13.76-6.423-16.213a8.025 8.025 0 0 0-2.635-1.157 20.626 20.626 0 0 1 5.16-1.734c5.085.235 8.54 6.36 10.545 11.456 1.69 4.302 2.645 8.556 3.035 10.522-3.832-.516-7.535-2.01-9.148-2.661zm-12.327-1.456c3.007-3.73 6.588-6.69 8.263-7.989.917 2.477 1.51 5.597 1.766 9.282-.732.286-2.014.895-3.5 2.073-2.081 1.65-5.005 4.807-7.13 10.526l-.022.114c-.02.162-.052.347-.09.562l-.04.231c-.182 1.04-.443 2.537.077 4.263a20.894 20.894 0 0 1-2.146-1.872c-.17-.168-.333-.338-.436-.439-3.08-4.615-1.984-10.251 3.258-16.751zm17.823 19.105c-7.128 0-14.235-3.817-16.553-5.186a27.485 27.485 0 0 1 1.626-3.443c1.74.64 6.81 2.386 12.387 3.232 3.969.6 7.507.625 10.337.067 1.827-.363 3.415-.976 4.734-1.826-.085.167-.172.331-.259.491-2.109 3.357-5.011 5.47-8.627 6.282a16.77 16.77 0 0 1-3.645.383zm7.457-7.06c-2.612.519-5.945.491-9.725-.077-5.158-.78-9.94-2.386-11.72-3.026 1.118-1.672 2.38-3.074 3.756-4.17 1.601-1.278 2.918-1.79 3.4-1.95.142.054.336.132.545.216l.136.055c1.886.758 6.303 2.537 10.763 2.9 4.535.36 7.964-.8 10.173-3.444a20.812 20.812 0 0 1-.706 5.356c-1.28 2.129-3.509 3.522-6.622 4.14z"/>
</svg>
