<svg xmlns="http://www.w3.org/2000/svg" width="45" height="51" viewBox="0 0 45 51">
    <g fill="#fff" fill-rule="nonzero">
        <ellipse cx="22.5" cy="5.724" rx="6.136" ry="5.724"/>
        <path d="M43.222 21.047l-17.714-6.72c-.564-.569-1.354-.796-2.257-.796h-3.836c-1.918 0-3.385 1.48-3.385 3.416v9.795c0 .341 0 .683.113.91.564 9.681-13.089 16.629-13.653 16.742-1.467.114-2.595 1.481-2.482 3.075.113 1.481 1.467 2.62 3.046 2.506 6.093-.683 15.12-8.428 18.956-16.286 3.836.683 7.56 4.328 8.237 6.264.451 1.366-.79 3.644-3.498 6.378-1.128 1.025-1.128 2.847 0 3.872a2.63 2.63 0 0 0 1.918.797 2.63 2.63 0 0 0 1.918-.797c4.513-4.442 7.221-9.111 5.867-12.642-1.24-3.53-6.092-8.086-9.703-9.111v-7.744l14.555 5.58c.113.114.339.114.452.114 1.24.228 2.595-.456 3.046-1.708.564-1.48-.113-3.075-1.58-3.645z"/>
        <ellipse cx="40.909" cy="11.449" rx="4.091" ry="4.163"/>
    </g>
</svg>
