<svg xmlns="http://www.w3.org/2000/svg" width="57" height="54" viewBox="0 0 57 54">
    <g fill="#fff" fill-rule="nonzero">
        <g transform="translate(3.288)">
            <ellipse cx="23.019" cy="4.32" rx="4.385" ry="4.32"/>
            <path d="M36.653 31.489l1.712 2.403-11.188 7.693a3.058 3.058 0 0 1-2.636.397 2.992 2.992 0 0 1-1.925-1.816l-.693-1.847 3.894-6.635 1.09 2.933 5.588-3.847c1.35-.928 3.21-.606 4.158.719z"/>
            <path d="M53.712 11.378l-22.6 1.928c-.052.484-2.646 14.459-2.646 14.459a4.82 4.82 0 0 1-2.158 3.205L13.583 52.503c-.849 1.431-2.724 1.922-4.191 1.096l-2.66-1.503 12.322-20.843.489-.825 1.445-2.438c.03-.05.03-.11 0-.16a.165.165 0 0 0-.141-.08.165.165 0 0 0-.143.079l-1.306 2.206-.502-1.322a4.821 4.821 0 0 1-.337-2.129c0-.025.007-.058.007-.083l.924-11.918a.166.166 0 0 0-.152-.174.16.16 0 0 0-.123.035.152.152 0 0 0-.055.113l-.218 2.831-4.204 4.108c-.408.4-.901.707-1.445.897L.257 27.029A4.17 4.17 0 0 1 0 25.604c0-1.761 1.125-3.335 2.818-3.94l8.957-3.186 6.217-6.075c.26-.266.569-.483.91-.638 0 0 10.686-2.522 10.977-2.548 4.897-.432 19.45-1.657 19.582-1.657 2.215.005 4.06 1.662 4.25 3.818z"/>
        </g>
        <path d="M.101 41.362c-.063-1.268.065-2.368.185-2.972.05-.245.222-.432.44-.471.503-.094 1.408-.159 2.45-.042.078.01.113.117.057.18L.26 41.432c-.057.063-.156.02-.159-.07zM9.794 45.148c.155 1.58.027 3.006-.119 3.714-.052.258-.24.452-.472.486-.575.083-1.676.052-2.91-.241-.089-.022-.12-.144-.057-.218L9.6 45.071c.066-.078.182-.03.193.077zM3.679 38.012a.135.135 0 0 1 .123-.047c1.467.261 3.094.907 4.241 2.314.943 1.156 1.431 2.665 1.656 4.117a.179.179 0 0 1-.04.144l-3.84 4.358a.134.134 0 0 1-.14.044c-1.364-.412-2.807-1.158-3.84-2.426C.784 45.223.323 43.591.16 42.096c-.004-.051.01-.102.042-.136l3.478-3.948zm-.782 3.912a.132.132 0 0 0 .205 0l.103-.117a.132.132 0 0 1 .204 0l.13.148a.179.179 0 0 1 0 .232l-.103.117a.179.179 0 0 0 0 .232.132.132 0 0 0 .205 0l.103-.117a.132.132 0 0 1 .204 0l.13.147a.179.179 0 0 1 0 .232l-.103.117a.179.179 0 0 0 0 .232.132.132 0 0 0 .204 0l.103-.117a.132.132 0 0 1 .205 0l.13.147a.179.179 0 0 1 0 .232l-.104.117a.179.179 0 0 0 0 .232.132.132 0 0 0 .205 0l.103-.117a.132.132 0 0 1 .204 0l.13.148a.179.179 0 0 1 0 .232l-.103.117a.179.179 0 0 0 0 .231.132.132 0 0 0 .205 0l.103-.116a.132.132 0 0 1 .204 0l.13.147a.179.179 0 0 1 0 .232l-.103.117a.179.179 0 0 0 0 .232.132.132 0 0 0 .204 0l.103-.117a.132.132 0 0 1 .205 0l.13.147a.179.179 0 0 1 0 .232l-.103.117a.179.179 0 0 0 0 .232.132.132 0 0 0 .204 0l.103-.117a.132.132 0 0 1 .204 0l.29.33a.132.132 0 0 0 .205 0 .179.179 0 0 0 0-.233l-.29-.329a.179.179 0 0 1 0-.232l.158-.18a.179.179 0 0 0 0-.231.132.132 0 0 0-.204 0l-.159.18a.132.132 0 0 1-.204 0l-.13-.148a.179.179 0 0 1 0-.232l.158-.18a.179.179 0 0 0 0-.232.132.132 0 0 0-.204 0l-.158.18a.132.132 0 0 1-.205 0l-.13-.147a.179.179 0 0 1 0-.232l.159-.18a.179.179 0 0 0 0-.232.132.132 0 0 0-.205 0l-.158.18a.132.132 0 0 1-.204 0l-.13-.148a.179.179 0 0 1 0-.232l.158-.18a.179.179 0 0 0 0-.231.132.132 0 0 0-.204 0l-.159.18a.132.132 0 0 1-.204 0l-.13-.148a.179.179 0 0 1 0-.232l.158-.18a.179.179 0 0 0 0-.232.132.132 0 0 0-.204 0l-.158.18a.132.132 0 0 1-.205 0l-.13-.147a.179.179 0 0 1 0-.232l.159-.18a.179.179 0 0 0 0-.232.132.132 0 0 0-.205 0l-.158.18a.132.132 0 0 1-.204 0l-.13-.147a.179.179 0 0 1 0-.232l.158-.18a.179.179 0 0 0 0-.232.132.132 0 0 0-.204 0l-.159.18a.132.132 0 0 1-.204 0l-.287-.326a.132.132 0 0 0-.204 0 .179.179 0 0 0 0 .232l.286.326a.179.179 0 0 1 0 .232l-.103.116a.179.179 0 0 0 0 .232z"/>
    </g>
</svg>
