<svg xmlns="http://www.w3.org/2000/svg" width="56" height="56" viewBox="0 0 56 56">
    <g fill="none" fill-rule="evenodd">
        <g fill="#fff" fill-rule="nonzero">
            <path d="M55.708 47.142c.183 3.152-.188 5.889-.536 7.391a1.544 1.544 0 0 1-1.274 1.172c-1.452.232-4.068.393-7.083.103-.225-.023-2.363-.29-2.203-.447L55.25 44.93c.165-.157.45 1.988.459 2.212zM27.678 37.725c-.45-3.931-.078-7.477.343-9.239a1.602 1.602 0 0 1 1.366-1.207c1.663-.206 4.847-.13 8.416.6.257.053 2.99.424 2.807.607L28.237 39.955c-.193.192-.527-1.962-.56-2.23z"/>
            <path d="M45.363 55.472a.427.427 0 0 1-.358.117c-4.242-.649-8.948-2.254-12.265-5.755-2.726-2.876-4.137-6.627-4.787-10.24a.401.401 0 0 1 .114-.358l11.106-10.84a.428.428 0 0 1 .403-.106c3.945 1.024 8.119 2.88 11.106 6.032 3.051 3.215 4.384 7.275 4.856 10.995a.396.396 0 0 1-.119.336l-10.056 9.82zm2.258-9.73a.422.422 0 0 0-.59 0l-.299.29a.422.422 0 0 1-.59 0l-.376-.366a.398.398 0 0 1 0-.577l.298-.29a.398.398 0 0 0 0-.577.422.422 0 0 0-.592 0l-.297.29a.422.422 0 0 1-.591 0l-.376-.366a.398.398 0 0 1 0-.577l.298-.29a.398.398 0 0 0 0-.578.422.422 0 0 0-.591 0l-.298.291a.422.422 0 0 1-.591 0l-.376-.367a.398.398 0 0 1 0-.576l.298-.291a.398.398 0 0 0 0-.577.422.422 0 0 0-.59 0l-.299.29a.422.422 0 0 1-.59 0l-.376-.366a.398.398 0 0 1 0-.577l.297-.29a.398.398 0 0 0 0-.577.422.422 0 0 0-.59 0l-.298.29a.422.422 0 0 1-.591 0l-.376-.366a.398.398 0 0 1 0-.577l.298-.29a.398.398 0 0 0 0-.578.422.422 0 0 0-.591 0l-.298.291a.422.422 0 0 1-.591 0l-.376-.367a.398.398 0 0 1 0-.576l.298-.291a.398.398 0 0 0 0-.577.422.422 0 0 0-.591 0l-.298.29a.422.422 0 0 1-.59 0l-.84-.818a.422.422 0 0 0-.59 0 .398.398 0 0 0 0 .577l.838.819a.398.398 0 0 1 0 .576l-.458.448a.398.398 0 0 0 0 .576.422.422 0 0 0 .59 0l.46-.447a.422.422 0 0 1 .59 0l.376.367a.398.398 0 0 1 0 .577l-.458.447a.398.398 0 0 0 0 .577.422.422 0 0 0 .59 0l.459-.447a.422.422 0 0 1 .59 0l.377.366a.398.398 0 0 1 0 .577l-.459.447a.398.398 0 0 0 0 .577.422.422 0 0 0 .591 0l.459-.447a.422.422 0 0 1 .59 0l.376.367a.398.398 0 0 1 0 .576l-.458.448a.398.398 0 0 0 0 .576.422.422 0 0 0 .591 0l.458-.447a.422.422 0 0 1 .591 0l.376.367a.398.398 0 0 1 0 .577l-.458.447a.398.398 0 0 0 0 .577.422.422 0 0 0 .59 0l.459-.447a.422.422 0 0 1 .591 0l.376.366a.398.398 0 0 1 0 .577l-.458.447a.398.398 0 0 0 0 .577.422.422 0 0 0 .59 0l.459-.447a.422.422 0 0 1 .59 0l.376.367a.398.398 0 0 1 0 .576l-.458.448a.398.398 0 0 0 0 .576.422.422 0 0 0 .591 0l.458-.447a.422.422 0 0 1 .591 0l.83.81a.422.422 0 0 0 .59 0 .398.398 0 0 0 0-.577l-.829-.81a.398.398 0 0 1 0-.576l.298-.291a.398.398 0 0 0 0-.577z"/>
        </g>
        <path stroke="#fff" stroke-width="3" d="M30.528 19.32C25.094 5.058 17.962-.376 9.132 3.02M27.472 23.396c-6.114-10.188-12.227-13.245-18.34-9.17C3.02 18.302.982 26.113 3.02 37.66M21.358 27.472c-6.113-6.793-9.17-4.755-9.17 6.113"/>
    </g>
</svg>
