<svg xmlns="http://www.w3.org/2000/svg" width="40" height="54" viewBox="0 0 40 54">
    <g fill="#fff" fill-rule="nonzero" transform="translate(-2)">
        <path d="M41.334 25.827l-6.648-12.223-6.553-3.147H17.1l-5.4 7.954c-.781 1.152-.528 2.752.567 3.573 1.094.822 2.615.555 3.396-.596l3.944-5.808h2.473l-5.725 13.249c-1.031 2.385-.16 5.15 1.917 6.477l-4.267 8.08-6.98 6.102c-1.024.917-1.148 2.533-.277 3.61.871 1.078 2.408 1.208 3.433.291l7.652-6.704 4.873-9.227 3.564 3.124-4.006 9.71c-.602 1.266-.114 2.804 1.088 3.437 1.203.633 2.666.12 3.267-1.145l5.731-13.34-7.105-6.23 4.065-9.408-1.498 3.467 12.817.034c.624 0 1.015-.71.705-1.28zM30.01 21.984l1.298-3.003c.113-.262.188-.53.257-.8l2.068 3.803H30.01z"/>
        <ellipse cx="31.796" cy="5.123" rx="4.87" ry="5.123"/>
        <ellipse cx="8.188" cy="24.396" rx="3.652" ry="6.403" transform="rotate(-51.945 8.188 24.396)"/>
    </g>
</svg>
