<svg xmlns="http://www.w3.org/2000/svg" width="42" height="54" viewBox="0 0 42 54">
    <g fill="none" fill-rule="evenodd">
        <path d="M36.105 13.967l.385-.273.289.364-.289.274c-.096.089-.096.18 0 .271.098.092.193.092.289 0l.29-.271.384.271-.288.365c-.096.09-.096.18 0 .271.098.091.194.091.288 0l.295-.271.385.271-.288.365c-.097 0-.097.185 0 .276.096.089.192.089.288 0l.29-.276.288.185c0 .09.194.09.29 0v-.277l-.29-.272.29-.272c.095 0 .095-.092.095-.092v-.18c-.095-.091-.289-.091-.385 0l-.289.272-.386-.364.386-.272v-.09-.183c-.097-.091-.29-.091-.29 0l-.385.273-.294-.273.294-.365.096-.089c0-.092-.096-.092-.096-.183-.097-.09-.196-.09-.294 0l-.385.272-.29-.272.29-.272c0-.092.096-.092.096-.183 0-.09-.096-.09-.096-.181-.096-.09-.192-.09-.29 0l-.288.364-.289-.273c-.096-.091-.194-.091-.29 0-.096.09-.096.18 0 .273l.194.272-.29.272c-.097.09-.097.183 0 .273.097.091.29.091.29 0z"/>
        <path fill="#fff" fill-rule="nonzero" d="M33.595 13.058c.096 0 .096 0 .194-.09l2.219-2.095.097-.09v-.092c-.097 0-.097-.09-.193-.09-1.252-.182-2.221.09-2.221.09-.096 0-.096 0-.096.092 0 0-.192.454-.192 1.182 0 .271.097.639.097.912 0 .09.095.09.095.18zM41.318 15.697c0-.093 0-.093-.096-.093h-.1l-2.315 2.184c-.096 0-.096.091 0 .091 0 .091 0 .091.097.091 1.253.181 2.217 0 2.217 0 .1 0 .1-.09.1-.09s.192-.545.192-1.182c0-.365-.095-.729-.095-1zM24.719 10.329c2.8 0 5.113-2.095 5.113-4.73 0-2.64-2.314-4.824-5.113-4.824-2.8 0-5.016 2.184-5.016 4.824 0 2.635 2.217 4.73 5.016 4.73z"/>
        <path fill="#fff" fill-rule="nonzero" d="M25.297 26.16l1.35-7.096 1.45 3.912c.29.726.964 1.273 1.831 1.364h.29c2.027 0 5.405-5.462 6.56-7.005.387.18.773.363 1.162.453h.096l3.085-2.912v-.09c-.288-.909-.868-1.727-1.542-2.454-.772-.64-1.639-1.185-2.606-1.458h-.096l-3.088 2.912v.273l-2.893 3.729c-2.8-7.369-4.148-6.095-13.029-8.55L4.067.412C3.007-.316 1.658-.044.979.958c-.674.908-.482 2.184.583 2.91l14.473 9.373c-.291 18.104-2.895 12.279 8.299 26.017l-5.022 11.376c-.577 1.272.098 2.73 1.45 3.184.29.182.58.182.965.182.965 0 1.932-.545 2.413-1.458 3.86-8.914 8.394-11.281 2.218-18.833l3.57 3.094 5.598 12.372c.386.911 1.35 1.458 2.414 1.458.29 0 .675-.091.965-.183 3.763-1.546-3.474-15.468-5.117-16.92l-8.49-7.37zm10.518-12.466l.29-.272-.193-.272c-.096-.092-.096-.183 0-.273.096-.091.193-.091.29 0l.288.273.289-.364c.097-.09.193-.09.29 0 0 .09.096.09.096.181 0 .09-.096.09-.096.183l-.29.272.29.272.384-.272c.098-.09.197-.09.295 0 0 .09.096.09.096.183l-.096.09-.295.364.295.273.385-.273c0-.091.192-.091.29 0v.273l-.386.272.386.364.288-.272c.096-.091.29-.091.385 0v.18s0 .092-.095.092l-.29.272.29.272v.277c-.096.09-.29.09-.29 0l-.289-.185-.29.276c-.096.089-.192.089-.288 0-.096-.091-.096-.276 0-.276l.288-.365-.385-.271-.294.272c-.095.09-.19.09-.288 0-.096-.09-.096-.181 0-.272l.288-.364-.384-.272-.29.272c-.096.092-.191.092-.289 0-.096-.09-.096-.183 0-.272l.289-.273-.289-.365-.385.274c0 .09-.193.09-.29 0-.096-.091-.096-.184 0-.274z"/>
    </g>
</svg>
