<svg xmlns="http://www.w3.org/2000/svg" width="47" height="47" viewBox="0 0 47 47">
    <g fill="none" fill-rule="evenodd" stroke="#fff">
        <path fill="#fff" d="M23.5 46C11.094 46 1 35.906 1 23.5S11.094 1 23.5 1 46 11.094 46 23.5 35.906 46 23.5 46zm0-43.529c-11.596 0-21.029 9.433-21.029 21.029S11.904 44.529 23.5 44.529 44.529 35.096 44.529 23.5 35.096 2.471 23.5 2.471z"/>
        <path fill="#fff" d="M45.375 27.875l-6.25-7.582.715-9.918 1.518.104-.672 9.334 4.689 5.35zM7.25 18.64l.43-10.765 1.435.063L8.5 19.125zM22.007 7.875l-7.882-3.207.587-1.229 7.306 2.973 9.039-3.537.568 1.236zM31.051 44.125l-1.301-.707 2.886-7.713 9.803-2.83.436 1.455-9.221 2.643zM18.443 44.75l-4.556-8.559-8.512-1.244.216-1.447 9.254 1.352 4.905 9.215z"/>
        <path fill="#fff" d="M7.345 18.125l1.155 1L2.155 24.5l-.838-.928z"/>
        <path stroke-width="3" d="M27.93 16.02a1.12 1.12 0 0 0-1.156-.635l-8.77 1.117a1.124 1.124 0 0 0-.962.906l-1.647 8.684c-.091.479.137.962.564 1.196l7.751 4.25c.428.233.955.167 1.31-.167l6.438-6.06c.353-.334.454-.857.247-1.297L27.93 16.02z"/>
    </g>
</svg>
