<svg xmlns="http://www.w3.org/2000/svg" width="54" height="54" viewBox="0 0 54 54">
    <g fill="#fff" fill-rule="evenodd">
        <path fill-rule="nonzero" d="M41.436 11.38a5.817 5.817 0 1 0-7.77 8.66 5.817 5.817 0 0 0 7.77-8.66z"/>
        <path fill-rule="nonzero" d="M24.626 42.967c1.357-1.769 2.204-3.39 2.72-4.61.2-.321.406-.703.622-1.158 1.554-4.017 4.998-7.804 7.283-10.536-.14.001-.275 0-.405-.002-1.957-.035-3.183-.4-3.409-.472a2.672 2.672 0 0 1-1.844-2.573 2.662 2.662 0 0 1 3.446-2.49c.11.03.225.056.385.085.317.057.838.127 1.516.14.617.01 1.24-.034 1.867-.118a2.766 2.766 0 0 0-.687-1.01c-1.614-1.493-4.882-1.967-7.746.634-3.917 3.599-5.817 6.298-7.924 11.474-.785 2.449-.205 4.025.836 5.127-.674 1.199-1.73 2.695-3.366 4.224-2.218 2.066-5.504 4.214-10.49 5.739a2.92 2.92 0 1 0 1.704 5.587c7.96-2.417 12.776-6.49 15.492-10.041z"/>
        <path fill-rule="nonzero" d="M33.587 20.603c-.177-.032-.797-2.522-.797-.81 0 1.713-.257.812-.265.81l-1.063-.563c-1.112-.347-2.83 1.829-3.186 2.94-.358 1.118 1.007 4.156 2.124 4.514.155.05 2.332-.565 4.249-.531 2.026.037 5.219-1.02 8.445-2.497 3.228-1.473 6.803-4.072 10.307-8.423.308-.382.462-.84.47-1.295a2.124 2.124 0 0 0-3.778-1.37c-3.146 3.899-6.173 6.037-8.765 7.225-2.593 1.184-4.85.543-6.341.518-.703-.012-1.049-.454-1.4-.518z"/>
        <path fill-rule="nonzero" d="M38.469 5.213c.161-.077.282-.128.352-.156l.067-.026A2.124 2.124 0 0 0 37.545 1c-.154.05-1.326.455-2.897 1.554-1.661 1.16-3.769 3.116-5.511 6.207-1.745 3.09-3.11 7.294-3.387 12.873a2.119 2.119 0 0 0 2.015 2.228 2.124 2.124 0 0 0 2.228-2.016c.253-5.003 1.445-8.513 2.843-10.998 1.403-2.481 3.027-3.958 4.249-4.815a10.075 10.075 0 0 1 1.384-.82zM3.874 41.145a5.782 5.782 0 0 1-.38-.067l-.07-.016a2.124 2.124 0 0 0-1.14 4.092c.156.044 1.354.364 3.27.332 2.027-.034 4.867-.477 8.04-2.065 3.175-1.585 6.657-4.307 10.007-8.778a2.119 2.119 0 0 0-.425-2.974 2.124 2.124 0 0 0-2.974.426c-3.008 4.006-5.959 6.25-8.507 7.527-2.55 1.273-4.723 1.589-6.215 1.616a10.075 10.075 0 0 1-1.606-.093z"/>
        <path d="M52.24 6.843a5.167 5.167 0 1 0-10.332-.182 5.167 5.167 0 0 0 10.333.182z"/>
    </g>
</svg>
