<svg xmlns="http://www.w3.org/2000/svg" width="48" height="60" viewBox="0 0 48 60">
    <path fill="#fff" fill-rule="nonzero" d="M33.477 17.091c0-2.67 2.234-4.833 4.991-4.833 2.758 0 4.992 2.164 4.992 4.833s-2.236 4.831-4.992 4.831c-2.757 0-4.991-2.162-4.991-4.83zM22.384 8.204c2.341 0 4.239-1.836 4.239-4.102C26.623 1.837 24.724 0 22.384 0s-4.237 1.837-4.237 4.102c0 2.266 1.897 4.102 4.237 4.102zm24.827 22.458l-7.635-5.319c-.071-.049-.145-.084-.221-.122l.002-.005-.05-.022a1.312 1.312 0 0 0-.132-.058l-9.44-4.129-4.585-2.448-1.371-7.23c-.19-.997-1.178-1.659-2.208-1.475-1.03.183-1.712 1.14-1.523 2.137l1.533 8.087c.102.54.452 1.01.95 1.277l5.821 3.107c.018.011.037.017.056.026-.63 5.445-2.963 8.595-3.528 9.287l-9.092 9.632-13.606.777c-1.278.072-2.253 1.133-2.178 2.371.073 1.192 1.094 2.112 2.312 2.112.045 0 .092 0 .138-.003l14.547-.83a2.353 2.353 0 0 0 1.574-.727l8.048-8.526 2.49 1.408 4.55 9.86-4.195 6.75c-.66 1.062-.307 2.44.79 3.08.374.218.786.321 1.195.321.785 0 1.554-.387 1.987-1.085l4.819-7.754a2.18 2.18 0 0 0 .13-2.072l-4.928-10.685c2.594-2.8 4.837-6.58 5.97-8.637l4.104 2.86-2.639 3.99c-.565.856-.308 1.992.576 2.54.316.194.67.287 1.021.287.626 0 1.237-.299 1.6-.845l3.606-5.456c.546-.822.33-1.911-.488-2.48z"/>
</svg>
