<svg xmlns="http://www.w3.org/2000/svg" width="45" height="49" viewBox="0 0 45 49">
    <g fill="none" fill-rule="evenodd">
        <path stroke="#fff" stroke-width="1.768" d="M38.11 7.537L10.335 1.124 1.225 40.58l27.777 6.413 1.369-5.93.588-.093a15.587 15.587 0 0 0 8.417-4.19c6.009-5.806 6.009-15.24 0-21.046a15.366 15.366 0 0 0-2.167-1.745l-.51-.339 1.412-6.112z"/>
        <g fill="#fff" fill-rule="nonzero">
            <path d="M28.443 42.051c4.203 0 8.364-1.559 11.548-4.636 6.367-6.153 6.367-16.164 0-22.318-6.368-6.153-16.727-6.153-23.095 0-6.368 6.154-6.368 16.165 0 22.318 3.184 3.077 7.345 4.636 11.547 4.636zm-10.06-25.518c2.759-2.666 6.41-4.02 10.06-4.02 3.651 0 7.302 1.354 10.062 4.02 5.561 5.375 5.561 14.072 0 19.446-5.562 5.375-14.562 5.375-20.123 0-5.561-5.374-5.561-14.071 0-19.446z"/>
            <path d="M22.712 33.436c.297 0 .552-.123.764-.328l5.52-5.785c.17-.205.296-.451.296-.697v-7.754c0-.575-.467-1.026-1.06-1.026-.595 0-1.062.451-1.062 1.026v7.384l-5.264 5.457c-.382.41-.382 1.066.042 1.436.212.205.51.287.764.287z"/>
        </g>
        <path fill="#fff" d="M37 12.735l1-4.898L11 .98 1 40.163l28 6.857 1-5.877h-4l-3-.98c-1.667-.653-2.667-1.306-3-1.959-.5-.98-3-2.939-3-2.939l-3-3.918-1-4.898 1-2.939 1-3.918 3-3.919 3-1.959s2-1.959 3-1.959h9c.667 0 2 .653 4 1.96v-.98z"/>
    </g>
</svg>
