<svg xmlns="http://www.w3.org/2000/svg" width="27" height="60" viewBox="0 0 27 60">
    <g fill="#fff" fill-rule="nonzero">
        <ellipse cx="13.065" cy="14.142" rx="4.859" ry="5.017" transform="rotate(-76.891 13.065 14.142)"/>
        <path d="M20.867 21.928c-.997-.67-2.077-1.154-3.263-1.231a1.62 1.62 0 0 0-.365-.043H9.273a4.844 4.844 0 0 1-.838-.408c-.817-.489-2.025-1.44-3.062-3.298-1.033-1.86-1.914-4.666-1.917-8.953 0-.209.002-.42.006-.635h2.993V0H1.919v4.862c-.03-.004-.06-.008-.092-.01C.874 4.813.07 5.578.03 6.563.01 7.052 0 7.53 0 7.995c-.012 6.59 1.927 10.71 4.026 13.085 1.17 1.331 2.349 2.107 3.198 2.543v33.489c0 1.523 1.195 2.758 2.67 2.758 1.475 0 2.67-1.235 2.67-2.758V39.356h1.002v17.756c0 1.523 1.196 2.758 2.67 2.758 1.476 0 2.671-1.235 2.671-2.758V37.935l-.026-.01c-1.674-.73-2.852-2.444-2.852-4.436 0-1.025.314-1.975.845-2.757a4.719 4.719 0 0 1 2.033-1.69V24.87l.063.04c1.056.71 2.238 2.01 3.09 3.509.112.192.217.387.316.585 1.74.7 2.978 2.444 2.978 4.485 0 1.976-1.159 3.676-2.812 4.417.101.151.225.29.374.407.313.247.683.367 1.05.367.519 0 1.032-.24 1.373-.7 1.107-1.488 1.57-3.252 1.564-4.95-.018-3.05-1.341-5.97-3.083-8.25-.88-1.14-1.875-2.119-2.953-2.852z"/>
        <path d="M22.666 29.626a4.098 4.098 0 0 0-3.759-.095 4.276 4.276 0 0 0-1.604 1.35 4.439 4.439 0 0 0-.842 2.607c0 1.754 1.003 3.262 2.446 3.958a4.098 4.098 0 0 0 3.438.065c1.515-.665 2.577-2.216 2.577-4.023 0-1.676-.915-3.13-2.256-3.862z"/>
    </g>
</svg>
