<svg width="12" height="12" viewBox="0 0 12 12" xmlns="http://www.w3.org/2000/svg">
    <path d="M.757 11.243c-.703-.703-.956-2.101-.59-3.725l4.315 4.315c-1.624.366-3.022.113-3.725-.59zM11.243.757C10.54.054 9.142-.199 7.518.167l4.315 4.315c.366-1.624.113-3.022-.59-3.725zM5.636 11.48.52 6.364a10.243 10.243 0 0 1 2.335-3.508A10.243 10.243 0 0 1 6.364.52l5.115 5.115a10.243 10.243 0 0 1-2.335 3.508 10.243 10.243 0 0 1-3.508 2.335zM5.46 7.967a.267.267 0 0 0 .19-.455l-.393-.392L6 6.377l.393.393a.267.267 0 1 0 .377-.377L6.377 6l.743-.742.392.392a.267.267 0 1 0 .377-.377l-.392-.393.302-.302a.267.267 0 0 0-.377-.377l-.302.302-.393-.392a.267.267 0 0 0-.377.377l.392.392L6 5.623l-.393-.393a.267.267 0 0 0-.377.377L5.623 6l-.743.742-.392-.392a.267.267 0 0 0-.377.377l.392.393-.302.302a.267.267 0 0 0 .377.377l.302-.302.393.392c.05.05.118.078.188.078z" fill="#A9B7D1" fill-rule="evenodd"/>
</svg>
