<svg width="12" height="12" viewBox="0 0 12 12" xmlns="http://www.w3.org/2000/svg">
    <path d="M.767 8.05 3.95 11.23l-.11.11c-.424.424-.99.659-1.59.659A2.253 2.253 0 0 1 .658 8.16l.11-.11zM6.427.006a.376.376 0 0 1 .437.327l.173 1.53-4.07 5.422.534.536L7.53 2.456l1.513.172c.173.018.31.156.33.33l.16 1.415-5.36 4.118.535.535L9.935 5.01l1.772.397c.2.045.326.24.285.44l-.375 1.855a.375.375 0 0 1-.249.282l-6.266 2.094-.622.622L1.298 7.52l.623-.624L4.015.63a.375.375 0 0 1 .29-.25z" fill="#A9B7D1" fill-rule="evenodd"/>
</svg>
