<svg width="12" height="12" viewBox="0 0 12 12" xmlns="http://www.w3.org/2000/svg">
    <path d="M11.26 6.008c.252 0 .498.024.74.059A5.999 5.999 0 0 1 6.066 12a5.224 5.224 0 0 1-.058-.74c0-.385.045-.759.125-1.12L6.2 9.87l.37.214a.376.376 0 0 0 .437-.605l-.062-.045-.492-.284c.171-.388.388-.75.643-1.082l.2-.243.322.323a.377.377 0 0 0 .531 0 .376.376 0 0 0 .054-.463l-.054-.067-.323-.323c.323-.28.678-.522 1.062-.718l.293-.138.243.487a.376.376 0 0 0 .503.168.376.376 0 0 0 .195-.433l-.026-.07-.199-.398a5.213 5.213 0 0 1 1.364-.186zM6.712.044a6 6 0 0 1 5.248 5.258 5.969 5.969 0 0 0-.699-.044 5.92 5.92 0 0 0-1.377.163l-.328.088-.21-.418a.375.375 0 0 0-.698.264l.027.071.171.344c-.474.21-.914.479-1.314.799l-.235.197-.272-.272a.375.375 0 0 0-.585.462l.054.068.272.272a6.03 6.03 0 0 0-.831 1.212l-.13.267-.359-.207a.375.375 0 0 0-.438.605l.063.045.457.264a5.983 5.983 0 0 0-.27 1.779c0 .237.018.469.044.698A6 6 0 0 1 .043 6.712c.234.028.47.047.712.047.61 0 1.197-.096 1.753-.268l.274-.092.264.528a.377.377 0 0 0 .503.167.376.376 0 0 0 .195-.432l-.027-.071-.245-.49a5.969 5.969 0 0 0 1.017-.656l.23-.194.273.273a.38.38 0 0 0 .531 0 .376.376 0 0 0 .054-.462l-.053-.068-.273-.273c.267-.302.503-.63.705-.98l.145-.268.49.244a.373.373 0 0 0 .503-.167.376.376 0 0 0-.104-.463l-.064-.04-.528-.265c.229-.634.36-1.314.36-2.026 0-.241-.018-.478-.047-.712zM5.947 0c.036.248.06.498.06.756 0 .592-.102 1.158-.283 1.69l-.299-.15a.376.376 0 0 0-.335.672l.341.17c-.194.38-.433.733-.71 1.053l-.324-.324a.375.375 0 0 0-.53.53l.323.324c-.32.277-.672.516-1.053.71l-.17-.34a.376.376 0 0 0-.672.335l.15.299a5.232 5.232 0 0 1-1.69.283c-.257 0-.508-.025-.755-.06A6 6 0 0 1 5.947 0z" fill="#A9B7D1" fill-rule="evenodd"/>
</svg>
