<svg width="12" height="12" viewBox="0 0 12 12" xmlns="http://www.w3.org/2000/svg">
    <path d="M5.714 4.359v7.64a5.965 5.965 0 0 1-3.184-1.102c-1.072-.967.23-3.69 1.382-6.096l.15-.316c.5-.07 1.049-.115 1.652-.126zm-2.342.244c-.95 1.984-1.914 4.012-1.807 5.44a6.03 6.03 0 0 1-.534-.676l-.048-.075a5.745 5.745 0 0 1-.098-.152C.855 9.093.828 9.044.8 8.996l-.05-.089-.051-.094-.05-.094-.025-.05a6.128 6.128 0 0 1-.102-.218c-.005-.01-.01-.018-.013-.028l-.05-.117-.048-.118-.007-.017a6.262 6.262 0 0 1-.089-.245L.31 7.911a6.377 6.377 0 0 1-.077-.247l-.006-.021-.033-.122-.031-.122-.008-.035a6.053 6.053 0 0 1-.05-.234l-.01-.056a5.876 5.876 0 0 1-.036-.217l-.011-.089a6.74 6.74 0 0 1-.023-.19l-.01-.14C.01 6.389.007 6.34.005 6.293.002 6.234 0 6.175 0 6.116c.27-.253 1.294-1.09 3.372-1.513zM1.677 1.84c.531.023 1.648.195 2.035.809.207.327.194.77-.038 1.316-1.873.31-3.032.95-3.641 1.389v-.008c.01-.085.02-.17.033-.254l.003-.022a5.995 5.995 0 0 1 1.608-3.23zM5.714 0v3.786c-.5.008-.966.04-1.399.09.187-.596.148-1.11-.12-1.534-.426-.676-1.318-.928-1.952-1.022A5.97 5.97 0 0 1 5.714 0zm.572 4.359c.483.009.931.04 1.347.088l.306.04.15.314C9.24 7.207 10.543 9.93 9.47 10.897A5.966 5.966 0 0 1 6.58 11.98L6.286 12V4.359zm2.344.247c2.067.424 3.1 1.26 3.37 1.511l-.002.088-.002.088-.01.145-.011.14a5.808 5.808 0 0 1-.023.19l-.011.09-.017.108-.019.108-.01.057a5.685 5.685 0 0 1-.05.234l-.008.034c-.02.082-.04.163-.064.244l-.006.021c-.024.083-.05.166-.077.248l-.005.015a6.033 6.033 0 0 1-.09.244l-.006.018a5.99 5.99 0 0 1-.098.235l-.013.028a5.88 5.88 0 0 1-.102.217l-.026.05a7.01 7.01 0 0 1-.099.189l-.026.044-.025.044-.085.144-.098.153-.048.074c-.162.238-.34.464-.533.677.106-1.428-.857-3.454-1.806-5.438zm1.694-2.767a5.995 5.995 0 0 1 1.607 3.23c0 .008.002.015.003.022.013.084.024.169.033.254v.007c-.608-.439-1.768-1.078-3.64-1.388-.232-.546-.246-.989-.039-1.316.387-.614 1.504-.786 2.036-.81zM6.286 0a5.97 5.97 0 0 1 3.471 1.32c-.633.093-1.526.346-1.953 1.022-.267.424-.306.938-.12 1.533-.432-.05-.897-.08-1.398-.09z" fill="#A9B7D1" fill-rule="evenodd"/>
</svg>
