<svg width="12" height="12" viewBox="0 0 12 12" xmlns="http://www.w3.org/2000/svg">
    <path d="M7.904 4.888c.482.388.813.863 1 1.436.011.032 0 .086-.021.11-.615.69-1.373 1.127-2.284 1.281l-.252.034-.248.016c-.66.019-1.288-.148-1.888-.469-.034-.018-.067-.038-.126-.073a7.005 7.005 0 0 0 2.109-.855 7.044 7.044 0 0 0 1.71-1.48zM6.196 4.23l.068.001c.356.034.697.122 1.043.284-.226.223-.432.449-.661.647A6.085 6.085 0 0 1 3.379 6.62l-.039.003c-.027 0-.054-.004-.068-.018a3.716 3.716 0 0 1-.703-.963c.245-.02.481-.03.715-.06 1.046-.133 1.956-.57 2.74-1.271a.315.315 0 0 1 .111-.068l.06-.013zM6.12 2.468c.407.002.794.063 1.174.172a4.76 4.76 0 0 1 2.472 1.647.23.23 0 0 1 .05.157c-.06.417-.186.814-.379 1.189l-.007.011-.004.005c-.2-.29-.382-.598-.614-.864-.646-.741-1.47-1.157-2.449-1.253-.074-.007-.116-.027-.138-.108a2.934 2.934 0 0 1-.105-.956zM4.093.474c-.579 1.406-.58 2.796-.039 4.213-.27.06-.517.137-.77.169-.2.025-.403.034-.606.042l-.304.013c-.066.003-.103-.02-.123-.092-.429-1.537.27-3.34 1.607-4.21l.17-.104.035-.017.03-.014zM6.515.005c-.097.11-.193.206-.277.311-.794.994-1.016 2.107-.677 3.332.025.088.013.137-.057.187-.263.188-.523.378-.785.567a42.945 42.945 0 0 0-.05-.018l-.184-.683A4.56 4.56 0 0 1 5.032.189c.052-.088.11-.141.214-.154.158-.02 1.184-.047 1.27-.03zm.866.23h.04a.19.19 0 0 1 .042.015c1.304.587 2.085 1.586 2.349 2.993l-.002.012-.006.02a5.546 5.546 0 0 0-3.549-1.514c.008-.033.012-.06.02-.084.2-.575.544-1.043 1.03-1.407A.163.163 0 0 1 7.38.235zM12 8.965c-.021.074-.04.15-.064.222a1.01 1.01 0 0 1-.951.693 94.58 94.58 0 0 1-1.488 0 .987.987 0 0 1-.608-.213c-.054-.042-.09-.052-.15-.004-.19.152-.41.22-.653.219a225.84 225.84 0 0 0-1.36 0c-.242 0-.462-.067-.653-.218-.057-.045-.092-.045-.149 0-.19.15-.411.218-.654.218-.45-.001-.898-.002-1.347 0-.247 0-.472-.066-.665-.22-.06-.048-.095-.038-.15.004a.952.952 0 0 1-.584.213c-.503.004-1.008.008-1.511 0A1.053 1.053 0 0 1 0 8.917c-.002-.027 0-.054 0-.088h.69c.071.266.174.346.449.346h1.265c.265 0 .372-.085.438-.349H3.5c.06.096.098.2.173.262a.44.44 0 0 0 .257.083c.426.008.851.004 1.277.004.276 0 .378-.078.449-.349h.649c.072.104.116.221.2.276.087.056.213.068.322.07.394.007.789.003 1.183.003.287 0 .384-.073.46-.349h.676c.097.29.178.349.484.349h1.23c.296 0 .386-.066.474-.353H12v.141zm0 2.116c-.021.074-.04.15-.064.223a1.01 1.01 0 0 1-.951.692c-.496.005-.992.003-1.488 0a.985.985 0 0 1-.608-.213c-.054-.042-.09-.052-.15-.004-.19.151-.41.22-.653.219h-1.36c-.242 0-.462-.068-.653-.218-.057-.045-.092-.044-.149 0-.19.15-.411.218-.654.218-.45-.001-.898-.002-1.348 0-.246.001-.471-.066-.664-.22-.06-.048-.095-.037-.15.005a.952.952 0 0 1-.584.212c-.503.005-1.008.009-1.511 0A1.053 1.053 0 0 1 0 11.033c-.002-.027 0-.054 0-.088h.69c.07.267.174.346.449.346h1.265c.265 0 .372-.085.438-.348H3.5c.06.095.098.2.173.262a.44.44 0 0 0 .257.083c.426.008.852.003 1.277.003.276 0 .378-.078.449-.348h.649c.072.103.116.22.2.275.087.056.213.068.322.07.394.008.789.003 1.183.003.287 0 .384-.072.46-.349h.677c.096.291.177.35.483.35h1.23c.296 0 .386-.067.474-.354H12v.142z" fill="#A9B7D1" fill-rule="evenodd"/>
</svg>
