<svg width="12" height="12" viewBox="0 0 12 12" xmlns="http://www.w3.org/2000/svg">
    <path d="M9.246 6.404C10.762 6.404 12 7.662 12 9.202 12 10.755 10.762 12 9.246 12c-1.515 0-2.753-1.258-2.753-2.798S7.73 6.404 9.246 6.404zM5.924 4.697c.013.052.038.09.063.129.307.439.645 1.117.83 1.912l.055.27-.137.162a3.372 3.372 0 0 0-.71 2.045c0 .398.063.783.202 1.142a.725.725 0 0 1-.151.034L6 10.396H4.244a.695.695 0 0 1-.67-.488 6.598 6.598 0 0 1-.277-1.95c0-1.323.518-2.478.972-3.132.026-.035.04-.063.054-.09l.022-.039h1.58zm-3.322-.731c.025.051.05.09.076.128.24.36.505.847.695 1.425-.266.616-.53 1.463-.518 2.425 0 .565.063 1.13.177 1.643a.584.584 0 0 1-.203.069l-.113.008H.96a.7.7 0 0 1-.682-.488A6.598 6.598 0 0 1 0 7.226c0-1.322.518-2.477.973-3.132l.031-.069.032-.06h1.566zm1.529 2.99c-.076.347-.114.68-.114 1.014 0 .526.063 1.065.19 1.527a.243.243 0 0 0 .227.167c.025 0 .038-.013.063-.013.126-.038.202-.167.151-.27a6.351 6.351 0 0 1-.164-1.41c0-.296.025-.604.101-.912a.233.233 0 1 0-.455-.103zm4.787 1.476a.373.373 0 0 0-.089.513.36.36 0 0 0 .506.09.373.373 0 0 0 .088-.513.36.36 0 0 0-.505-.09zM.834 6.237c-.076.347-.114.68-.114 1.014 0 .527.063 1.066.19 1.528.025.102.126.166.227.166.012 0 .038-.012.05-.012.127-.039.202-.167.165-.27a5.685 5.685 0 0 1-.165-1.412c0-.295.026-.603.101-.91.026-.13-.05-.258-.176-.283-.127-.026-.24.051-.278.18zM8.046 7.88c-.202.013-.34.193-.328.398a.36.36 0 0 0 .391.334c.203-.026.354-.206.329-.398a.36.36 0 0 0-.392-.334zm.645-.462a.362.362 0 0 0 .176.488c.177.09.392 0 .48-.18.089-.18 0-.398-.176-.487-.177-.09-.392 0-.48.18zm.555-3.44c.013.052.038.09.063.129.304.45.645 1.142.834 1.964a3.033 3.033 0 0 0-.897-.129 3.1 3.1 0 0 0-1.983.706 5.222 5.222 0 0 0-.366-1.116c.202-.59.455-1.079.695-1.425l.031-.069.032-.06h1.591zm-3.46-.333a1.183 1.183 0 0 0-.039.295c0 .103 0 .205.013.295H4.497c.012-.102.025-.192.025-.295 0-.09-.013-.192-.038-.282v-.013zM1.01 2.477h1.642c.025-.038.038-.077.063-.116.151-.243.252-.564.252-.91C2.968.654 2.463 0 1.832 0 1.2 0 .695.642.695 1.45c0 .347.1.655.252.911.026.039.038.078.064.116zm.176.462c.026.09.038.193.038.282 0 .103-.012.193-.025.296h1.263a2.131 2.131 0 0 1-.025-.283c0-.102.013-.192.038-.295H1.187zm6.607 0c.025.09.038.193.038.295 0 .103-.013.193-.026.283H9.07a2.14 2.14 0 0 1-.025-.296c0-.102.013-.192.038-.282H7.794zm-.177-.462h1.642c.025-.038.038-.077.063-.116.152-.243.253-.564.253-.91C9.575.654 9.069 0 8.438 0 7.806 0 7.3.642 7.3 1.45c0 .347.101.655.253.911.025.039.05.078.063.116zm-3.31.719H5.95c.026-.039.038-.077.064-.116.151-.244.252-.564.252-.911 0-.796-.505-1.45-1.137-1.45-.631 0-1.136.641-1.136 1.45 0 .347.1.655.252.911.025.039.05.077.063.116z" fill="#A9B7D1" fill-rule="evenodd"/>
</svg>
