<svg width="12" height="12" viewBox="0 0 12 12" xmlns="http://www.w3.org/2000/svg">
    <path d="M9.805 0 12 2.127l-6.837 6.87-.782-.759-2.965 2.972.224.217-.563.573L0 10.957l.563-.574.224.217L3.75 7.628 2.97 6.87 9.805 0zM4.363 1.471a2.136 2.136 0 0 1-.431 2.441c-.41.407-.968.634-1.548.633-.321 0-.638-.07-.929-.204l2.908-2.87zm-.7-.836c.095.067.185.143.269.224.083.082.16.171.227.266L1.107 4.137c-.192-.135-.36-.3-.496-.49L3.662.634zM2.382.227c.322 0 .64.07.931.204L.407 3.301a2.132 2.132 0 0 1 .132-2.073c.401-.623 1.097-1 1.845-1z" fill="#A9B7D1" fill-rule="evenodd"/>
</svg>
