<svg width="12" height="12" viewBox="0 0 12 12" xmlns="http://www.w3.org/2000/svg">
    <path d="M10.407 7.918c.88 0 1.593.685 1.593 1.541 0 .856-.712 1.541-1.593 1.541-.882 0-1.594-.685-1.594-1.54 0-.857.712-1.542 1.594-1.542zM10.95.161a.555.555 0 0 1 .74-.036l.073.073c.147.182.151.44.012.62-.956 1.217-5.82 7.389-7.817 9.425l-.094.09a2.254 2.254 0 0 1-1.518.595h-.038c-.61 0-1.2-.234-1.64-.658a2.195 2.195 0 0 1 0-3.153l.394-.37.018-.018a.381.381 0 0 1 .478-.045l.675.442c.01.018.028.027.047.045.16.144.16.378.01.522l-.141.135a.524.524 0 0 0 0 .757.57.57 0 0 0 .769.009l1.595-1.676a.213.213 0 0 1 .02-.024l-.01.013 6.4-6.72.018-.017zM3.003 9.707l-.057.014a1.629 1.629 0 0 1-1.219.018.193.193 0 0 0-.244.099.18.18 0 0 0 .103.234 2.02 2.02 0 0 0 1.5-.018c.103-.045.14-.153.103-.243-.037-.09-.15-.126-.243-.09zm7.591-1.032a.997.997 0 0 0-.89.523c-.047.081-.01.19.075.234.093.045.206.018.253-.072a.638.638 0 0 1 .562-.333c.103 0 .187-.081.187-.171 0-.1-.084-.18-.187-.18zM4.933 7.017l-.253.27.843.659.234-.28-.824-.649zm.759-.801-.253.27.787.613.234-.28-.768-.603zm4.574-4.794-.253.27.347.289.018.009.216-.28-.328-.288zm.619-.658-.253.27.3.253.224-.297-.271-.226z" fill="#A9B7D1" fill-rule="evenodd"/>
</svg>
