<svg width="13" height="12" viewBox="0 0 13 12" xmlns="http://www.w3.org/2000/svg">
    <path d="M5.036 8.817v.373c0 .113.054.218.141.274a.258.258 0 0 0 .284 0 .325.325 0 0 0 .142-.274v-.373h.614v.373c0 .113.053.218.141.274a.258.258 0 0 0 .284 0 .325.325 0 0 0 .141-.274v-.373h.614v.373c.001.174.128.314.284.314.155 0 .282-.14.283-.314v-.373h.677c.046.84.312 1.648.763 2.322a5.33 5.33 0 0 1-5.808 0 4.632 4.632 0 0 0 .763-2.322h.677zm-1.954-2.58A3.95 3.95 0 0 1 3.755 8.5a3.95 3.95 0 0 1-.673 2.263A5.724 5.724 0 0 1 1.58 8.851a.81.81 0 0 1 0-.702 5.724 5.724 0 0 1 1.502-1.912zm6.836 0a5.724 5.724 0 0 1 1.502 1.912.81.81 0 0 1 0 .702 5.724 5.724 0 0 1-1.502 1.912c-.897-1.342-.897-3.184 0-4.526zM6.499 5h.044c.05 0 .101.002.151.004L6.5 5a5.253 5.253 0 0 1 .534.027 5.429 5.429 0 0 1 2.371.834 4.632 4.632 0 0 0-.763 2.322h-.677V7.81c0-.174-.128-.314-.283-.314-.156 0-.283.14-.284.314v.373h-.614V7.81a.325.325 0 0 0-.141-.275.258.258 0 0 0-.284 0 .325.325 0 0 0-.141.275v.373h-.614V7.81a.325.325 0 0 0-.142-.275.258.258 0 0 0-.284 0 .325.325 0 0 0-.141.275v.373h-.677a4.632 4.632 0 0 0-.763-2.322C4.496 5.287 5.497 5 6.5 5zm3.734-5c.103 0 .196.055.24.142a.237.237 0 0 1-.031.264L9.508 1.5l.934 1.094a.237.237 0 0 1 .032.264.268.268 0 0 1-.24.142h-3.2v1.324A5.955 5.955 0 0 0 6.5 4.3V.25c0-.138.12-.25.267-.25h3.466z" fill="#A9B7D1" fill-rule="evenodd"/>
</svg>
