<svg width="12" height="12" viewBox="0 0 12 12" xmlns="http://www.w3.org/2000/svg">
    <path d="M6 0a6 6 0 0 1 .225 11.996L6 12c-.15 0-.3-.006-.447-.016l-.221-.02A6 6 0 0 1 6 0zm0 10.935a.971.971 0 0 0-.897.606 5.593 5.593 0 0 0 1.792 0A.967.967 0 0 0 6 10.936zm-1.645-3.29A.964.964 0 1 0 2.99 9.01a.964.964 0 1 0 1.365-1.365zm4.655 0A.964.964 0 1 0 7.645 9.01.964.964 0 1 0 9.01 7.645zM6 5.032A.97.97 0 0 0 5.032 6 .97.97 0 0 0 6 6.968.97.97 0 0 0 6.968 6 .97.97 0 0 0 6 5.032zm-5.541.071-.005.029a5.656 5.656 0 0 0 .004 1.763.967.967 0 0 0 .001-1.792zm11.083.002-.063.026a.97.97 0 0 0-.544.869c0 .404.252.753.606.897a5.593 5.593 0 0 0 0-1.792zM4.355 2.99A.964.964 0 1 0 2.99 4.355.964.964 0 1 0 4.355 2.99zm4.655 0a.964.964 0 1 0-1.365 1.365A.964.964 0 1 0 9.01 2.99zM6 .387c-.305 0-.604.024-.895.071A.967.967 0 0 0 6.897.46 5.593 5.593 0 0 0 6 .387z" fill="#A9B7D1" fill-rule="evenodd"/>
</svg>
