<svg width="12" height="12" viewBox="0 0 12 12" xmlns="http://www.w3.org/2000/svg">
    <path d="M12 4.077h-1.781c-.17 0-.312.132-.345.307l-.007.078v3.076c0 .186.12.341.28.377l.072.008H12v1.923c0 .594-.412 1.084-.94 1.147l-.115.007H6.352V8.665C7.542 8.478 8.46 7.354 8.46 6c0-1.295-.84-2.38-1.956-2.635l-.153-.03V1h4.593c.543 0 .991.45 1.049 1.028l.006.126v1.923zM7.758 6c0 .929-.605 1.706-1.406 1.884V4.116c.8.178 1.406.955 1.406 1.884zM12 7.154h-1.43V4.846H12v2.308zM5.648 3.335C4.458 3.522 3.54 4.646 3.54 6s.918 2.478 2.11 2.665V11H1.054C.473 11 0 10.482 0 9.846V7.923h1.781c.194 0 .352-.172.352-.385V4.462c0-.213-.158-.385-.352-.385H0V2.154C0 1.518.473 1 1.055 1h4.593zM1.43 7.154H0V4.846h1.43v2.308zm4.218.73C4.848 7.706 4.242 6.93 4.242 6c0-.929.605-1.706 1.406-1.884z" fill="#A9B7D1" fill-rule="evenodd"/>
</svg>
