<svg width="12" height="12" viewBox="0 0 12 12" xmlns="http://www.w3.org/2000/svg">
    <path d="M3.245 5.265a3.13 3.13 0 0 1 1.724.515 3.277 3.277 0 0 1 .811.752 3.41 3.41 0 0 1 .71 2.1c0 .344-.05.682-.147 1.006-.11.362-.276.7-.495 1.006C5.228 11.506 4.28 12 3.245 12 1.455 12 0 10.49 0 8.633c0-1.36.792-2.585 1.99-3.106l.173-.07.21-.069c.283-.081.575-.123.872-.123zm4.51-.877c.37 0 .735.064 1.082.192C10.13 5.054 11 6.33 11 7.755c0 1.857-1.456 3.367-3.245 3.367-.563 0-1.112-.15-1.598-.436a3.657 3.657 0 0 0 .143-.238l.009-.016.008-.015.062-.12.011-.023c.017-.033.032-.067.048-.102l.016-.036.023-.053.022-.054.008-.02c.014-.037.028-.073.04-.11h.002l.003.002.071.042.025.013.051.027.03.015a2.25 2.25 0 0 0 .126.058l.032.013.049.02.031.01a2.3 2.3 0 0 0 .054.02l.026.008.04.013.041.012.008.002.075.02.014.003.014.003.055.012.033.006a2.519 2.519 0 0 0 .085.014l.026.004.025.003.035.005.052.005.033.003.029.001.029.002.028.001.086.002c1.32 0 2.393-1.114 2.393-2.483 0-1.37-1.074-2.483-2.393-2.483l-.072.001-.023.001-.024.001-.024.002-.028.002-.043.003-.03.003-.02.002-.02.003-.03.004-.04.006a2.28 2.28 0 0 0-.031.005l-.02.003-.02.004-.05.01-.019.004a1.86 1.86 0 0 0-.03.006l-.02.005-.018.005-.03.007-.02.006-.02.005-.028.008-.04.013-.027.008-.022.008-.044.015-.057.022-.008.003a2.302 2.302 0 0 0-.065.027l-.02.009-.044.02-.012.006-.012.006-.039.019-.026.013a2.487 2.487 0 0 0-.036.02l-.026.014a2.035 2.035 0 0 0-.096.057l-.013.008-.013.008-.033.022a2.489 2.489 0 0 0-.059.04l-.012.01-.029.02-.016.013-.024.018-.034.027-.021.017-.036.03-.01.008-.008.008-.045.04-.004.004-.004.004-.052.05-.032.03-.019.02-.008.01-.009.009-.032.034-.018.021a2.15 2.15 0 0 0-.075.09l-.02.024-.014.019a3.66 3.66 0 0 0-.077-.087l-.016-.017a3.7 3.7 0 0 0-.106-.11l-.04-.04-.04-.038-.018-.016a3.593 3.593 0 0 0-.1-.089l-.026-.022a3.593 3.593 0 0 0-.08-.066l-.03-.023a3.568 3.568 0 0 0-.105-.079c.377-.48.869-.84 1.43-1.045a3.131 3.131 0 0 1 1.082-.192zM3.245 6.15l-.157.005C1.84 6.239.852 7.318.852 8.633c0 1.314.99 2.393 2.236 2.477l.157.006.182-.008a2.377 2.377 0 0 0 1.799-1.082A2.529 2.529 0 0 0 5.62 8.33a2.497 2.497 0 0 0-1.015-1.74 2.32 2.32 0 0 0-1.36-.44zm1.36.799.045.04.013.013.017.015.016.016.03.03.014.014.017.018a2.15 2.15 0 0 1 .043.047l.012.014.012.014.017.02.012.014.02.024.007.01.024.03.014.02.012.016.012.016.013.018.013.019.013.019.01.013c.022.035.044.07.065.107l.01.015.02.039.006.01.015.027.01.018.004.011.014.028.009.017a1.827 1.827 0 0 1 .026.058l.01.022.015.036.009.023.007.018.007.019.008.021.014.04.007.02.008.025.008.026.02.07.003.01.013.05.005.021.009.042.005.023.007.039.002.012.003.012.006.039a1.903 1.903 0 0 1 .009.063l.001.013.002.013.004.039.002.024.003.042.002.022.002.047v.018a2.314 2.314 0 0 1 0 .142v.011l-.001.012-.003.054-.002.027a2.342 2.342 0 0 1-.014.129l-.003.025-.01.06-.003.015a2.2 2.2 0 0 1-.015.075l-.003.016-.014.058-.006.025-.007.024-.007.024-.008.027-.015.047-.008.026a2.23 2.23 0 0 1-.018.05l-.008.021a2.23 2.23 0 0 1-.058.14l-.005.01-.005.01-.035.072-.012.023-.025-.037-.032-.048a3.435 3.435 0 0 1-.041-.067l-.015-.025-.014-.024-.04-.071-.026-.046a3.384 3.384 0 0 1-.042-.082l-.019-.038c-.019-.04-.038-.08-.055-.121l-.009-.021a3.34 3.34 0 0 1-.042-.103l-.017-.046a3.433 3.433 0 0 1-.029-.08l-.008-.026-.009-.026-.023-.076-.008-.028-.008-.027-.02-.075a3.583 3.583 0 0 1-.078-.4l-.007-.058a3.668 3.668 0 0 1-.008-.082L4.52 8.03l-.003-.046-.004-.068-.001-.023-.002-.069v-.127l.001-.059.002-.036a3.673 3.673 0 0 1 .015-.204l.003-.036.007-.057.008-.058c.006-.041.013-.078.02-.115.001-.012.004-.024.006-.035a3.44 3.44 0 0 1 .025-.12l.007-.028zm-.79-2.854c.206 0 .378.154.413.357l.007.078v.596l-.01-.002-.052-.016-.052-.014-.019-.005-.052-.013-.052-.012a3.284 3.284 0 0 0-.116-.024l-.01-.002-.012-.003a3.36 3.36 0 0 0-.106-.017l-.01-.002-.01-.001L3.625 5a3.369 3.369 0 0 0-.116-.011l-.021-.002a3.529 3.529 0 0 0-.109-.006h-.02l-.114-.002h-.057l-.057.002h-.02a3.449 3.449 0 0 0-.11.006l-.02.002-.056.005L2.869 5l-.113.015c-.007 0-.013.002-.02.003a3.369 3.369 0 0 0-.107.018l-.01.001-.065.013-.055.012-.007.002-.052.012-.053.013-.017.005-.106.03-.004.001-.005.001V4.53c0-.213.149-.39.344-.428l.075-.007h1.142zm4.51-.877c.206 0 .378.154.413.357l.007.078v.596l-.01-.003-.104-.03-.019-.004a3.318 3.318 0 0 0-.104-.026l-.007-.002-.055-.011-.065-.013-.01-.002a3.29 3.29 0 0 0-.107-.018c-.007 0-.014-.002-.02-.003a3.474 3.474 0 0 0-.109-.014h-.004a3.477 3.477 0 0 0-.112-.01L8 4.11l-.055-.004-.055-.002h-.02l-.057-.002h-.114l-.057.001h-.02l-.055.003-.054.004-.021.001a3.322 3.322 0 0 0-.112.01l-.004.001a3.36 3.36 0 0 0-.11.014l-.018.003a3.413 3.413 0 0 0-.108.018l-.02.004a3.306 3.306 0 0 0-.11.022l-.006.002-.106.026-.017.004-.105.03-.005.001-.005.002v-.596c0-.214.149-.391.344-.428l.075-.007h1.142zM3.672.878V3.81H2.82V.878h.852zM8.181 0v2.932H7.33V0h.852z" fill="#A9B7D1" fill-rule="evenodd"/>
</svg>
