<svg width="12" height="12" viewBox="0 0 12 12" xmlns="http://www.w3.org/2000/svg">
    <path d="M3.581 3.75c.075.375.281.694.563.919-.506 1.744-.075 4.687.918 6.412.225.375.47.675.732.919a6.018 6.018 0 0 1-5.55-4.294c-.019-.975.281-1.837.862-2.55.6-.731 1.481-1.218 2.475-1.406zm2.85.075c1.65.881 3.263 3.319 3.263 6.881a5.976 5.976 0 0 1-3.244 1.275c-.356-.187-.713-.562-1.031-1.106-.938-1.613-1.35-4.35-.919-6 .169.056.338.094.525.094.712 0 1.294-.488 1.406-1.144zm4.65-.994c.582.919.919 2.007.919 3.188a5.943 5.943 0 0 1-1.875 4.35c-.113-3.638-1.894-6.131-3.638-6.975a1.46 1.46 0 0 0-.28-.75c1.95-.525 4.012-.338 4.874.187zm-7.068-.375c-.225.244-.394.544-.432.881-1.125.188-2.119.732-2.793 1.557a4.065 4.065 0 0 0-.77 1.462C0 6.244 0 6.112 0 6a6.02 6.02 0 0 1 1.425-3.881c.881-.432 2.063.075 2.588.337zm1.012 0 .115.006c.486.053.871.436.928.92l.007.124-.006.115a1.048 1.048 0 0 1-1.044.935c-.581 0-1.05-.468-1.05-1.05 0-.581.469-1.05 1.05-1.05zM6.394.02a6.038 6.038 0 0 1 4.237 2.156c-1.2-.375-3.056-.375-4.762.131a1.33 1.33 0 0 0-.582-.244C5.4 1.613 5.72.563 6.394.02zM5.812 0c-.6.694-.862 1.669-.956 2.044a1.373 1.373 0 0 0-.468.15c-.338-.188-1.407-.732-2.42-.638A6.04 6.04 0 0 1 5.814 0z" fill="#A9B7D1" fill-rule="evenodd"/>
</svg>
