<svg width="12" height="12" viewBox="0 0 12 12" xmlns="http://www.w3.org/2000/svg">
    <path d="M10.031.018a.352.352 0 0 1 .268.02l1.507.752a.352.352 0 0 1 .157.472L6.69 11.806a.352.352 0 0 1-.314.194h-4.52a1.858 1.858 0 0 1 0-3.716h3.926L9.828.194a.352.352 0 0 1 .203-.176zM5.925 4.004v.49c0 .87-1.179 1.481-2.61 1.481-1.43 0-2.612-.609-2.612-1.481v-.49c.128.106.271.203.43.29.587.323 1.361.501 2.181.501.821 0 1.596-.178 2.183-.502.158-.087.301-.184.428-.289zM3.315 1.13c1.427 0 2.61.608 2.61 1.481 0 .87-1.179 1.481-2.61 1.481-1.43 0-2.612-.609-2.612-1.481 0-.87 1.179-1.481 2.611-1.481z" fill="#A9B7D1" fill-rule="evenodd"/>
</svg>
