<svg width="12" height="12" viewBox="0 0 12 12" xmlns="http://www.w3.org/2000/svg">
    <path d="m6.765 3.142 1.656 1.26-.167.1-.427.458a.523.523 0 0 1-.622.11l-.084-.055-.178-.139-1.242 1.627 4.046 5.3-.25.197L5.5 6.766 1.506 12l-.25-.197 4.045-5.3-1.242-1.627-.178.14a.522.522 0 0 1-.631.01l-.075-.066-.427-.458-.168-.1 1.656-1.26.045.157.33.534c.127.207.1.472-.06.646l-.065.061-.177.14L5.5 6.24 6.692 4.68l-.177-.14a.54.54 0 0 1-.165-.627l.04-.08.33-.534.045-.157zm-.837 5.266a.87.87 0 0 1 .428.752c0 .48-.383.868-.856.868a.862.862 0 0 1-.856-.868.87.87 0 0 1 .428-.752.846.846 0 0 1 .856 0zm1.184-6.472L9.498 3.75l-.783.473-1.855-1.41.252-.877zm-3.224 0 .252.877-1.855 1.41L1.5 3.75l2.387-1.814zM9.108.224l1.482 1.164a1.077 1.077 0 0 1-.105 1.766l-.692.418-2.586-1.965.241-.837c.098-.34.355-.608.687-.718.333-.109.696-.045.973.172zM2.865.052c.29.096.523.314.643.594l.044.124.24.837-2.585 1.965-.692-.418a1.079 1.079 0 0 1-.203-1.68l.098-.086L1.892.224c.277-.217.64-.281.973-.172z" fill="#A9B7D1" fill-rule="evenodd"/>
</svg>
