<svg width="12" height="12" viewBox="0 0 12 12" xmlns="http://www.w3.org/2000/svg">
    <path d="m10.71 5.4.007.001h.013c.005 0 .01.003.016.003a.28.28 0 0 1 .057.014l.014.005.026.013.013.007.023.015a.402.402 0 0 1 .06.06.233.233 0 0 1 .03.048.436.436 0 0 1 .02.053l.005.028a.25.25 0 0 1 .004.03l.002.017-.001.013v.013l-.525 6.011a.294.294 0 0 1-.54.134c-.011.016-.019.034-.033.049a.295.295 0 0 1-.418 0l-.582-.58-.583.58a.295.295 0 0 1-.417-.416l.582-.58-.695-.693-.696.693.582.58a.293.293 0 0 1-.209.501.295.295 0 0 1-.208-.086l-.582-.58-.582.58a.295.295 0 0 1-.209.087c-.018 0-.036-.007-.054-.01a.302.302 0 0 1-.077.01.295.295 0 0 1-.293-.269l-.501-5.743H1.59v5.295a.295.295 0 0 1-.59 0V5.707a.3.3 0 0 1 0-.013c0-.162.132-.294.294-.294h9.417zm-.697 4.825-.695.693.582.58.002.003.11-1.276zm-3.338-1.11-.696.694.696.693.696-.693-.696-.693zm2.225 0-.695.694.695.693.696-.693-.696-.694zM7.788 8.007l-.696.693.696.693.695-.693-.695-.693zm2.225 0-.695.693.695.693.08-.08.098-1.13-.178-.176zm-4.27.18.082.944.433-.431-.515-.513zm.932-1.29-.696.694.696.693.696-.693-.696-.693zm2.226 0-.696.694.695.693.696-.693-.695-.693zm-.913-.909h-.4l-.496.494.696.693.695-.693-.495-.494zm2.395 0h-.57l-.495.494.695.693.291-.29.079-.897zm-4.62 0H5.55l.096 1.102.61-.608-.495-.494zM9.31 2.07c.28.014.53.074.742.152l.151.06.038.017A2.26 2.26 0 0 1 8.052 4.5a3.748 3.748 0 0 0 1.259-2.43zm-.287.005A3.492 3.492 0 0 1 7.832 4.32l-.105.088-.086.07c-.21-.031-.41-.089-.598-.172.396-.304.97-.922 1.047-1.972.33-.161.644-.24.934-.26zm-3.118-.762a3.914 3.914 0 0 0 1.447 2.273 2.53 2.53 0 0 1-.456.479l-.102.076-.027.02a2.244 2.244 0 0 1-1.071-1.909c0-.335.076-.653.209-.94zm.703-.861c.088.568.377 1.301 1.199 1.853a2.45 2.45 0 0 1-.303 1.042 3.642 3.642 0 0 1-1.343-2.195l-.023-.135-.013-.079c.135-.185.298-.349.483-.486zm3.36 1.064.07.042.115.07c.034.116.059.236.074.359a2.764 2.764 0 0 0-2.255.089 2.498 2.498 0 0 1-.732-.734 3.08 3.08 0 0 1 2.728.174zM7.97 0c.872 0 1.63.487 2.01 1.202a3.348 3.348 0 0 0-2.878-.107 2.513 2.513 0 0 1-.231-.803L6.87.282C7.197.102 7.572 0 7.97 0z" fill="#A9B7D1" fill-rule="evenodd"/>
</svg>
