<svg width="12" height="12" viewBox="0 0 12 12" xmlns="http://www.w3.org/2000/svg">
    <path d="M1.5 9a1.5 1.5 0 1 1 0 3 1.5 1.5 0 0 1 0-3zM6 9a1.5 1.5 0 1 1 0 3 1.5 1.5 0 0 1 0-3zm4.5 0a1.5 1.5 0 1 1-.001 3 1.5 1.5 0 0 1 0-3zM4.78 0a.679.679 0 0 1 .478.218.62.62 0 0 1 .173.349l.006.1-.047.833H3.281c-.907 0-1.312.612-1.312 1.219 0 .568.356 1.142 1.148 1.211l.164.008H5.71c.115.21.257.405.422.58l.118.116.124.109V6.75h.375V5c.288.163.603.27.929.316l.196.02V6.75h.375V5.344h.094c1.994 0 3.554 1.606 3.656 3.05l.001.022-.001.022v.937a1.875 1.875 0 0 0-1.5-.75 1.887 1.887 0 0 0-1.868 1.729l-.007.146h-.75a1.875 1.875 0 0 0-3.744-.147l-.005.147h-.75A1.875 1.875 0 0 0 .1 9.251L0 9.375V8.25C.01 5.548.166 2.849.469.164A.188.188 0 0 1 .6.008L.656 0h4.125zm.589 1.875-.026.437c-.019.355.024.71.126 1.049l.068.202H3.281c-.69 0-.937-.436-.937-.844 0-.379.212-.782.796-.837l.141-.007h2.088z" fill="#A9B7D1" fill-rule="evenodd"/>
</svg>
