<svg width="12" height="12" viewBox="0 0 12 12" xmlns="http://www.w3.org/2000/svg">
    <path d="M11.632 1.716a3.084 3.084 0 0 1-.087.39C11.15 3.48 9.71 5.602 7.657 7.655c-2.053 2.052-4.175 3.493-5.55 3.888a3.01 3.01 0 0 1-.393.088c.592.292 1.293.406 2.047.358 1.745-.11 3.77-1.083 5.457-2.77 1.688-1.689 2.66-3.713 2.771-5.458.048-.754-.066-1.454-.357-2.045zm-.594-.818A.606.606 0 0 0 10.7.784a2.001 2.001 0 0 0-.683.095c-1.33.383-3.373 1.79-5.359 3.777-1.986 1.986-3.394 4.03-3.776 5.358-.075.26-.11.49-.095.684.011.155.054.283.144.372.09.09.218.133.373.145.193.014.423-.02.682-.095 1.33-.383 3.373-1.791 5.36-3.777 1.986-1.986 3.394-4.03 3.776-5.359.075-.26.11-.49.095-.683a.603.603 0 0 0-.114-.339l-.064-.064zm-.754-.53C9.693.077 8.993-.036 8.24.012 6.495.12 4.47 1.094 2.782 2.78 1.094 4.47.122 6.495.01 8.24c-.047.755.067 1.456.36 2.047a3.01 3.01 0 0 1 .087-.393c.395-1.375 1.836-3.497 3.888-5.55C6.398 2.292 8.52.85 9.895.456c.136-.04.266-.068.39-.086z" fill="#A9B7D1" fill-rule="evenodd"/>
</svg>
