<svg width="12" height="12" viewBox="0 0 12 12" xmlns="http://www.w3.org/2000/svg">
    <path d="M5.7 3.485c1.875 0 3.4 1.461 3.4 3.258C9.1 8.539 7.575 10 5.7 10S2.3 8.539 2.3 6.743c0-1.797 1.525-3.258 3.4-3.258zM8.6 2C10.475 2 12 3.461 12 5.257c0 1.701-1.375 3.114-3.15 3.258.325-.527.5-1.126.5-1.749 0-1.796-1.425-3.281-3.25-3.473-.075-.024-.125-.024-.2-.024h-.2c-2 0-3.65 1.557-3.65 3.497 0 .575.15 1.15.425 1.63C1.05 8.011 0 6.742 0 5.256 0 3.461 1.525 2 3.4 2c1.05 0 1.975.431 2.6 1.15A3.486 3.486 0 0 1 8.6 2zM4.925 4.754c-.8 0-1.45.623-1.45 1.39 0 .766.65 1.389 1.45 1.389.8 0 1.45-.623 1.45-1.39 0-.766-.65-1.389-1.45-1.389zm-.175.575c.15 0 .3.048.4.12.1.096.15.192.15.311 0 .12-.05.216-.175.312.175.096.25.24.25.407 0 .12-.05.24-.175.335a.718.718 0 0 1-.45.144.718.718 0 0 1-.45-.144c-.125-.095-.175-.191-.175-.335 0-.168.1-.311.25-.407A.345.345 0 0 1 4.2 5.76c0-.12.05-.239.15-.31.1-.073.25-.12.4-.12zm0 .887a.415.415 0 0 0-.225.071.215.215 0 0 0-.1.192c0 .072.025.144.1.192.075.048.15.072.225.072.075 0 .15-.024.225-.072.075-.048.125-.12.1-.192a.215.215 0 0 0-.1-.192c-.05-.047-.125-.071-.225-.071zm0-.671a.291.291 0 0 0-.2.072c-.075.024-.1.096-.1.167 0 .072.05.12.1.168.05.048.125.072.2.072.075 0 .15-.024.2-.072.075-.048.1-.096.1-.168 0-.071-.05-.12-.1-.167a.291.291 0 0 0-.2-.072z" fill="#A9B7D1" fill-rule="evenodd"/>
</svg>
