<svg width="12" height="12" viewBox="0 0 12 12" xmlns="http://www.w3.org/2000/svg">
    <path d="M6 0c1.548 0 2.997.577 4.114 1.632C8.434 2.772 7.452 4.327 7.452 6c0 1.671.982 3.228 2.663 4.367A5.95 5.95 0 0 1 6 12a5.936 5.936 0 0 1-4.195-1.718C3.45 9.329 4.452 7.732 4.452 6c0-1.733-1.002-3.33-2.649-4.283A5.944 5.944 0 0 1 6 0zm4.464 2A5.97 5.97 0 0 1 12 6a5.97 5.97 0 0 1-1.536 4C8.879 8.95 7.952 7.524 7.952 6s.927-2.95 2.512-4zm-9.007.094C3.007 2.951 3.952 4.417 3.952 6c0 1.583-.945 3.049-2.495 3.904a5.958 5.958 0 0 1 0-7.81z" fill="#A9B7D1" fill-rule="evenodd"/>
</svg>
