<svg width="12" height="12" viewBox="0 0 12 12" xmlns="http://www.w3.org/2000/svg">
    <path d="M12 10c-.263 0-.513-.062-.738-.17a1.77 1.77 0 0 0-.76-.175 1.78 1.78 0 0 0-.763.175c-.224.108-.475.17-.738.17s-.514-.062-.738-.17a1.798 1.798 0 0 0-.762-.175c-.271 0-.531.066-.762.175a1.71 1.71 0 0 1-.738.17 1.72 1.72 0 0 1-.74-.17c-.23-.11-.49-.175-.759-.175-.271 0-.532.066-.762.175-.224.108-.478.17-.741.17a1.71 1.71 0 0 1-.737-.17c-.23-.11-.49-.175-.762-.175-.27 0-.529.066-.76.175C.514 9.938.264 10 0 10V8.836c.263 0 .513-.063.74-.167.231-.112.49-.178.76-.178.272 0 .532.066.762.178.224.104.478.167.737.167.263 0 .517-.063.741-.167.23-.112.49-.178.762-.178.27 0 .529.066.76.178.226.104.476.167.74.167.26 0 .513-.063.737-.167.23-.112.49-.178.762-.178.269 0 .529.066.762.178.224.104.475.167.738.167s.514-.063.738-.167c.23-.112.49-.178.762-.178s.532.066.761.178c.225.104.475.167.738.167V10zM9.825 1c.449 0 .816.38.816.854 0 .43-.296.765-.702.846l-2.77.532 2.382 4.515a1.759 1.759 0 0 1-.55.091c-.262 0-.514-.063-.738-.17a1.8 1.8 0 0 0-.762-.179c-.271 0-.531.07-.762.18-.223.106-.478.17-.738.17-.263 0-.513-.064-.74-.17-.23-.11-.49-.18-.759-.18-.271 0-.531.07-.762.18-.223.106-.478.17-.74.17a1.73 1.73 0 0 1-.738-.17 1.719 1.719 0 0 0-.314-.116l4.188-2.42-1.117-2.119-.036-.091c-.227-.567.171-1.03.471-1.102l4.279-.818C9.763 1 9.793 1 9.825 1zm.437 2.705c.788 0 1.427.671 1.427 1.5 0 .828-.639 1.503-1.427 1.503-.846 0-1.428-.675-1.428-1.503 0-.829.638-1.5 1.428-1.5z" fill="#A9B7D1" fill-rule="evenodd"/>
</svg>
