<svg width="12" height="12" viewBox="0 0 12 12" xmlns="http://www.w3.org/2000/svg">
    <path d="M9.54 5.521c.82.04 1.548.235 2.142.474l.217.09.101.045A5.997 5.997 0 0 1 6.22 12c1.412-1.262 2.965-3.336 3.32-6.479zm-.757.011c-.37 3.01-1.927 4.961-3.27 6.097l-.154.128-.227.184a5.967 5.967 0 0 1-1.578-.456c1.046-.81 2.562-2.459 2.763-5.26.872-.429 1.7-.637 2.466-.693zM.552 3.5c.403 1.836 1.41 4.163 3.82 6.062a6.671 6.671 0 0 1-1.327 1.373l-.146.109-.072.051A5.996 5.996 0 0 1 0 6.005C0 5.112.201 4.265.552 3.5zm1.855-2.295c.234 1.515.997 3.47 3.165 4.94-.077 1.126-.388 2.041-.798 2.78A9.74 9.74 0 0 1 1.2 2.91l-.033-.199-.032-.209a6.021 6.021 0 0 1 1.273-1.297zm8.959 2.89.097.059.304.187c.089.31.155.629.194.957a7.23 7.23 0 0 0-5.953.237c-.874-.59-1.493-1.264-1.93-1.956 3.36-1.399 6.137-.169 7.288.516zM6.003 0c2.303 0 4.302 1.3 5.308 3.206-1.456-.757-4.27-1.707-7.6-.286a6.753 6.753 0 0 1-.61-2.141L3.098.752A5.968 5.968 0 0 1 6.003 0z" fill="#A9B7D1" fill-rule="evenodd"/>
</svg>
