<svg width="12" height="12" viewBox="0 0 12 12" xmlns="http://www.w3.org/2000/svg">
    <path d="m.049 5.245 1.419 1.091.015-.03c.06.913.388 1.78.941 2.498.07.1.146.193.23.284l.129.135c.01.02.026.033.045.049l.03.026c.044.044.09.09.134.12l.037.03.038.029.024.022.035.023c.165.15.359.284.538.404a4.682 4.682 0 0 0 2.465.718h.045l.927 1.256c-1.793.329-3.72-.15-5.155-1.466A5.983 5.983 0 0 1 .05 5.244zm7.59 3.978 1.434 1.929a5.64 5.64 0 0 1-1.584.658l-1.001-1.316 1.15-1.271zm1.3-1.406 2.166 1.331a5.508 5.508 0 0 1-.688.897 6.025 6.025 0 0 1-1.046.913l-1.479-1.99 1.046-1.151zm.642-4.412c.493.658.777 1.436.836 2.259v.014L6.19 10.3h-.104a4.192 4.192 0 0 1-2.227-.644c.3-.06.643-.194 1.031-.418.015-.015.03-.015.045-.03.777-.449 1.644-1.182 2.45-2.064.747-.822 1.42-1.75 1.823-2.587.21-.419.344-.823.374-1.152zm-.827-.776.065.029.045.044.134.12.03.03.045.045s.015 0 .015.015c0 0 .015 0 .015.015.194.194.134.703-.18 1.376-.328.717-.941 1.645-1.808 2.587-.791.867-1.643 1.585-2.405 2.019-.015.015-.03.015-.045.03-.561.315-1.022.442-1.28.345l-.064-.031-.03-.03a.326.326 0 0 0-.075-.06c-.045-.045-.09-.075-.134-.12l-.045-.045c-.165-.224-.09-.717.209-1.375.329-.733.941-1.645 1.808-2.603.704-.77 1.466-1.423 2.152-1.864l.253-.154c.575-.33 1.038-.457 1.295-.373zm1.828 3.393 1.33.958a5.92 5.92 0 0 1-.628 1.854L9.192 7.548l1.39-1.526zM8.296 2.27c-.284.06-.628.194-1.001.418-.03.015-.06.045-.09.06-.762.449-1.613 1.167-2.39 2.034-.747.823-1.42 1.765-1.823 2.587-.194.42-.329.793-.359 1.122a4.162 4.162 0 0 1-.777-2.198v-.105L5.95 1.7h.105c.777-.044 1.554.165 2.24.569zm1.778-.703a6.024 6.024 0 0 1 1.897 5.01l-1.195-.853A4.582 4.582 0 0 0 9.53 2.808l-.16-.165c0-.01-.006-.014-.015-.02l-.014-.01c-.015-.03-.045-.045-.06-.06l-.067-.06-.068-.06c-.02-.02-.033-.033-.048-.044l-.026-.016c-.15-.12-.3-.224-.449-.329a4.572 4.572 0 0 0-2.644-.702L4.845.115a6.027 6.027 0 0 1 5.229 1.45zM.572 3.42l2.106 1.286-1.135 1.242L.108 4.826c.09-.479.254-.957.464-1.406zm1.867-2.273 1.554 2.124-1.076 1.166L.736 3.091c.224-.404.508-.792.837-1.166.269-.3.552-.554.866-.778zM4.411.19l1.21 1.301-1.389 1.51L2.723.954A6.115 6.115 0 0 1 4.411.19z" fill="#A9B7D1" fill-rule="evenodd"/>
</svg>
