<svg width="12" height="12" viewBox="0 0 12 12" xmlns="http://www.w3.org/2000/svg">
    <path d="m9.656 2.799 1.892 2.608c.244.343.281.762.094 1.143l-.6 2.57.768.761a.668.668 0 0 1 0 .933.637.637 0 0 1-.899 0L9.9 9.786a.663.663 0 0 1-.169-.609l.412-1.809C9.6 7.75 8.59 8.473 7.821 9.006l-.487 1.351a.643.643 0 0 1-.825.381c-.318-.114-.487-.495-.374-.838l.562-1.523a.591.591 0 0 1 .225-.304l2.51-1.847-1.087-1.504-.412.876a.655.655 0 0 1-.337.304l-1.63.59c-.505.19-.955-.323-.824-.761.113-.4.674-.552.75-.571l1.03-.381.842-1.675a1.072 1.072 0 0 1 1.892-.305zM2.97 2.513l1.068.476a.805.805 0 0 1 .337.286l1.087 1.637c-.637.305-.806.819-.656 1.276-.3-.21-.356-.4-1.124-1.466l-.412.952 1.742 1.6.037.037.768 1.314c.188.304.132.685-.13.895-.3.266-.769.171-.975-.172L4 8.168 2.089 6.55c.082 1.524.107 1.663.086 1.74l-.007.02-.004.01-.9 2.037c-.168.362-.599.514-.936.305a.676.676 0 0 1-.262-.876l.768-1.751-.112-2.076c-.02-.304.093-.323 1.255-3.046a.743.743 0 0 1 .992-.4zM7.184.02c.768 0 1.33.743 1.161 1.485a1.181 1.181 0 0 1-1.161.914A1.197 1.197 0 0 1 6.022.933 1.19 1.19 0 0 1 7.184.02zM4.355.095c.581.267.825.952.581 1.523-.262.572-.918.857-1.498.59-.562-.247-.825-.932-.581-1.522.262-.59.937-.838 1.498-.59z" fill="#A9B7D1" fill-rule="evenodd"/>
</svg>
