<svg xmlns="http://www.w3.org/2000/svg" width="55" height="55" viewBox="0 0 55 55">
    <g fill="#fff" fill-rule="nonzero" stroke="#fff" stroke-width=".86">
        <path d="M8.27 43.776a3.554 3.554 0 0 0-3.555 3.555 3.554 3.554 0 0 0 3.554 3.554 3.554 3.554 0 0 0 3.555-3.554 3.554 3.554 0 0 0-3.555-3.555zm0 5.332c-.978 0-1.778-.8-1.778-1.777 0-.978.8-1.778 1.777-1.778.978 0 1.778.8 1.778 1.778 0 .977-.8 1.777-1.778 1.777z"/>
        <path d="M49.148 40.452v-1.208a4.82 4.82 0 0 0-2.906-4.426l-11.695-5.065.871-.871-5.03-5.03-1.688 1.689v-1.68l-1.778-1.777V20.67h3.555v-7.11h-3.555v-.524L28.7 11.26V9.198a2.729 2.729 0 0 0-2.737-2.746H10.935V3.786c0-1.466-1.2-2.666-2.666-2.666a2.674 2.674 0 0 0-2.666 2.666V7.19a2.717 2.717 0 0 0-.888 2.008v1.19c0 .57.222 1.103.622 1.503l1.057 1.048a.343.343 0 0 1 .098.24v13.197a.343.343 0 0 1-.098.24l-1.057 1.066c-.4.4-.622.933-.622 1.493v12.006C2.59 42.416 1.16 44.71 1.16 47.331c0 3.919 3.19 7.109 7.11 7.109 3.616 0 6.611-2.72 7.046-6.22h5.457c.435 3.5 3.43 6.22 7.047 6.22 3.617 0 6.612-2.72 7.047-6.22h5.457c.435 3.5 3.43 6.22 7.047 6.22 3.919 0 7.109-3.19 7.109-7.11 0-3.305-2.275-6.087-5.332-6.878zm-18.75-14.085l2.514 2.515-.115.115-4.328 4.328c-.08.08-.178.16-.276.222-.062.036-.124.063-.186.098-.045.018-.08.045-.116.062-.098.036-.204.063-.302.09-.009 0-.018.008-.027.008-.07.018-.15.018-.222.018-.044 0-.08.009-.124.009-.045 0-.08-.01-.125-.01-.07-.008-.15-.008-.222-.017-.009 0-.018-.009-.027-.009a1.183 1.183 0 0 1-.302-.089c-.044-.017-.08-.044-.115-.062a1.235 1.235 0 0 1-.187-.098 1.59 1.59 0 0 1-.275-.222 1.78 1.78 0 0 1 0-2.515l2.755-2.755 1.68-1.688zm-1.69-11.028v3.554H23.378c-.978 0-1.778-.8-1.778-1.777 0-.978.8-1.777 1.778-1.777h5.332zM7.382 6.452V3.786c0-.489.4-.889.888-.889.49 0 .889.4.889.889v2.666H7.381zM6.59 28.935l1.057-1.057c.4-.4.622-.933.622-1.493v-.382h2.666v-1.778H8.27v-1.777h2.666v-1.777H8.27v-1.778h2.666v-1.777H8.27v-1.777h2.666V13.56H8.27v-.382a2.11 2.11 0 0 0-.622-1.502L6.59 10.63a.343.343 0 0 1-.098-.24V9.198a.97.97 0 0 1 .969-.969H25.963a.97.97 0 0 1 .968.969v1.333l-1.777 1.777v1.253h-1.777a3.554 3.554 0 0 0-3.555 3.555 3.554 3.554 0 0 0 3.555 3.555h1.777v2.141l1.777 1.778v2.728l-2.23 2.24a3.561 3.561 0 0 0 .542 5.474 3.506 3.506 0 0 0 1.973.595c.71 0 1.395-.204 1.973-.595.195-.134.373-.276.542-.445l3.474-3.475 12.344 5.35a3.037 3.037 0 0 1 1.822 2.782v.977H15.334a9.787 9.787 0 0 0-8.842-8.842v-2.204c0-.089.036-.178.098-.24zM32.503 42H42.68a7.115 7.115 0 0 0-2.364 4.443h-5.457a7.062 7.062 0 0 0-2.355-4.443zm-19.55 0H23.137a7.115 7.115 0 0 0-2.364 4.443h-5.457a7.115 7.115 0 0 0-2.363-4.443zM6.492 40.22v-7.056a8.001 8.001 0 0 1 7.056 7.056H6.492zm1.777 12.442a5.336 5.336 0 0 1-5.332-5.332 5.336 5.336 0 0 1 5.332-5.332 5.336 5.336 0 0 1 5.332 5.332 5.336 5.336 0 0 1-5.332 5.332zm19.551 0a5.336 5.336 0 0 1-5.332-5.332 5.336 5.336 0 0 1 5.332-5.332 5.336 5.336 0 0 1 5.332 5.332 5.336 5.336 0 0 1-5.332 5.332zm19.55 0a5.336 5.336 0 0 1-5.331-5.332 5.336 5.336 0 0 1 5.332-5.332 5.336 5.336 0 0 1 5.332 5.332 5.336 5.336 0 0 1-5.332 5.332z"/>
        <path d="M47.37 43.776a3.554 3.554 0 0 0-3.554 3.555 3.554 3.554 0 0 0 3.555 3.554 3.554 3.554 0 0 0 3.554-3.554 3.554 3.554 0 0 0-3.554-3.555zm0 5.332c-.977 0-1.777-.8-1.777-1.777 0-.978.8-1.778 1.778-1.778.977 0 1.777.8 1.777 1.778 0 .977-.8 1.777-1.777 1.777zM27.82 43.776a3.554 3.554 0 0 0-3.555 3.555 3.554 3.554 0 0 0 3.555 3.554 3.554 3.554 0 0 0 3.555-3.554 3.554 3.554 0 0 0-3.555-3.555zm0 5.332c-.978 0-1.777-.8-1.777-1.777 0-.978.8-1.778 1.777-1.778.978 0 1.777.8 1.777 1.778 0 .977-.8 1.777-1.777 1.777zM25.154 10.007c0-.49-.4-.889-.889-.889H9.158c-.489 0-.889.4-.889.889 0 .488.4.888.889.888h15.107c.49 0 .889-.4.889-.888z"/>
    </g>
</svg>
