<svg width="23" height="23" viewBox="0 0 23 23" fill="none" xmlns="http://www.w3.org/2000/svg">
<path d="M0.416609 19.5602C0.268873 19.0221 -0.173299 18.3272 0.152484 12.8029C0.122695 12.2708 0.0137536 8.59115 0.0113289 8.5619C-0.0316239 8.12692 0.02276 7.5866 0.617345 7.43423C1.30372 7.25814 1.55347 7.853 1.58118 8.12613C1.60924 8.39925 1.82903 12.2532 1.82903 12.2532C1.82903 12.3027 1.86401 12.3426 1.90749 12.3426C1.95079 12.3426 1.98577 12.3025 1.98577 12.2532C1.98577 12.2532 1.8531 6.27117 1.8531 6.11702C1.8531 5.96287 1.7866 5.07294 2.76724 4.94803C3.55026 4.87926 3.68449 5.60081 3.68449 5.7931C3.68449 5.9854 3.95814 11.821 3.95814 11.821C3.95814 11.8704 3.99312 11.9106 4.03642 11.9106C4.07972 11.9106 4.11471 11.8706 4.11471 11.821V5.25179C4.11471 5.25179 4.02066 4 5.0834 4C6.14579 4 6.08153 5.25179 6.08153 5.25179L6.20156 11.8768C6.20156 11.9262 6.23654 11.9663 6.27984 11.9663C6.32314 11.9663 6.3583 11.9262 6.3583 11.8768L6.5315 6.74252C6.5315 6.74252 6.45165 5.38914 7.4678 5.38914C8.58855 5.401 8.51529 6.78323 8.51668 6.89133C8.52967 7.92514 8.42765 12.639 8.49832 13.4722C8.53053 13.8539 8.48775 15.0031 9.05896 15.0031C9.62999 15.0031 9.66913 12.5282 9.66913 12.5282C9.66913 12.5282 9.5 12 10 11.5C10.5 11 11 11.9106 11 11.9106C11 11.9106 11.01 16.6867 10.5315 17.7976C10.369 18.1743 10.1312 19.2013 9.66913 19.8992C9.0593 20.8211 8.21791 21.5948 8.21791 21.5948L8.27074 23H1.16967L1.24293 21.1996C1.24293 21.1996 0.677097 20.5073 0.416609 19.5602Z" fill="#fff"/>
<path d="M22.5834 19.5602C22.7311 19.0221 23.1733 18.3272 22.8475 12.8029C22.8773 12.2708 22.9862 8.59115 22.9887 8.5619C23.0316 8.12692 22.9772 7.5866 22.3827 7.43423C21.6963 7.25814 21.4465 7.853 21.4188 8.12613C21.3908 8.39925 21.171 12.2532 21.171 12.2532C21.171 12.3027 21.136 12.3426 21.0925 12.3426C21.0492 12.3426 21.0142 12.3025 21.0142 12.2532C21.0142 12.2532 21.1469 6.27117 21.1469 6.11702C21.1469 5.96287 21.2134 5.07294 20.2328 4.94803C19.4497 4.87926 19.3155 5.60081 19.3155 5.7931C19.3155 5.9854 19.0419 11.821 19.0419 11.821C19.0419 11.8704 19.0069 11.9106 18.9636 11.9106C18.9203 11.9106 18.8853 11.8706 18.8853 11.821V5.25179C18.8853 5.25179 18.9793 4 17.9166 4C16.8542 4 16.9185 5.25179 16.9185 5.25179L16.7985 11.8768C16.7985 11.9262 16.7635 11.9663 16.7202 11.9663C16.6769 11.9663 16.6417 11.9262 16.6417 11.8768L16.4685 6.74252C16.4685 6.74252 16.5484 5.38914 15.5322 5.38914C14.4115 5.401 14.4847 6.78323 14.4833 6.89133C14.4703 7.92514 14.5724 12.639 14.5017 13.4722C14.4695 13.8539 14.5123 15.0031 13.9411 15.0031C13.37 15.0031 13.3309 12.5282 13.3309 12.5282C13.3309 12.5282 13.5 12 13 11.5C12.5 11 12 11.9106 12 11.9106C12 11.9106 11.99 16.6867 12.4685 17.7976C12.631 18.1743 12.8688 19.2013 13.3309 19.8992C13.9407 20.8211 14.7821 21.5948 14.7821 21.5948L14.7293 23H21.8303L21.7571 21.1996C21.7571 21.1996 22.3229 20.5073 22.5834 19.5602Z" fill="#fff"/>
<ellipse cx="12" cy="2" rx="6" ry="2" fill="#fff"/>
</svg>
