<svg width="23" height="19" viewBox="0 0 23 19" fill="none" xmlns="http://www.w3.org/2000/svg">
<path d="M14.5003 6.00003C13.1211 6.00003 12 7.12113 12 8.49975C12 9.87837 13.1211 11 14.5003 11C15.8783 11 17 9.87837 17 8.49975C17 7.12113 15.8778 6.00003 14.5003 6.00003ZM14.5003 9.88228C13.7378 9.88228 13.1172 9.26224 13.1172 8.49919C13.1172 7.73727 13.7372 7.11666 14.5003 7.11666C15.2622 7.11666 15.8828 7.73671 15.8828 8.49919C15.8822 9.26168 15.2622 9.88228 14.5003 9.88228Z" fill="#fff"/>
<path d="M8.50028 6.00003C7.1211 6.00003 6 7.12113 6 8.49975C6 9.87837 7.1211 11 8.50028 11C9.87833 11 11 9.87837 11 8.49975C11 7.12113 9.87778 6.00003 8.50028 6.00003ZM8.50028 9.88228C7.73779 9.88228 7.11719 9.26224 7.11719 8.49919C7.11719 7.73727 7.73723 7.11666 8.50028 7.11666C9.2622 7.11666 9.88281 7.73671 9.88281 8.49919C9.88225 9.26168 9.2622 9.88228 8.50028 9.88228Z" fill="#fff"/>
<path d="M8.50028 13C7.1211 13 6 14.1211 6 15.4998C6 16.8784 7.1211 18 8.50028 18C9.87833 18 11 16.8784 11 15.4998C11 14.1211 9.87778 13 8.50028 13ZM8.50028 16.8823C7.73779 16.8823 7.11719 16.2622 7.11719 15.4992C7.11719 14.7373 7.73723 14.1167 8.50028 14.1167C9.2622 14.1167 9.88281 14.7367 9.88281 15.4992C9.88225 16.2617 9.2622 16.8823 8.50028 16.8823Z" fill="#fff"/>
<path d="M2.50028 6.00003C1.1211 6.00003 0 7.12113 0 8.49975C0 9.87837 1.1211 11 2.50028 11C3.87833 11 5 9.87837 5 8.49975C5 7.12113 3.87778 6.00003 2.50028 6.00003ZM2.50028 9.88228C1.73779 9.88228 1.11719 9.26224 1.11719 8.49919C1.11719 7.73727 1.73723 7.11666 2.50028 7.11666C3.2622 7.11666 3.88281 7.73671 3.88281 8.49919C3.88225 9.26168 3.2622 9.88228 2.50028 9.88228Z" fill="#fff"/>
<path d="M3.85527 0.144739C3.66229 -0.0482463 3.35036 -0.0482463 3.15738 0.144739L2 1.30216L0.842619 0.144739C0.64964 -0.0482463 0.337714 -0.0482463 0.144734 0.144739C-0.0482448 0.337724 -0.0482448 0.649659 0.144734 0.842644L1.30212 2.00006L0.144734 3.15748C-0.0482448 3.35046 -0.0482448 3.66289 0.144734 3.85538C0.240977 3.95163 0.367327 4 0.493677 4C0.620026 4 0.746376 3.95163 0.842619 3.85538L2 2.69797L3.15738 3.85538C3.25363 3.95163 3.37998 4 3.50633 4C3.63268 4 3.75902 3.95163 3.85527 3.85538C4.04824 3.6624 4.04824 3.35046 3.85527 3.15748L2.69789 2.00006L3.85527 0.842644C4.04775 0.649659 4.04775 0.337231 3.85527 0.144739Z" fill="#fff"/>
<path d="M9.85527 0.144769C9.66229 -0.0482158 9.35036 -0.0482158 9.15738 0.144769L8 1.30219L6.84262 0.144769C6.64964 -0.0482158 6.33771 -0.0482158 6.14473 0.144769C5.95176 0.337755 5.95176 0.649689 6.14473 0.842675L7.30212 2.00009L6.14473 3.15751C5.95176 3.3505 5.95176 3.66292 6.14473 3.85542C6.24098 3.95166 6.36733 4.00003 6.49368 4.00003C6.62003 4.00003 6.74638 3.95166 6.84262 3.85542L8 2.698L9.15738 3.85542C9.25363 3.95166 9.37998 4.00003 9.50633 4.00003C9.63268 4.00003 9.75902 3.95166 9.85527 3.85542C10.0482 3.66243 10.0482 3.3505 9.85527 3.15751L8.69789 2.00009L9.85527 0.842675C10.0478 0.649689 10.0478 0.337261 9.85527 0.144769Z" fill="#fff"/>
<path d="M15.8553 0.144769C15.6623 -0.0482158 15.3504 -0.0482158 15.1574 0.144769L14 1.30219L12.8426 0.144769C12.6496 -0.0482158 12.3377 -0.0482158 12.1447 0.144769C11.9518 0.337755 11.9518 0.649689 12.1447 0.842675L13.3021 2.00009L12.1447 3.15751C11.9518 3.3505 11.9518 3.66292 12.1447 3.85542C12.241 3.95166 12.3673 4.00003 12.4937 4.00003C12.62 4.00003 12.7464 3.95166 12.8426 3.85542L14 2.698L15.1574 3.85542C15.2536 3.95166 15.38 4.00003 15.5063 4.00003C15.6327 4.00003 15.759 3.95166 15.8553 3.85542C16.0482 3.66243 16.0482 3.3505 15.8553 3.15751L14.6979 2.00009L15.8553 0.842675C16.0478 0.649689 16.0478 0.337261 15.8553 0.144769Z" fill="#fff"/>
<path d="M15.2405 15.4164C14.6986 15.5732 14.1341 15.6375 13.5708 15.6066C13.5842 15.582 13.3587 16.8756 13.3715 16.8523C14.1206 16.9096 14.8738 16.8316 15.5952 16.6219C18.582 15.7562 20.4175 12.7555 20.0726 9.74853L20.5528 10.1583C20.6156 10.2119 20.6884 10.2525 20.7669 10.2779C20.8454 10.3033 20.9282 10.313 21.0105 10.3064C21.0927 10.2997 21.1729 10.277 21.2463 10.2393C21.3198 10.2017 21.3851 10.15 21.4386 10.0871C21.4921 10.0243 21.5327 9.95155 21.5581 9.87303C21.5835 9.7945 21.5932 9.71174 21.5866 9.62948C21.5799 9.54721 21.5572 9.46706 21.5196 9.3936C21.4819 9.32015 21.4302 9.25483 21.3673 9.20139L19.7325 7.80982C19.6068 7.70207 19.4436 7.64833 19.2785 7.66029C19.1134 7.67225 18.9596 7.74894 18.8508 7.87368L17.4592 9.50853C17.3512 9.63543 17.298 9.80004 17.3114 9.96614C17.3248 10.1322 17.4036 10.2862 17.5305 10.3942C17.6574 10.5023 17.822 10.5554 17.9881 10.5421C18.1542 10.5287 18.3082 10.4499 18.4162 10.323L18.826 9.84275C19.1352 12.2758 17.6585 14.7172 15.2405 15.4164Z" fill="#fff"/>
</svg>
