<svg xmlns="http://www.w3.org/2000/svg" width="42" height="41" viewBox="0 0 42 41">
    <g fill="none" fill-rule="evenodd">
        <path fill="#fff" fill-rule="nonzero" d="M25.957 0C17.66 0 10.914 6.746 10.914 15.043c0 8.297 6.746 15.043 15.043 15.043C34.254 30.086 41 23.34 41 15.043 41 6.746 34.254 0 25.957 0zm2.914 29.136c-.95.19-1.9.285-2.914.285-1.013 0-1.995-.095-2.977-.317l-.031-.032-2.376-4.085 2.66-4.624h5.321l2.66 4.624-2.375 4.117.032.032zm-8.836-23.53l2.66 4.591-2.66 4.624h-5.32l-2.439-4.212-.032-.031c.602-1.837 1.584-3.516 2.819-4.973h4.972zm11.78 0h5.005a14.226 14.226 0 0 1 2.787 4.908l-.032.032-2.47 4.275h-5.32l-2.66-4.592 2.69-4.624zM12.34 19.602l2.407-4.148h5.32l2.66 4.592-2.66 4.623h-4.781a13.112 13.112 0 0 1-2.946-5.067zm19.477 5.067l-2.66-4.623 2.66-4.592h5.32l2.439 4.212.032.031a14.509 14.509 0 0 1-2.914 4.972h-4.877zM26.717.665c.697.032 1.362.127 1.995.253l.032.032 2.502 4.307-2.66 4.624h-5.32l-2.66-4.592 2.5-4.307.033-.032a14.624 14.624 0 0 1 2.058-.253h1.52V.665z"/>
        <path stroke="#fff" stroke-linecap="square" stroke-width="4.4" d="M3.114 2.229v35.657M39.049 37.886H5.62"/>
    </g>
</svg>
