<svg xmlns="http://www.w3.org/2000/svg" width="45" height="45" viewBox="0 0 45 45">
    <g fill="#fff" fill-rule="nonzero">
        <path d="M43.288 16.744H28.66c-.142 0-.237.1-.237.249v1.94c0 .249-.142.448-.378.497l-3.74.747c-.285.05-.569-.2-.569-.498v-2.686c0-.15-.094-.249-.236-.249H13.84c-7.244 0-13.446 5.87-13.824 13.432C-.363 38.284 5.792 45 13.462 45c7.433 0 13.445-6.318 13.445-14.128 0-.895-.094-1.79-.236-2.686l16.475-3.283c.758-.15 1.278-.796 1.373-1.592l.473-4.627c.095-.995-.71-1.94-1.704-1.94zM13.462 37.986c-3.74 0-6.77-3.184-6.77-7.114 0-3.93 3.03-7.114 6.77-7.114 3.74 0 6.77 3.184 6.77 7.114 0 3.93-3.03 7.114-6.77 7.114zM26 12.558c.556 0 1-.4 1-.9V.9C27 .4 26.556 0 26 0s-1 .4-1 .9v10.758c.056.5.5.9 1 .9zM19.411 11.977c.137.34.41.581.775.581.09 0 .182 0 .273-.048.41-.145.638-.63.501-1.113L17.59 1.62c-.137-.435-.638-.677-1.048-.532-.41.145-.638.629-.501 1.113l3.371 9.775zM31.54 12.51c.091.048.182.048.274.048.318 0 .637-.193.773-.58l3.369-9.772c.136-.435-.046-.919-.501-1.112-.41-.145-.865.048-1.047.532l-3.368 9.771c-.137.436.09.92.5 1.113z"/>
    </g>
</svg>
