<svg xmlns="http://www.w3.org/2000/svg" width="51" height="51" viewBox="0 0 51 51">
    <path fill="#fff" fill-rule="nonzero" d="M4.047 29.111l8.177 1.785 8.506-8.565a.52.52 0 0 1 .509-.185.497.497 0 0 1 .39.362 9.004 9.004 0 0 0 1.81 3.554l1.249 1.514a.86.86 0 0 1-.076 1.181l-8.78 7.561a3.262 3.262 0 0 1-3.129.979l-10.21-2.238a3.2 3.2 0 0 1-2.082-1.488A2.942 2.942 0 0 1 .166 31.1c.575-1.51 2.246-2.365 3.881-1.988zM41.981.148c1.527.339 2.851 1.24 3.685 2.508 1.506 2.291 1.105 5.28-.957 7.135-2.062 1.856-5.21 2.061-7.518.49-2.307-1.57-3.13-4.478-1.965-6.944C36.392.87 39.221-.465 41.981.147zm8.046 25.612a2.656 2.656 0 0 1-2.012.52l-9.659-1.196-.25-.042c-.865-.184-1.574-.77-1.887-1.561l-2.055-4.017-4.077 6.8 4.404 7.895c.717.897.85 2.102.344 3.122l-5.697 11.927c-.58 1.198-1.896 1.91-3.27 1.77a3.155 3.155 0 0 1-.371-.058 3.297 3.297 0 0 1-1.417-.66c-1.1-.942-1.411-2.465-.763-3.732l4.878-10.1-6.944-8.446c-1.924-2.315-2.154-5.522-.578-8.066l4.824-7.035-4.71-2.347-5.767 5.433a2.708 2.708 0 0 1-1.956.726 2.689 2.689 0 0 1-1.892-.867 2.517 2.517 0 0 1 .223-3.523l6.858-6.462a2.7 2.7 0 0 1 2.649-.599l.806.25a55.75 55.75 0 0 1 14.211 6.655 6.613 6.613 0 0 1 2.48 2.946l2.208 5.203 7.97.994c1.427.152 2.486 1.336 2.42 2.706a2.47 2.47 0 0 1-.97 1.764zM42.45 39.81c-2.76-.605-5.584.736-6.744 3.202-1.16 2.467-.333 5.372 1.974 6.939 2.308 1.567 5.454 1.36 7.515-.496 2.06-1.855 2.46-4.84.956-7.132-.837-1.275-2.17-2.181-3.707-2.518l.006.005z"/>
</svg>
