<svg xmlns="http://www.w3.org/2000/svg" width="42" height="41" viewBox="0 0 42 41">
    <g fill="none" fill-rule="evenodd">
        <path fill="#fff" fill-rule="nonzero" d="M16.043 41c8.297 0 15.043-6.746 15.043-15.043 0-8.297-6.746-15.043-15.043-15.043C7.746 10.914 1 17.66 1 25.957 1 34.254 7.746 41 16.043 41zm-2.914-29.136c.95-.19 1.9-.285 2.914-.285 1.013 0 1.995.095 2.977.317l.031.032 2.376 4.085-2.66 4.624h-5.321l-2.66-4.624 2.375-4.117-.032-.032zm8.836 23.53l-2.66-4.591 2.66-4.624h5.32l2.439 4.212.032.031c-.602 1.837-1.584 3.516-2.819 4.973h-4.972zm-11.78 0H5.18a14.226 14.226 0 0 1-2.787-4.908l.032-.032 2.47-4.275h5.32l2.66 4.592-2.69 4.624zM29.66 21.398l-2.407 4.148h-5.32l-2.66-4.592 2.66-4.623h4.781a13.112 13.112 0 0 1 2.946 5.067zM10.184 16.33l2.66 4.623-2.66 4.592h-5.32l-2.439-4.212-.032-.031a14.509 14.509 0 0 1 2.914-4.972h4.877zm5.099 24.005a13.203 13.203 0 0 1-1.995-.253l-.032-.032-2.502-4.307 2.66-4.624h5.32l2.66 4.592-2.5 4.307-.033.032c-.665.127-1.361.222-2.058.253h-1.52v.032z"/>
        <path stroke="#fff" stroke-linecap="square" stroke-width="4.4" d="M38.886 38.771V3.114M2.951 3.114H36.38"/>
    </g>
</svg>
