<svg xmlns="http://www.w3.org/2000/svg" width="45" height="45" viewBox="0 0 45 45">
    <path fill="#fff" fill-rule="nonzero" d="M22.5 0C10.09 0 0 10.09 0 22.5S10.09 45 22.5 45 45 34.91 45 22.5 34.91 0 22.5 0zm4.358 43.579a21.933 21.933 0 0 1-4.358.426 20.03 20.03 0 0 1-4.453-.473L18 43.484l-3.553-6.11 3.98-6.916h7.957l3.98 6.916-3.553 6.158.047.047zM13.642 8.384l3.98 6.869-3.98 6.915H5.684l-3.647-6.3-.048-.047c.9-2.747 2.369-5.258 4.216-7.437h7.437zm17.621 0h7.484a21.277 21.277 0 0 1 4.169 7.342l-.048.048-3.694 6.394h-7.958l-3.98-6.868 4.027-6.916zM2.132 29.321l3.6-6.205h7.957l3.98 6.868-3.98 6.916H6.537a19.611 19.611 0 0 1-4.405-7.579zM31.263 36.9l-3.979-6.916 3.98-6.868h7.957l3.647 6.3.048.047c-.948 2.795-2.463 5.305-4.358 7.437h-7.295zM23.637.995c1.042.047 2.037.19 2.984.379l.047.047 3.743 6.442-3.98 6.916h-7.957l-3.98-6.868 3.743-6.443.047-.047c.995-.19 2.037-.332 3.08-.379h2.273V.995z"/>
</svg>
