<svg xmlns="http://www.w3.org/2000/svg" width="48" height="60" viewBox="0 0 48 60">
    <g fill="#fff" fill-rule="nonzero">
        <path d="M26.608 9.524c-.06 0-.114-.025-.141-.065a.096.096 0 0 1 .011-.125l.661-.711a.182.182 0 0 1 .144-.051c.057.004.107.03.13.069a.096.096 0 0 1-.013.12l-.661.712a.179.179 0 0 1-.13.05zM27.352 6.995a.188.188 0 0 0-.248.04L25.54 9.112C18.563 3.291 10.025.978.154 2.24c-.098.013-.166.097-.152.188.016.09.104.151.201.142 9.831-1.259 18.327 1.068 25.25 6.912.003.003.008.001.011.004.003.002.003.007.006.009a.188.188 0 0 0 .235-.025c.003-.003.002-.008.005-.012.002-.002.007-.001.01-.004l1.676-2.226a.158.158 0 0 0 .03-.125.166.166 0 0 0-.074-.107z"/>
        <ellipse cx="21.551" cy="15.238" rx="3.918" ry="3.81"/>
        <path d="M48 29.853a3.555 3.555 0 0 1-.518 1.849l-16.736-9.23-.519 10.584s-.155 2.413-.06 3.448l.924 10.128 4.689 12.302-2.604.905c-1.436.5-3.025-.205-3.55-1.576l-3.748-9.838a5.161 5.161 0 0 1-.31-1.332l-1.037-11.357-1.507-.256-7.215 9.844v9.604c0 .702-.292 1.375-.811 1.872a2.837 2.837 0 0 1-1.96.774h-2.77V45.318c0-1.085.35-2.144 1-3.033l7.365-10.037v-8.671l-6.208 1.604a2.157 2.157 0 0 1-1.95-.452 1.94 1.94 0 0 1-.648-1.812l1.555-8.439c.328-1.763 1.932-3.047 3.807-3.05.226 0 .451.019.673.057l-1.74 9.417 3.45-.882c.179-.045.36-.08.543-.102l12.63-1.138c.678 0 1.344.17 1.931.495l13.394 7.38c1.196.66 1.932 1.879 1.93 3.198z"/>
        <ellipse cx="30.367" cy="4.762" rx="4.898" ry="4.762"/>
    </g>
</svg>
